<mxfile host="Electron" modified="2024-06-01T12:35:54.368Z" agent="Mozilla/5.0 (Windows NT 10.0; Win64; x64) AppleWebKit/537.36 (KHTML, like Gecko) draw.io/24.4.13 Chrome/124.0.6367.207 Electron/30.0.6 Safari/537.36" etag="BEL3mSfpt_GOJS1ibVVk" version="24.4.13" type="device" pages="2">
  <diagram name="hld" id="i8LihjRafYLh3wox3mRN">
    <mxGraphModel dx="1050" dy="1448" grid="1" gridSize="10" guides="1" tooltips="1" connect="1" arrows="1" fold="1" page="1" pageScale="1" pageWidth="1169" pageHeight="827" math="0" shadow="0">
      <root>
        <mxCell id="0" />
        <mxCell id="1" parent="0" />
        <mxCell id="HX6_WD2VTj27ss0LEgF8-6" value="" style="rounded=1;whiteSpace=wrap;html=1;fillColor=#ffe6cc;strokeColor=#d79b00;" parent="1" vertex="1">
          <mxGeometry x="410" y="-520" width="410" height="80" as="geometry" />
        </mxCell>
        <mxCell id="HX6_WD2VTj27ss0LEgF8-1" value="" style="shape=image;aspect=fixed;image=data:image/png,iVBORw0KGgoAAAANSUhEUgAAAIAAAACACAYAAADDPmHLAAAABGdBTUEAALGPC/xhBQAAACBjSFJNAAB6JgAAgIQAAPoAAACA6AAAdTAAAOpgAAA6mAAAF3CculE8AAAABmJLR0QA/wD/AP+gvaeTAAAACXBIWXMAADsOAAA7DgHMtqGDAAAAB3RJTUUH5AYMCjAFJiz+hgAANs1JREFUeNrtnXl8HNWV779VvalbvWmXLdmWZLDwincwi8HsWwIhJGSAED7MCzBZIExe8vJCJpNHEj4J7yXBxIFgJpkwgYQxS0IwxGAWQ8BgsLzhfZNlW4u1t1q9d9V9f5yqtmy8yWoZJ/D7fNqSXF23bt177tnuOefCJ/gEn+ATfIKPKbSPugN/x9AAF+C2fjoAHTABA0hbn8xH3dGjvcTHDTr7J85h/Z8JZAd8zIPucQNFQAUwEqgCxlmfcqDAalOz7s0AcaAFWA9sB3YDe4EOIPFRD4KNj4IANMALlCKDVwaEgQDgQwY7A8SsTy/QA3RbP/uAJKCO8XleYAQwBhgLTEQmrghwWv0xgBTQBTQBO5DJ6wJGA5cC06z+Bqw+DmbsDIQgOhGC+DPwvvWc+EcwBwdMxolCAKgHzgKuBE5FJsGHTIR+iHvslZkG+hECaAL+BqwFdgKtQIQDCUIHqq1nXQ9MRwjOO4h3tp/rweIUTqeTQCBAOBymqKiIcDhMMBiksLAQl8uFw+HAMAxSqRTRaJSenh66u7vp6uoiEomQSqUGvlcnsBz4LfCO9fcJx4kggBLgfOA2YBay2jVN0/D5fASDQQKBAIWFhbjdbnRdxzRNUqkUiUSCWCxGLBYjHo8PHECsyekGGoGXgGXAVoQdfw64FagDXJqmUVhYSGlpKWVlZRQXF+P3+/F4PCilSKVSxONxIpFIbtIikQjZbJaSkhJqamoYP348Z599NtOnT6esrIxAIIDX68XpdOJwONC0/UNpmmaOEGKxGF1dXWzcuJGXX36Z1atXs2PHDnp7e1FKgXCzBuABYClCzP8QBOAGzgO+C8wBPC6Xi6qqKiZMmMCcOXM455xzGDlyJIFAAI/Hg9PpRNc1TFORyWRIp9MkEgl6e3vZvXs3K1asYPPmzezatYvW1la6u7vJZDIgqz8O7EFkcS2gB4NBxo8fz9y5c7nyyiupqakhHA5TUFCQexbKmjCL6GKxGN3d3WzevJmmpibmzZtHbW0tgUAAXT+QSRmmSSZrkskaGKatNmg4HToup47L6UA/iDAikQibNm3iiSeeYOnSpTQ2NpLNZm1CWAr8GFiJiI2/WwIoBu4E7gLCBQUFTJ06lZtuuokrrriCkSNH4vF4DnmjOkqnspkMkb4+2traeO+993jppZdYv349TU1N9Pf3AxAKhbjgggv4yle+wqxZswgGg7kVqoBs1iRjyKRpgK7rMmkO/YCVfDAyWYNtzZ00tfXQ3NVHY2s37T39JDNZslkThULTNFwOB36vm1HlYU6tKqWqLMiI4iBl4UIKC9wAmKbB3r3NPPHEEzz22GNs27YNU4ioFbgfEQ19wzQ/OQwHAYwCfgZcq2mao76+nm984xt8/vOfp6ioCADDVPT2J+jo7aejN0Z3NE5XX5xILIlhmLicDkL+Aor8XoK+AooCXsJ+L6HCAvxeNy6nI/ewbDZLV1cXa9eu5cknn6S5uZmvf/3rXHTRRRQUFADQn0jT2tVHU3sv25s72ba3k55ogqwhq9bp0An4PIwqC1E3soQRJQEqiwOUhQopLPBg00TWMFm+YRePL13Nup2tJFIZ4SJoBwyksv7V0NB1DbfTQbCwgNHlYS6YNpYZ46oZXRHG43KilGLXrl384he/4A9/+ANdXV0g4u0p4H8jXO3vhgCqgEeAK10uF5/+9Ke57777GDduHADReIrNezpYtmYH72/eQ2ckTjyVJmuYmEodqMZpoGsaDl3H7XLg87gI+73UVBYxq76aupElVJUGKQ74cgRhGAbJZBKfzwdodET6WbFxN4vf3cSOlm6i8RQZw0B9yH5Q1iP3T1jA56G6LMTcKXXMrK+mprIot3qjiRSvr97BH15ZzfaWLpRSR+QcAEopTAUOXaPI72X2+FF89tzJTKipoMDtJJvNsnTpUu655x7WrFmDEgXhdeCrwOa/BwIIA78EbnK73Xz5y1/mRz/6EeFwmHTWoGHLXn6/dBUf7GwjlkqDAk3T0I6hB0pGEJtGHLqG1+OiJOhj/JhyLp9dz1kTa3A6REbHUxmWrdnB719exc7WLjJZE03jqJN08IQpBbquEfB5mFRTybXnTmL6uCpChcJZWrv6+N1LDfz1vS30J1IHyPtjaTvg83D+1LF88eLpjB1ZjKZpbN++nW9961s8//zzGIYBYiH8D2BjHucqB8fQm8i181XgLofD4bj11lu5//77CYVC9PYn+M2L7/PLP73NzpZusqaJrmnHPPkgVKpZ99iDnDFMevuT7Gnv5ZSqUqaOHYmmabR2R3nw2bf47V9Xsq9HdAL73sFg4D2ptMHu9l7eWLeTtTtaCfu9VBQFKAp4OXP8aEaVhdm6p5NILHlMz7HbTmcMtuzt4J0NTQS8HmoqiigvK+Wiiy6is7OTDz74ANM0RwGTgTcRMzivyBcBnAE8CAQvvPBCFixYQHFxMZ2RGD99chl/fmsD6UwWXdfyxnI0wKnrXD9vKv98xSycDp3G1m7u/f0rvLFmJ4ZSx7wij/osi3uYpqK5s4831zXS0tlH7YhiioM+TqkqYUrdCHa2dLGvJ3rMxGa3G4kneXfTbqKJNBNrKigOBznvvPPo6Ohg7dq1KKXGII6sV8izFzEfBOAHfgrMrqqq4pFHHqG+vp5oIsXPn3qTl97fNmj2eywwleKsiWP45ufnUljgZm9HhHv/6xVWbW3JK6EdDE3TyGRNtu7tYOWWvVQUB6guC1FRFGBGfTVN+3rY0x45Zu5mt5k1FBub2mjrjjL1lJEUhQKcddZZNDY2snHjRhDHGYi/41i9oEdFPgjgLOB7mqZ5brvtNr70pS8B8PQbH/CHV1fnr6cDYCrFiOIA99x0IdVlISKxJP/3yTdYvrHJ0sqHFzZBd0XjvLuxCY/LxbhRpRQHfEw/tYrd7b3s3tczKKK3v7qjpYv2nn5mjqumKBxk1qxZLF++nObmZh1xbL0KtOXrXYZKAG7E0XNmbW0tDzzwAKWlpWxv7uKnTy4jGk/lfeUDOHSdGy6cxqUz61EoFr2+jqfeWJf35xwNmqaRTGdZtbWZjGEyubaSooCX08eOYNveTpo7+47r/Xe2dhFLpZl12ihKS4qpqKjgL3/5C5lMJoDsWbyUr3fQh3h/DXAJwAUXXEBdXR2GafLc2xto7+kflsk3TUXdyBI+c+4kNA02NbXzxKurB3jiTiw0TSOVMXh86SoWvrCCZDrLyJIg37r+fE6tKhXzdtDvCM8v38TSldsAOOussxg/frx9+RxkDyUvGCoBnA5UBgIBbrzxRhwOB3s7Iry2Zke++vchOJ06V555GmWhQpLpLH94dTWdkdiwENuxQtMgkzV58rW1PPHKarKGySlVJdz9uXMpCfhsn/+g2oun0jy3fCPxVIbS0lIuv/xy+3I1siWdFwyFAJzAZYBzzJgxTJw4EYD1jW3DNiGmUlSVhrh4huhDm3e38/b6XQyfynfs0DRIZ7L818sNLG2QlTv7tFHcctlMnI7BS1pd02juiNAViQEwbdo0nE4nQBDhvHnBUAigCJgNUF9fT3FxMemswbK1O8lkh48dz6qvprzIT8Ywef6dTfTFU4PSuIcTmqYRTaR46LnlrG9sQ9c0Pn3WBM6eNGbwokDT6E+m6ekXq6+8vNzeP/EA4wfX2OExFAIotz7MmDEDp9NJb3+C7c1dwzIhSkHQ5+Gy2fW51bF8w66TYO0fCOlbH7967h16+5MEfB7++YrZlIUKByUKNGTzqbc/CUBhYaFNABrics9Pf4dwbzkQ8Pl8nHHGGQB098WJ9CeGhSUrpaguDTF2ZAkAH+xspSsS/0hl/+Gg6xoNW/eyaNlalFKMH1POZ+dOHrRjSilFIpUGyAWcWPDmra9DuLcccPv9fsrLywHojiZIpLPDwwGA+tFlBH0FJNNZXl21PbebdzIia5j8+a0NbNnTga5pXDVnPGMqiwYtCuwYhIO4R95GeCgEUAI47KgegN7+xLBNitft5OxJNWgadEZibGvuPGlk/6Ggaxpt3VF+v3QV6azByJIgnztvCk792Idc1zUCXombyGQyduAIiC8gP/0cwr0VAF6vNxfcEY2n7KCGvEIpRaiwIMf+93ZE6OlPnJTsfyA0Dd7ZuJv1O8Vxd+6UWqrKQsfEBZQiF1gCkEgk7OgnyGP84PESgI7ljLBDuQD64qlhcf0qBSWhQooCPkDcpan0CYmYGhI0TaM3mmDRG+vIWFzg0lnjjpFwFR6XE58VgxCJREin0yDBqrvz1cfjJQANCb5E1/WcnEpnssfZ3NGGQlEeLsTncZHJGqzZ3nLYVaTU/v32jwKmUhimwrDiDA2laNiyl8Y22ck9Z1INQZ/nqP1TgK/AleMAnZ2dNgdIA7vy1V/nEO49gfxXo7I4iNOh09ufYG9HJPdwibSR8CuP24nH5cTp0DFMk2Q6SyqdzUUXDRcU4qL2up0UB32UBH0EfB6JVFKQzho0tnYzrrqUUeVhRpWFWd/fdkROoBSE/d5cFNK2bdtsRTBGHkXA8RKAQqJYMQzDjlyhwO0algF2OXXGjiwGIJZM0xdPYiqFjkZZ2M+YijDjRpUxdexIRhQHcLkcGIZJS1eUt9c3snJLM3s7I8NCsUopvB4X006t4qozxzOptpJQYQEe1/5QcdNUueUS8HmYXFfJ+sa2ozVMRZEfr9tFMpGgoaHBvhJBwuHzguMlABPJ2CGZTOa001BhwbD4AFwOB6PKw4DoGRnDZPyYcs4/fSwXzziFEaVBvIcgvtNGl3P+1Dr2tPeycPEKljZsk8nIE5RSlIYKuePTZ3LZ7PpcH5RSZAzTWhgaDl3LhavpmoSYHW2YdF2jbkQxuq4R6eujqanJvtROHqOFhyICWgHi8TjxuGQ3hQoLcDi0PA8yuJ37tWGv28VXr57DuVNqKQr40KwB74un6OqL0Wv5IjwuB+VhP5XFAcZUFPGdf5qH0+HghXc35a1ffp+Huz93LpfOqkdDzNP1jftYs6OFbXs7iacyOHQNv9fN6WNHcsOFU/G4nKQzR1ZgFeD1uJl6iuz5tLe309HRYV9uIo/pZEMhgHbA6O/vd/T29gJQHPTidjpIpvOpDCqcTh2PS7o6pqKIMZVFaEjwZ2NrNys27eaNtTtp7Y4SS4jnTNc1/AVuLp1Vzy2XzSTsL+DLV85mfWMbjW3dQ9YJFIrzptRx4bRT0IBV25p58Nm36YnGKQv58Ra4SKYzbG/uIpXJ0tuf5Przp6CcirgVFHs4LqCUoshfwKiyMAC7du0iEonIY/OcNDJUAkjF43Hf7t27mT59OmG/F6/HRSKVyauN7rASN0Bs62Q6y5rtLfz3srWs2d5CXyyFqRRup4MJNeWMKgtjmCatXVFeWrmFZDrDNz8/l+qyEFefPYEHn317SP2x9yWuOWciLqeD5s4I9z3xGoUFbn7xlU8xsjSEy6nT0tnHnb/8Cztbu3L5DFnDpKM3dkRzWSlFRXGAcEA8vitXrrRNwD4kSjhvGAoBdALRVCrle//997nmmmsIFRYQ9BXQ1RfPuyZg6xZdfXF+9eflLG3YRiyRzoVn6QgHOm9KHadWl1IU8LJuZxstnRGWb2hiR0sXp40uZ8a4agJez5B2ERUi+0dbeknD1mZ2tnYzZ8JoigI+CtxOMobJmh2tdPbJ1nhxwIfT6SCWSNHRGzvqu46rLsXncdHX18err75qX9qHiIC8YSgE0GV9KrZu3YphGPi9HiqK/Oxs7c6rkWiaKudi3tTUzosrNpPJGgfE/2maRm9/ksa2bgq9biqLA4woDrC3vZfuaIK31zdx2uhyKor8FAe9ROLJ41ZY7Zh+n8eNqRQf7GxDKVi5pZlvPfICc6fUsrO1m9dX7yCezOBw6IwqD6MBsWSGvnjysMRn2//nTqkFoKWlhZ07d9qXd5JHCwCGRgB9SNrShL179xKLxQgGg0yuG8G7m/LmqAI0sqbk8oGYhLp26Dj/dMbglYbt9PYn6YrE6e1P8Nb6XXT3xdm8ux3DNAn4PIwsDbGztWcIRKpw6HoukTWaENe8YZqs2tbMqm3NByS+uJ0OxlWXyqDFk/Qn0od9tFKKspCfuhHi9t68eTOdnTmz/y0s8ztfGAoBJBB5dKmdqRsMBhlXXYrL4chfjJ4GhmGSzgoBuF1OdF1HYXxoEDUNkpksb32wixWbdmOYCtM00TSNfT39xJMZscNrK3l7/a4hdSqdMcgaBh6Xk+KAN9eXnHJp/VAKCtxOKor8AET6kyTSh9eRlFLUjZR8A8MwWLJkie0B7CaPwaA2hhoT+AGQ7enpobm5GYDK4gBejytvrlgNWVkDEzkdRwj9liwi2Y61c/Y0DXr6E/RbK3VMRdGgduU+9AwN+hMpEinZ+h47suQI4egKj9tFobWrF4klyR4hYsrjcjJ3Si0uh05bWxvLli2zLzUhtRDyiqESwG4gGo1GeecdUU7LQoWE/QWoPG4LKSVcANjP/gfRvIZGLJEiEhPuWRL0HZBhPFhoCCvv6RdzfHR5GI/70MxUISLAYz0vlkwfljualmNpxrhqALZs2cKePbnk4PcYhtSwoRJAK9CplOK9997DMAxC/gJGlYfzuhmjUDkdQNePPafQhi0auqMSX+f3efC4ncfdR03TiMZTrG/cB0BVWYiSgO+wG1QOh5bjEDZnOuR7KsWpVaWUF/lRymTJkiW2k60feIYPF68aMoZKAN3ANoCdO3fS19eHx+Vk5rhq8p2gk9PYj3PSslmTlk7xoPo8LmtFHj+VprOG6BmGSVmokCljRxy2OWWSI7bDKbAgeykXzTgFt9NBS0srixcvti/tAoYl82WoBJBActhpaWmhvb0dgHGjSg/LEo+rk5rk7AMYSg06zh5Ej+iwQqzdTgcup2NIQkrTNLbt7aSzL47L6eDiGace9p3TWSPHwbwe1yG9kKZSjCgJMKt+FADr1q1j165d9uW3kfJyecdQCQCEMpN2lQ6AqpIQocKC45qog6GQmANbZmezBoahBm3CmUoRT4qb2KHrOBxDe3XdSkVfvV2U3/Fjyqk+RLSPhsRJxJMSzRPweQ79bAVTx46kNFxIOp1m0aJFJBIJkN2/PzIM7B/yQwC7gK50Os0rr7wCQHHQx8iSIHnZE1IKl0OqhACkMtlcbZ/BIjc5Wn78VMl0hiXvbSGVyVIe9nO5FbJ+ADSNZCabs0ACPg9up+MA/UMpCBYWcNWc8eiaRmNjY24skeogw5b4mA8CaMOKUNm4cSPRaBS/183s00blTQ9wOx14PbLVKlr04ClL07Tcdq1pquNq40ODp2ls3NUunk/g/NPrKAsfGP9vx/e3dkcB8HvdFLidDFQYTKU4tbqU+lFlALz22mu0tLRgfekFhkH7z71DHtroA14D2bVqa5NAhyl1I/KiB8jWqCtHAH2x1HE5mRy6TmlIYgozWYNM1hgyF9A0ja6+GM+9tQFTKcZUFnPJzHEf+l4ma9BkhYQVetziJxlw3eNycPnsegoL3HR2dvK73/3ODq7dCywa8iAeAfkgABCPYLKjoyMXuVJdHiLs9w5ZD7D33b0WMTV3Ro4r49bt3B9UEkumSWay5EMQKODtDU3sae/FoWtcecZplByUBWSaivZeKVfjdjmFmNX+a6PLw8y1fP/vv/8+69evt29dzjA4fwYiXwSwHehMp9MsWbIEpUxKQ4XUjSjOgx6g8Be4cTudZA2TvZ2RQdvvSil8BS4qiwMA9EQTJNOZvOQV6JpGa1cff35rA0opxo4s4dKZ4ziAuDQhOtNUuJ06BW5njgPousYF006hNFRIPB7nN7/5jW379wG/QYJAhw35IoBWYAvA+vXr6enpxet2MXdK3RHdtscKl9OBZm28RPoHUydaoBSUBAspCYoI2NPee9SonMHAVIpXVm2naV8vDofONedMpKLIfwAXyGQNiWPUdStbWOWyna+aI7me69at4/XXX7dvWQWsyFsnD4N8EUA/sBhED2hsFK41YUw5fq97yF7BnF9fFyfOYFm3QlZm0FdAOmOwYvOevIat6ZpGS2cfi5atwzQVtSOKufrsCYd0+Ej8gv27xvlT66gqDZHJpHnsscfo7u4Gyfx5jBNQKTRfBADiq+7r6uripZdk06qqNMSI4uAQ9QCNWDJNJmvgcjioHVkyKNatAJ/HzYXTx6LrGh2RGFv2tOc9qF2heH3NdrY1d+ZyAWsqinIFMGUXU8MwFNmsialgZEmQa61KJ+vXb+DZZ5+1m9uAaP/DjnwSwE6ssqbLli0jkUgQDng5c8LoIQ22ponMjsbFjq63tpuPFcpUjCoPM3WsBFhu3t1OZ28s73kCurXl/PjSVWSyBlWlIb5w4VRcDh002YDSNY1UJkssmcahaVw4/RRGlxeRzWZ47LHHbE9qBln9w+L5+1C/89hWB1LCjM2bN9Pc3IwGnDlh9CFDto8VmqbRE42zp70XgLqRJbLbeIxcRdc15k6ppTjoI5nO8uKKzaTyKP8P6Cvw9vom1mxvAcQvMG5UGW6nk9PHjgDsXcQEoyvCXDd3MpoG69Z9wB//+Ee7mY0Ms+l3wPjksS0D+CuQbGtr44033gCgdkQxlcWB4zLd7EHtT6Z5bfUOFFBdGmJW/ahj0itMpagsDnDlmacBklO4envLsGUVS1hagsdfWU0ilaE0VMh1c6dQUeRn/GhJoW/tipJIZvjUnPFUl4VIpVIsXLjQXv1Z4L/IYxm4oyGfBAAiu1ozmQzPPfccqVSK0lAhcyaOGVqrCt7fsof2nn7cLgefO38KRYFj8DEomDmuWnz0puLllVulgMUwpolpmsbq7S2strjAGeNHcdWc8dYWL7y7aTejK8Jcc84kQOz+p556yr59LfD4sHXuEMg3ATQDb4CYNM3NzeiaxnlTavEd5P0aVCd1jd3tvby4QopmT6qt4PPnn26Fhh0aSkGg0MNVc8bj0HX2dkZ4ddX2YcleHghNkzT5p95YRzKdpaIowM2XzMDjctLW3cd7m3Zzw4VTKQn6iEaj/OIXv7A1/yTwayTc/oQh3wSQAf4EpJqbm1m6dCkgIVOjy8OoIZheWcPkT39bz9a9nTh0nX+68HQumzXOygz68PdNpaipKGKc5V9ftbWZ9p7+YU0SzQ2qptGwtZl3NjShaVi+f3hjXSPVZSHmTTsFgKVLl7JkyRL7thVI0McJRb6KRQ9EArjGNM3iVCrFZz/7WYJ+H33xFCu37D3uRu2iyvt6+jlz/GjCfi/TT60iGk/R2NYjvv0Bk6trGp+aM4FzJtfQn0jzq+fekaziE0AAmgapdJbmzghnTRyD3+shlkzz8sptfO68KVSVhmhpaeFrX/uanfPXC3wTibEcCJ39h1Yp8lgj2MZwEEA/UtP2jFgsxuWXX05lZSVej4vXVu8YUtaQpmns7eiltz/J6WNHEPZ7OWP8aEaWBGnriRKNp0hnDUxTEQ54+do1Z1EaKmR7SyePL11FKpM9YVVFNE2jMxIjlsxwxvjR+DwuTj9lBFUlIZRSPPTQQzzxxBO2HvMq4vYNIsfUTQLmAbcgZfi/AExAFO19iLKYFwwHASiEC1wXi8XcoVCIiy++mIDPw+bdHexs6R7SJCil2NHSTVmokEm1lTgdOqeOKuOCaadIJJLLSaHXzfjR5Vx55mm4XU6WNmzjtTU7xJtI/iuXH76vYnmECguYVFuBx+VE0zRWrFjB3XffTTQatb/qAz4L3A58GZn4a5Ey/KdYn3Ot74SRCKG8nEg6HAQAwgUuAEZFo1E+85nPEA4F8RW4WLZmJ9njDOgAQNM4d3INX7p0Jr4CN/F4nHQqRShQyNiRJZw/dSyXzarn3Cm1+L0esobJrrYe6iqLKQkWEk9l6E8MTxHrQ3SV6rIQ1eUhJteOwOnQyWazPPzww7zxxhsDiz4FkZpLRU6ns9Dv97sqKiq0U089lcmTJ1NTU0MmkyEajXqQMxD3IQdPDr2Pw/j+twEPeTwex8KFC7n55puJxJJ88+HFrNrafFxl3ZVSzDptFD/40sVUFgeIRCJ8//vfZ9euXdx6661MmTKF8vJyvF7vh454A1Ekd7R0seBPy3lnY15T7D4EXdO4ZNY4vnL1HEYUBw4guM7OTlatWsWbb75JS0sLhmHgcrkoKyvjtNNOo76+noqKCoqKivB6JUG0oaGBG2+80Y4TfBcp0zvkMwaHkwBOAV4Gas877zz+8pe/EAwGeen9rfz7714edDk5Uykmjqng3lsvobaymFgsxg9/+EN+9rOfkc1m8Xg8VFZWUlNTw4QJE7jllluYPXs2INnEsWSasL8Ah67T2hXlnt8sYc2OlmGxCkxTMaO+mp/edgXFAS/prMHufb309ic4bXR5rtbBfhw6VzwXwaZJmbibb76ZJ598EiRJ5DzykCg6XCIARLOtAM7p7u5m+vTp1NfXUxLysWZ7C61dx360iqkUNZVFfP/mixhXXUYqleKBBx7gJz/5Sa50mmEYRCIRmpqacLvd3HLLLdaZRUkefPZtFi5eQSyZYWJNBWG/l+KgjzfX7iRjDEEcHQYet5OvXj2HSbWVxJJpfv2Xd3ngmb/xwrub2by7XSKSlcIwFJmsQSpjkEhniMYlc7hpXy8fNLaxp72XiuIALqeDSCTCQw89xN69e0Eys38LRIfW06HlBh513oAngVui0WjlggULmDdvHkWBADddPJ3NuztIZrJHHXxTKcrDfr51/XlMrKnAMAx+97vf8eMf/9jOmT8A9fX1zJ8/n9GjR5NIZXj0hRU8+7cPMEyT3/z1PSqK/Vx15ngmjqmgqjTEtr2daHlMYjCVojjgY1JNJQCrtzWzaNm6nAXy5tpG3t24m4DPg9/rocDllFgHwySZyRJLpFHAjHFV3H7Vmfg8LgzDYNGiRaxevdp+zEYkM3vIyLcj6GDkNjaWL1/Oiy++CMAZp43m3Cm1R3XlKqUIeD185eo5zJkwBqUUzz77LPfccw+x2P4ce03TCIVCzJs3j//4j/9g5syZGKbiz29v4Nk311tHzenEkxleWbmNrCFZwqPLw/k3rK3iEYUWm9/W3EUqnZWEEMSrmTVMuvviNLX1sHlPOxt37WPT7nZau6KUF/n56jVz+PebL6JuZDHpdJrHH3+c733ve/bZyd3AQ+QpS3g4OQCIqfIfwLWxWKz6Zz/7GXPnzmXEiBH88+Wz2NS0jz0dkUPKYaUkEuimi6ZxxRmymbNs2TLuvvtuurq6CIfDVFZWMmbMGKZNm8ZVV13FpEmTCIUkNv+11dt5dPEK0tn9tr+mQYEVXKppGm5X/l9fAU6HI6fkmqachJrOGjkzFIQQ5EBMN0UBORBz3tSxnD2phiKrMkhbWxu/+tWvmD9/vm0yphF38Wv56u9wEwDIBtFC4AcNDQ36ggULuPfeezm1upR/+fQc7vvD68QOMsskGQQ+fdYEvnjJDJwOnXXr1nHnnXfi8Xj49re/zbXXXsuYMWMoKio64BziSCzJKw3b+PXz7x5wjp9pxQXcdNE0nA7digwejsKWyspgFub6mXMmUV0WZsOufUTjSUyr6FVpyEfdiBJGlYcoDRUSKizIJb/09/ezbNky7rvvPlasWGFHCCeAh4H7yJMPAE4MAZjA74BPm6Y589FHH+Wcc87h8ssv56IZp9LZF2fh8+8STaTRNQ2FnPd34fRT+crVcyhwO9mzZw933nknxcXFPP3004wbt7/catYw6Ykm2NcTZf2ufaJoNe0jPcA1bJqKypIA3/zcXCbVVlrThFVz4GjHVQ8efp9HAkGQJJlLZ43j0lnjjnhPJpOhubmN1atX8+ijj/Lqq68OFHPNwP9FjuU9aQpEDAZ7gP8D/L6joyP87W9/m6qqKqZMmcIX5p1OccDL40tX0dYdxVfgZt7Usdx6xSzCfi/d3d185zvfoaGhgWeeeYb6+noMU7GjuZONTftYtbWZLXs66IjEiMZTGIZpKXUSROrQNSbWVvD1z5ydy7sDchU88w5LB3A6HKTTadasWUMgECAUCuF2u9E0DcMwSKfT9PX10dnZSWNjI8uWLWP58uXs3r2bZDI3x3Ek9/JepDpY3tPDThQBgFS3eBD47vr165133HEHjzzyCJMnT+by2adx5vjRtPfG8Fv1fZwOnZ6eHn7wgx/w5JNPDjwxA1Mp1u1o4U9vbaC5s494cv8B1Lqm4dA0fF4XI0qCnH/6WK49dyJlYT/ZbJb29nYqKytRiBmWb9gFoTQNuru7ue2222hpaSEcDuP1euWQyGyWRCJBLBajv7+fRCJxcJX1KBIb8BDwPOJZHRacSALIAA8gDqJ/euedd7Qbb7yR++67j3nz5lEcLKTYCts2DIMNGzbwwx/+kKeffhrTNIlGozz44INMmDCBsrIyPjt3MhfNOJV9Pf00tnbT2NpNJJ7E43JSVRpi/OhySU4pLEDTNGKxGH/84x957733WLBgAWh6XpJXPzSgTp0xFWEAotEoHR0duc8RkEW8es3AaiQZ9F3y4Ok7an+H+wEHoQf4n0il8as/+OADxw033MAFF1zAddddx8iRI4nFYrz55pssWrSIPXv22JOUBlzPPfeclk6n+e53v8uUKVMI+wsJ+725nLpDIRaLsW7dOhYsWMBTTz3FJZdcgqZpwxYY4nY6cuXjIpGIneSRBNZj6bfIhCcQZ1kz4tdfa/3eTR4LQR4NJ5oAQJJIbrde9uZoNBp67rnnWLx4MS6XOD0GHIxgIivit8CXDcOYunjxYt5++23mzJnDNddcQ319PeXl5fj9fpxOp5yzk0jQ0dHBxo0beeaZZ1i+fDk9PZKbN5ybQEpJjf+QX8y4np4eW57vRrZ0OxDvq4FwxAx53No9HnwUBADiyvyfyF7BncBUwzCKDMOw02YTCIE8j+gNTcgW6E+A83t6egpefPFFlixZgtfrJRAI4PP5cLvdmKZJPB4nGo3S39+fq2RutaspOVCA4YgMtRNZbV9/V1eX7a2MIp67YU/0GCw+KgIAYeuLkVDyOmAqUIvUw/8AK8CU/exwLXA98GngS8AE0zRLY7GYe6BX8CAYiNix2/qsaZouMfy0/B80raCwwJ3LZG5tbbWVuxQf8Uo/HD5KArDRjxRAOJYiCH1I1OyfkCNUpyBn6Y5CAiXcyEKMIcGVK4E3ga3A2UiomtSw08nVH84XFIpgoQev24VpGGzalKtMnuYEyvXB4GQggONBDElG3QI8Zb2Hi/17G1lEvg60rTKAMgwjp4k5tPyrgmG/F5fTQSIRZ+vWrfZ/pximEi9Dxd8rARyMLEdnsRnAzGazKNNEc5IrPJVPlAYLcehidg4o8drPScoBhns38GRCFjCyWavGkKbjK3Dn9YQTl8NB7Qg52b2/v9+u8Q+iBJ6UOsDHiQDSQDabzWKaJrqm4SvwDLnRgXC7HNRUytlGPT09A335eTvkKd/4OBFACsim02myWanxW1hw9LN7jhVKKQrcrtxWbldXl+0EMoEdH/XLHw4fNwLIpFKpnKMpVFiQt8YVUFjgIugTrtLe3m4/J4lVTfVkxMeJANJAOpVK5cKx/T533jyDdq0/n0ecQNu3b7d9ADEkjPukxMeJAFJAPJlM2qFVeN0uHHnzCCqK/F4KPC5SqVSuairiiMpL/N5w4ONEAEmgP5VK5ZSzQq87r97AiiI/LodOLBYbWOe3hZPQBWzj40YALclkkv5+2V73F0jgRj7cQS6Hg/pRUgSit7eXrq7cot9KHs/5yzc+TgSQBj5IpVK0trYCEPBZZVvzUMyy0Otm/BghgLa2NqyzFFPAUoYhqzdf+DgRAMCmdDptrFsn2w5BX4GUsRtio3LQUyEjrEKUW7ZsscVMG1Lv76TFx40AdgH9GzduxDQMgoVyOmc+AoMm1VYSDnhJJpO88MILtgWwHtEBTlp83AigCWjZtm0bPb29FLidXDZ73JD2BJRSFAW8XHP2RHRNY9euXbz77rsg7H8ReY7izTc+bgTQDry8fft2Vq5cCcDM+lHUVBYdV+VQhUQYXTJzHBNqKgB48cUXbR1jM8NwzFu+8XEjAANYHI1G4wsXLiSZTFJR5OeLF08f9CFSdpbPeafX8T+unI3TobN582YefvhhTNPMIOXeTloHkI3hzA4+WZEArti3b1/F7NmzGTt2LNXlYbr6YmzZ05E7a/BQUEjlUaUk4ePqsydy17XnUBL0EYlEuOeee+xiz28D93ASm382Po4E0A/4E4nERY2Njdpll11GcVGY08eOJJXJsqcjQiKVwVQy0UopqW6mSbhXdVmI86fW8Y3rzuVTcyZQ6HUTiUS47777ePTRRzFNswX4OpIYe9LjxBTLOflQByzWNG38zTffzM9//nOKi4vJZA027NrHkve2sGtfD8l0FqdDJ1hYQG1lEWeOH03NiGKKA14cuo5pmmzZsoUf/ehHLFq0iGw22wv8L+BRTmLb/xMIbgJiDodDXX/99Wrr1q3KNE2llFKmqVQynVX9iZSKp9IqaxhqIJLJpNqyZYu6//77VW1trdI0TSHy/iv840RZ/cPDC/wUSGmapurr69WCBQvUxo0bVW9vr8pk0so0TZXNZlU8Hlf79u1Ta9asUU8++aS64YYbVFVVldJ1XSGhZu8hNXv+7pTqj6sIsOFHWPZXgSKHw0FZWRljxoyhrq6OkpISkskkTU1NtLS0sG/fPnp7e+3t5BRyVM5TSPp760f9Mp/g+OACrgBeQdKyTPZX5Rz4MZBUrs3As4gIqeTvfBEN7LwDKEFWhReJsQfxZNl72nkrTHASIgBMBC5HKnWGEXmeQGL61gJvYR2UyREOc5px+wMAOmgV7M9ZUMg4tqDYBxgNC+864L5Zt/+SNBmcOAtAVQEjgEKE23RosEdH9Sng/Ue+ccDzJrc+xQcjPl9kPSuuxOmlVj1yF0fCQAKYgOTgVSPJm/YpD2nrhV+zrq/mowtx1jgx2rXT+ujsz+M7alz/jNsXIMG/WhjJXroNGIOMJwgxtQA/V4bnEU1P07DwTuve+aDhQjEbEUnnIQvSZfWhD1gD/ApJqYs1WJM78475nDMzwd/e934H+AZybsNtQKbhKAQwUGnxAfUIW2tEMmreQFheCLgD+DNwHSeW7bmQkqn/YvXvRCCLcL44g0rqMAAtCPw/4GfIYlqJ7Ak8g6S8hQGf5khh0/KM2+cDeFF8DRnj661nL0E8is8jiaXnA08gymuRdR8A3XEvyDxVAGUc4xwdbLJoCJu6A6E2HREFpyAVPq4GfoxscZ6oQMcypJDyKcCnEII86TDjjvn2fF4J3IzoE18F7QVQSVAaSvOhMQZLYWxYeJc1+coB2peR+j8m8EvgF0CL4VAZh6E5kYn9uvX5F4Tavj3j9vkpgJKS4+v3oWxWhVC/wX72txb4FjAZGAt8Brj/BI2tjugkJ4r9Hx+kZwXI6nUBSxX8CVR2gByOIlvEAMz88nzrNm0m8F1ksf0c+B6QGsC+szNun9+s4N81mZt/Q0TMUqzj+o4Xg3FaNCHyvw44HZmYgazRb12rRmrc9yCiZC+H1xn8wDigCpngduT0MTuPfhRQYw2MhsjTcVa/e/iw6VViXS9HWPdO6+Oy7k0iufqm1f9RCHHttq7VAqchcnr1gHYd1nuNRdhszHq3Rg7M+PEgihtAl47KmurwrgG5pDyg3Y6s8AZEfKQOlt0Nj9yFtdp/jVgtsxDH02tKHf+ew2AIwOYMcKB80YHZwP9GSpoXDri2F6kTuJAPR8bWIizvcmsSQAjlXeCfrN+fQJRTvzUJP0c4khM5Ws0eJQdwIfB9YJrVnoEQ0oOIo+Y/EU72BUS+uq3BPhO4ESGanyJE/Fvgn622g9bvX0P0I2U9vwOp2vUg0GeNSBLFHms8piu0ck1T7ePvfpRNv/jyYYZVGwVcZP3xjIJ9R/EmtVnvMgvJjq5G4g6PC4PxXBUj5hGI/LdX/6WIknMFsAnREf4VeBpZLT8C5lu/2wgiMu4LVuf/HSGg5xEuELMmehVSPsVWxDYgpthbiBPGxqcQZelMqw8LrPY3I6Lr28BIhJDsfpsIZyhHStv/3OrjGsTUA1GM/w9CGHGkWtcXrL/TVr/vAZzrHvseKFJI+nocmIMQx2RfIu4aqLAdhDqrD93ASxqw8jCa+wCusBLxSZQhHOu4cawcwAd8EbGTW5H8fJBVfD/CSn9rDbS90n+NHHrwKCIXVyOaMcB45ESMvcCt7JeLLoSDxJCVdidygsZriJi4FwmycA6YyDqEk1QAv7cm3N6H9yNm0b9Z92TZr0fYlUhcyApvBu5GdvFsG/8qROHaYE38Fuv/F1t9eho53OG/M4moHfv3EqLEfc1673NRPAv8cebt89eaGjGHgnTMfk1GIqJjL8d+YFQ7UkAqbM3JX46XAA7FATzAWchqOhsx+34L/BBZlQvZf7bNFQhX2GJdH8jmDeA5hI07Ec+ZXc3JjyhMaWsSbGQQyrYnyTxo0uzfM+zXKy5FCGoLsiIHBmH0I2x6zYD2bCirPc3qy7eAd6yBTSDc4KvWGN0/YPJtLEeOdy0HPge5FZqw+nE7slKLEWL4q4L/1BTTDIXmKMwljoatn7bJeSxIDRi34qEY5QcTgELY88NIgcJXEfZ+LcIW/xdSp8dAVuo11n3vYx0bexDSiP2bQJS50db/70Yovs5qbybCZY6Gg1/Vh5imIHL+UPXzO4G/DXi/g98XRFSsPujaaGR1dVj9HWO9g/2pZL/snYTlOW145C40SDmU+gOi39yMOGYUQiiLNI0LND1XNzh3kjzH7l/R2c+9Y0OxjQ4lApIIG7PZYDtSx2c5wv7tx/kRtgyiXB1O029BVlWJ9f0GRH7bsvU6RIF7DSmM+DbHvhL8iBIEIvsP5bBRHL2ufhsfDt4sR4g8hBDxodq2iTbIgOAaS4arGbfN70RXT6G0xcAlCCcZB/wEU7vSctd2W7cFOFCBPhKC1vcNhuiPOZQjKIrYoRvY7wo93L22u/hIlSxtdq0N+L5CRMMOREafgxyIdDGijP2EYyMCx4A2E8fw/cMhy4cnuMBqP4ZwlxQfXqF2oeG1HKIAhO3rn3H7/AQiDk2kCORExFp5CeGccWSBnIqYlofEGbc+YD+kFihCxOWGIbz3Ya2AgTtgh0OK/TFvdUf4XghZKUkOPBPXQFb7TcjqeAwx3+5GFMTD9evgPtjEN/Yw92jIahksYsiE7UMUwesP8fmC9fPHHGGjbID2vgrhol72a+87EAW0ELgBcB7OYsi6dFCaG3HEuRFOOqRjY4YSwBBhv3I16wiDPBuh1nYOrSekEKXyXxEfQAgpBWfDnnSND8cwRqx7QPSIokO0H0b2EgaLVkSpHYHsQZjs944e/DnWAlAuhHMaWKxfk8n/b+v6pYj5yMFEMOP2+SgUaGoOopNlgf9W0DOUBOehhC9lkCNhrkMG/1MIexu4SusRTRpEqbSzZGzCGzhwMUThOhj2xowLYZEDY+0NREm9EWGptyK7ZbY8dwGft/o3WOxGNsS+gBS13MgRTvWedtsDaJqma6KTdGmmiimnRsPDtr9fc4C6FNGD9iG6EErG4D8Rk3MqYirfhqmtnXHbfNWw8C5m3DYfpKzRNMR5VYJsFD12mLk/ZrVwqPFrf0MiYr5kdcyHWA5pZPL/DdGQ1yL17m05OQVh+68jK01DvIhzEZb+1wHPiCIWyAREo16PrPy9CMGsQDaL7kL8BJMRu9hAwrSuQrT8qYN8t4Q1GWdY7TyGOHa2I8TvRSa7GHg2vq8x5a+sK0LORogqXfsjJo0zbp+fBIKgLmG/WbkIW3nTAJOdaNyNmNizgKfR1YPA8hm3z+8HAmicjWwE1SBK+TeAbl075GxXIYSfPYQ4yVjj3t3wyF2HVAIHg37gO9Z91yLmY4dFAGXICnwDsbEH2tFnIM6bBMJmHdb304jj6JUB341bA3OmNTgvImLjX5GVk7QmPm0RyBcRvSKNiJ2fI/J1Kgf6FA5+30O9+0pkZ/SniKUyDyG+LCKDg4gYXJqKdKT8lXVBRISdh3DEhDXgHkSp7EIsnXsZsFc/4/b5YDqWoRs3WNfORSqrx6z3cyMiNop4Oe8DtU/TdN7/9Z3MvGM++8sRAMINf3+YOetFlO1uOFCmuqzPaotCjrVGfT/Clt+z/jatjtqevx9xoNsWZNXvtgYyZQ3MW8APkNV8sEm2A2HBbmQTaJtFJDut6ymEXT9vTcgaxDX8Y6tvlyGWRgPivbOJIIAQ7Jt82A9gYyfCUXZak9lv9Xeb9bwHgB0Oj88M10yOIqx5g0UovVb7W5F9/ntA/RdosYGbPa0NSxgx8zJ03WwB7TlEOY5bnwxi7vrY7yhzguYH3CNnXp7F1FIXXgSbNuG3nvs+QrwHfxqseXodiLQ2LMl7YIeD/Tt3aY5eG8+OvMH6/tGUKfv79jb1scBvDf6FiIfu3iG838D+HrI45Rlf/RWZdBrd4dCVUnb1UgNTywCq4dE7j/qQ6bc9CNa5VqB8iBPqSkRsjkfEjl0H+T4NHjSBo4V/HQp/1wGNA6Bz+OPVL0L0FBNxXa/4qDs7WMy44wGr1LnmRzyU5yJcrRrRC97tzxSw5be3D7rtfxQCuBTxsL3J/uPVvYjO8ENEgXwS2fQ56fP1joTpX3kQX08/iWChpYOoCJBpGBAk+nGDC9Eb7KjbrYhfoQnRDVKIrK75qDt6MuIfITlUIQpaHBEFBYgeEkU8b/8PsTjajvcB/8j4RxEB9rsUICafg/0ae3oojX6CT/APjf8PQIxFEUA3h3MAAAAldEVYdGRhdGU6Y3JlYXRlADIwMjAtMDYtMTJUMTA6NDg6MDUrMDA6MDD9f35mAAAAJXRFWHRkYXRlOm1vZGlmeQAyMDIwLTA2LTEyVDEwOjQ4OjA1KzAwOjAwjCLG2gAAACB0RVh0c29mdHdhcmUAaHR0cHM6Ly9pbWFnZW1hZ2ljay5vcme8zx2dAAAAGHRFWHRUaHVtYjo6RG9jdW1lbnQ6OlBhZ2VzADGn/7svAAAAGHRFWHRUaHVtYjo6SW1hZ2U6OkhlaWdodAA1MTKPjVOBAAAAF3RFWHRUaHVtYjo6SW1hZ2U6OldpZHRoADUxMhx8A9wAAAAZdEVYdFRodW1iOjpNaW1ldHlwZQBpbWFnZS9wbmc/slZOAAAAF3RFWHRUaHVtYjo6TVRpbWUAMTU5MTk1ODg4NR5BilEAAAATdEVYdFRodW1iOjpTaXplADQ4NDM2QkJIyry9AAAAXXRFWHRUaHVtYjo6VVJJAGZpbGU6Ly8uL3VwbG9hZHMvNTYvTnZ2Vm9RNS8yNDE1L3Bvc3RncmVzcWxfb3JpZ2luYWxfd29yZG1hcmtfbG9nb19pY29uXzE0NjM5Mi5wbmeXYX6TAAAAAElFTkSuQmCC;" parent="1" vertex="1">
          <mxGeometry x="126" y="-680" width="128" height="128" as="geometry" />
        </mxCell>
        <mxCell id="HX6_WD2VTj27ss0LEgF8-3" value="" style="shape=image;aspect=fixed;image=data:image/png,iVBORw0KGgoAAAANSUhEUgAAAQQAAADDCAMAAABTTJ+AAAAACXBIWXMAAAsTAAALEwEAmpwYAAADAFBMVEVHcEykcD6kcUClb0KucUKmbz+lcUGicj+lckGlcT+lcUGkc0CkcUGlcUGmbz+kckGkckCjcUCkcUGlcUIAJmOlckClcEGjc0CkckCkcUGkcUGjcUCkcEGnckUAKGOkcUKlcUGlcUGlcj+kcUEAKWMAK2SlckGlcUCkcUGkcEGbckKjcUKkcUEAMWEAKmMAKWMAK2QAKmOjckGkckCkckKlcEGkckEAK2MAKmMAKmUAKWIAMmOjb0CmcUGkcEGlcUGlcUGnd0EAKmMAKmMAK2MAKWSmckGkb0GjcEKlcEClc0EAKmMAKmMAK2MAK2IAKGEAKmIALmEAKWIAKWEAKmQAK2KjckCjc0OkcUGjckGkcUEAKmIAK2QAJ2YAKWMAKmMAMGYAK2Sjcj+lbkCkcj+lckIAKmIAKWIAK2IAK2MAKmMAKmMAK2Gmbz+jc0IAKmQAK2Kjb0Gmb0CjcEEAKmUALGXEmmylckLDmWyjckKlcEIAK2SlckCjcEKjckDCmWylcECjcEAAKmIAKmQAK2IAI2IAGWIAFmIAJmIAKGIAG2IAFGIAJWIAH2IBLGTDmmwAHWLEmWwAEmLBmGzPoGwAKWLJnGwAIWLMnmzgqmzdqGymckIADmHHm2yjckHor2zrsGzGm2wAKWTOnmzVo2zmrGwADGHTomzZpmziqmznrWzztGzusWzfqWzJm2zssWzQoGzBmGvqr2z4t23YpWz1tm3CmGzRoWsSNmTkrGwAEGHKnmvapWzwsmzcp2wqQ2XSomwzSGXxtG1BUGUcO2Tjq2xLVmZ/c2mUf2lpZ2cAFmFRWWcABmB7cWgOM2QuRWVFUmWMemmIeGm3k2qqjGqvj2o8TWZuamf7uW4kP2UgP2VlZWhZXWg4S2WliWpUXGaghml1bWkJMGRcX2ekckKmcEJ3cGcXOGSykGtgYWhJU2i8lmumcECjcz+jcUDCmmsAG2CchGqDdmn+vW6lc0KagmqWgGmQfWrWo2ylcUCmckD/xG6dhGimckKjcULCm2oRQPMDAAAAdnRSTlMACXymEW7B1YxKliyAQeFiVuq0SCJnWDI2RHh0URQnrzzm3M/83XG5kiAE8e4E1Zqmzp6jhcb5NrwxjAmJj9P1yw2qk7ATrCWpXB1A4YJJV6ANdDvze75uasTZbMgX9rcbYuMY4ftS7ofk6cEsbfxcaNf8/HFkuBb0DAAAGOdJREFUeNrsnMlTU1sex/0jXLvSpdPKaeew8uGzfbqy9enm6evuqteLrtSpOotTde48Zr65SSUVAoEgEBMhSBIgzPDAiRlBBNQqB1w8tUul6lnVfW+gG6G8DKJVyYHfIgsWt+p++P6+5/c753fPjh3bsR3bsR3bsR3bsR3bsR3bsWXjOvTS1y5tZQK/HIQ07YU03LtFAZw+er6srAzmo2z/Fnv5XWcunD242+ulaUhR1CKEPVvm9a9cPHmehjD/4qoKBR/r8C1AgJe3BoHfrpn/d4FnFIdDFEWWy1amZ19yOM+A/mErIDiOKcyIUjCrvmgd65mZedb3ZKS+cfohIwp5YRzcAghoLItB6tVsW0NHIlzR7ffHc1X+W+qT8PyLSkn08fAs6QhKMGa4N6+0Gn9MA273bWTG7caIOt3ZV90S+/1Juw/+SDiDX7HM8oMd8XKn2wwEgM0GgJ6ib028e9Lu0Rob+hR4jGgEO71eRXqUaL6JkLM8V1rT0B0zIWi59tGJ6MTjkA5uJboYmmgGZ2iefar5dQSQ7tefpRmfqwIZQph/96xvduD1RMDQRLdLILpWOodl6XFd1AmMd62+E2R9PH+3xQ2AR3saa21unxlNAhS4x2KSGVw1GDyv8yBgB5HMGMcbqyHP1dwGkVzXfFdmrI2udqLyDCuTLISLlCzdy2jINIHGYZdg1AOY7YkjEP049bKn/qm/Ne4OZeZEkoVwhOal8YxmrgY2kGrnaBXybFlGBza/8DAd/vRo6N68LTDL8SQvDRTPzYSb8gxsINrLVWaD2QF/DIC2T3Md6YePG2c+tQVecsxPBDPAWHxQqi8wMNbE5to/pkcTceMPIPaifPBZvfrv1kj4Lcv8g2AGf8WK3O1BCwyMRRE5NY8eMUslkBxp7n19I93y4GGfRDSDHzHDeqKLOjDDDvJhArHZNE3Tm2pzXSx/heTVkRak3oBzicGyMGAgT+alz3GN6ErxvGkIGrBbQXBGM2MSQ3YDfc5IhlQSWQohFNBUkb9KdueIBW4oB6wYoPLqwX7FS/g++z6s3E9oljpoDHdK8m7CdxDOULxLi1kkg1Em+NMsv4/0rSQKi3e6nZYMUqoo/Ew6g5MUIxodgv3LfpDMqKKXeB3shII0WGWVDE3hSdFLuh/s2CFQDktXBCjwhBNo4hmU0LyrydIV9W6XjHcSD8GLxQErV7SjQB+LjxPPYA/FsN0ei3oZODsUhvxkOERhrjdnWS97/gjiE8RDKMMKZVkr2lDgFUu+EE4YteJw1FIItxNPGUw6g0uQEtsrIlZCAJGOrED8TIoXMo6MB1hCSI66qNOEM7iOBen3ZksGhiU8YiHp9TKNxcm6kCUDu7u0i/ESDoHGPkfAcjvJrBIaXKS3j4cxL42skgxGzfw6iH8jmsG/sMB2ZqyTwbCE5ucsRfTU5hEaO9Lh8lWEYLsdfqCQXSXQlE+pakOrMACoQeFVsk2R4VY1BAPCzXgl0R1knkFgNUMwIMQ+SCrBvngeM6738dCqQrAh/x2ROkWyDlxD/jUYAHftfYYid13wKtx7v7Y6Axuw1WSF84QyuEDxLKXn1tBBvlTKQjJbyGMU9rnmMuaQ3uoMjFLpHqsSOZlz3ZABM5rRgdUh/FL3ZJZKJLaQxyneEeypTkXWlEG+e3Lw5NWLJ7CguDrnzZHdtRkYluAJUofJIvDTHspA8OK1uY+0DgSGJaTeceovJCE4V4Z5MTs5Uhpzrg+BYQkVjx3kWMKp/TQ0imTXgF4XC6E1DXHJEhRSLOHQfprGgsOlDtZ2J51onTLIW4IepE4SUBme2E1RhhlK2daR2tRNBNargsUqgaPOFPX77yw5iDGNseyQXK0f6ypikQ2IYOHYJTzhK2JLOHL0VwMAFBhRqlTmplvCUQ2BjSHIH7u4BKE4AZw+q1IqNATABbPpqffxmkxbBKGNElg8dsFni7ASOAChSvEK66rEY732hoQ/dhNtXAOLcwn+GZE6VGQEdv0MoQGAC755MD5a25FJ6U73VwJYWCBrGLnI9hKOQmx0BVJ/+1BjQzjnibjRxpaCL8wlgCAupmmtU/sgJfg41+PZlvAmBbCUDfFXYhENZ+z8G6RkMZseKq0w6sFNCuCzbBAYeleRILhy2dw27p+KJlLaN1DA0trwnyAulgmVv5tfdsuDLX7dib4ZAfPU5UaPSBXHDQklFJY55l1p881vlAVLlVKNKFMXiwDB3t1YZrnxRJX2LUWwYIvRaQnTRXASewEKDna8Ltf0rRGYtlg3qeAiGM64jBmpyxPXvz0Cs0iIZoXCb6P/SfOib7au0fkdEBi26J8TKVjoC+QBQwad/ub1bxNtDIIe7udhobfRuw03+BD2gO8hg4XhfpYqK+x95r2QZ9PRtU/Rvl4IGU6GsKCnF3dRsjQQjoHvxgDF+1hc2NmwC8rS83A5+k4IbHag+/tlSBd0zQzzV118/T7B/74Btz6P754ylga6kKd0MM+Nb4pBKJnUV53Vir52GY5AlxQug/2YHatr+no7AKH4284qtDID/q8OO2hKqAplQCjcr6L/QilU2PP1fgBA1fu7k91oZQbo+qI6gM0/zgnYC+nTBWwI/Xp0E54I9ADLDWRWQvAM3wkgex5Sys0xioGaLthjl6MCZ33Nw/pWv2esOOVHK6vkO3cT5mMBasz5FIWp53BZoU7u7aUcE9bXPKwHglbXz7N9uRUQQjVvKj0aMBjodWmHIjf+6RBgoW4mXGPe5JKbSAY7Sg1xkOtNLYeAYrOSazoJTAY9rENpitamGXi0MBlc5aW3VZupE4EzkfaprpEkWJ4N4VYfNxRFBoMpTvQ1pYC/U6QL896QS1jsrA6BTTUF0awAK+PLH2KYpUtg71W5k6U9nOjQUk4U/SjhssIsk3zMKl9sra87fMRCob9+WUYB87yNFh/55/2TrMJqVU4AtEwQF2TvcFmWhlObappApEZmVOZ+rXu5ECokWVV6/hz2ibw0aCw+doA6VKYQzyEP81Jv3Aa+2PEshn0tIZi7p6o4dwOtlAeG8v1XLh92tNeFzMeYg930gYJjsE9gO8MrVkfz/ifkdt8CkZAREectd/5KWSscIJToUiAlfYgtywYtwRqtgpeReYp3Ld4xBJLD2YIzhXNQYB+E9c+TwSRg05sziZr6jmhjW1tjW/hhfU1tRTyV1EwcaCUNgKpmJQEKwfDnvmgI4Tm7eDE5dAxULNgFiHQwDCycOxOOHSr5QcWMNBn+zBSNDEChWEXD8L2xFxRXWVkZDBo/lSyT/i975wIU1XUG4AWsRsCIKC/BR0BQIjXxGV9BTayJpp2ojRhTW42i02jjJE3r5T455+7dF+xu1pVlQbEgKkYJUVSMD8AXKGLVaGseTWwmRptkqknTdlInnen0P3cXdu+yT2B0Z8xRwb337Dn3fud/nf/cPXv9q3/+ddvpg6cPHN2yc/87snBsPnz4MPysf3evxs6ymkv7Ct13V9vRSgTBUbR/at7sgFDYfF57vxegfvLEy79eOHXcC2azmaw3aytMF90YAIJNJeWnvz2lq9BZNHqDZJYLK5ENx4t01oqadvNHZ89fuVZyGmSjqpKUqrdrm74oElmzMl4s2NR6Fo6ykrxZv+VsbYljKaugrLzCIE67X9PExePJE3d6jcZkKdLqiq01Nf9o+fjvTY2uFAIg2L/r3QvaYotebYbrN4+b+7hcVqwfl/kr1qyWWIPebtESGsc0ly6fgHK55YjZDrEwa6g57pZNKCg8edyqV1dXL1/5hE1i9dpTe8rLCogiFbaeKhLvz0OMTxs0MJIg1+Klv5x67/MPzrVd293QULWlxLXaCopecvT49YoivcguX+xdbYc/P339C5IoAU69BiZEJpPdrjEayEb09kv7NrlpVem+FovaNmoR6RvO6ot0n96t3bOzbPubJ++2G9X3/iGNH4/X6IpbPm+rbzxIpHjv0brmQ7tLthXUb3attsIQHd+y5cwxi0F8OvBnk6b9/rHxalEtF4fWq3VXDxW+6VKGus90BrUzQJ7OSizZv9184T/1dZWVDZ8ZWZvtd/d4adGou/Fd7b46GIZCp7OTDbzCwhdsv1v1QXuR/pVQ1HX4ywszbbZqEAxW317l2jMDAoftVqP4iiuFSwp58O0YWNljRUa2uvqn93RH2nEa3dWmu9s2+3najGjCri/VWuO6bi0XD3nKpi46W97pGwoKdxwwmxThwC8kQoolZlYCQytlLrqncrBONF07ePKbelK8L7FCMFvaXP6+1W7r7gdyMkW99a0Sl309fuCM1uYxRRi+0MBWs4SFlHnPMwq/Udvfbyut/BBKbfmOAq87Y+6uuqot0nd/rVgCQWh1Gdhtred1evY1bzIzZMj92Xhxht6utZKIp+aPLTsLuiIoLCs/fkSnEbu/U+5cyWhtLnExqGsrNqrXhVlsvHZ9ZubcJWab9dzdgi4I3nmr8qtik6Eni6SSqP2kvGNPZmDw52KNOjzX2h7Ta49UKjc9IiHyoaYrFq1R7MnH86aqNabKjsR6QWlrG2GwOCyTR5riU7v2K7dOLixtbGoTQROW96TplfIOMrJrABNbtveiFRiE4/bDjxss2ivKSULhppI9Vef0xXZR7NlCgFq0fFElzx/J5sMHLoA9CMuFZ1Gj+6ix2TlJkJMFm0rqajdeaAcpkHr4yMR0yagrIRtGEMmq2wjBBoSDYZg7Muh131XukENFmPrWbyxr3NvwzcdqmCWopZ5+BdkitUF3cQv59g5iX/7WbrKx1bYwXF4Zwurf+++HTVWVu47u2lvV1NBQf/G6pUKrgdh/eY9jV1CGlgMgY4Xbd779rVpHVCE8v8II5nBWrfnEiTNnzlw+ccNSc0xn0ouSqF7S86bHs2R37s1gYk9/eaPYboPZ9qjwfFLzl5IoGox2k8ViMdnJxBeGa9TPeuNaX2P11rbG0p2VlefMVpMNZgfV4fuRlpXTx0lAQiSZANa2fEkvPUg4g7VZPv1XQ2vbCatOY5NsUnX4f9BvxsohvbuNCSvZzNc+uVGjMxkI3hUP4hefTgUIdotFY1Czom3886oHsaytlhxJJXX1U9NUD2gh328Jf1asVT3AZfhzP39ukeqH8kN5gMvSvHl9wvLCUuYHrBI9rHe6ep3mKS4m1HcN6usoo6OioiZOSujvr4EJszvqPjkzJYQ+onHAKnT/XmGQxFMUTQmhvk2gnIWDwjA8z2MqPs173VVMZ2X4h+ctCLKP0UygWxzDD+0VCJGYXB3uNgRFYXK93WA/ZSXEDQquj1l0oLHh6BG9AmGwIA9nNyCQ0Xe8maJ52gGB53O8QuAQIxeahopIEIJSZQ4Jg/1WmMlRg3rHJmCaR9zQ7kBIiktMzZr50ISoEf22YoTg7gADRcd6gSBMSImLi0uInfgwjUAnBCEiiD4ogfMvoaBeuHcgqPL4NQNV3YDAKI8kRwsMUX5BmN0VAu3qIRmBAgpTAnfRBxrj/RnSSTyo1v10X0QPuhx8dDQRBR6nd4XwI7fX+QLFCAMCKypoDuNvpDEw5x4NNwhQxvKgE1yeXwgqAazI5IBdxBI74wdWLJE7bkAYQlA9RAlgGwb6hRANEAI75dGyU/UtCrIp7iUf2csQVKkc6DztF0ISvDuwMo91hBa+hjrS4Y/ifZyOSEvNGjjAv7IMTA1CKVNTEwZHhApBFY0YCr/uD8IcwQOTj5G+CX99WgUwPuCcGa8+cnA+j2kwTggxy1Y7/W16fq4zGp+Svmo0/H4W0QJN35aPrb6TviqjSzPJuaQJuWQ4Q+I76emzgoGgWkUM2jA/EJ6hg4HAUNzkWTcRSvZ69kWGQhmIYlDXU8kQwTDOwAVKzhy5NQhrHafTeIZEM/nEqVO049ZXw7FbHs1kfy9QHTEhBEC3sp3NMEFBgJoUnuwHQiK4Bz4QgwiGYsaMxIj2jovGEOsLMNxdzmQgvuPKaXKZSIiVkXZccH+4nHRVX4bBCGOnaerzB4r+XtlMPA+TKprwxJjnoC16IhwF7FRwEPKUDrwLhFyAkB9wDgn9DVXBcAkjvZx9lWc4pMqnKeyp9hjmMiQwjYqMS4jOpTHcKJ3nCaHvHMR8jaOX5sa6IGxVNDOFh3cw9K15sYkDx0wGDQfBfCkUCBEwFFyaTwjDMEfxgwNOahCF+quWIkQjbwaDpgHOCOjIw7bdFigsCFGdr2M2QGzPx6uQOwQqYw3i+7oHZp4QBMSAQcnrtIgLBvFA96UQIKh4mJ0v8wkBJIwLHO7GcxQHhgVk24tVSKBk8QUPwUUqTtwBg4ge8ZgdCTyfqIAAL3Cuyg+EHOK/BIWQxWDECYk4eAiRID2CAsKrna+ywGTxQnZACDmcbDyzMIW6igLPIB5EIIWnsMJHZpBYrZ9n/C1gDmOFJFCMMuj3gPAsqd9lKojAOoQAYRjjfppMoBIddjsrnQeLRvEvBo5EEKi2rOOIwkmeDh706d/E14KY5CgGHcxlPy9tIdlSukOI9ANhgcAhbpYXY0xcTtAQiBmi+7hDEHjwLQKGnzT4nWDyS+BhZAipmOJvd3ENvMOogCS4Dyn2EYAke0K46TH7U0K4xbvfqqus5nGoEAb4SKoEESI4jCue7eyK9hCF+TTndJwgJm63EwdV6QjvSSpaAcHDbCghxGCAkOStmSf5UCCQqD7RJwT6jeSAEAaAAETL/xvKUXiDRwqEciYX1yCKd931FOL8fOUmlBCW+oGQgX0EosQWhQBhEEehBCUEkovE9P/gF/G/YwN6SHBszmmYICDknsiNgwjGKU3LMIVdPhIshK9szWROCSHbDwQyyU3ykTMORRJyoJ8sd++QqprzTHbyyJTIETkkegHrHCC3FI8pOqaTB7VGmUfg0zrlU+g0cSNBWJGP5tKUEDw9tDuEPkSpfDQTEwqEreCt57tDSHDPCGGQ50AJ7hzksh1w11+7RCHNbQ4aBwFJp4+MBAjxPhOWQUOA9umHfTcTPATwgyjFZ9is+i1InPCG/9Qn44IQywjcBveUDNVhb7KRm4+cB9c006fHZdwgcP4gTAJt8JnEFuiQvAO3+v/tWk1PGzEQXQilSwg0AQUoH0oCUgmlpyRwIg1cSMoPAMoRtT+gvVi7si37j/TXwQ164sKtM5uQ9Xq93kWVqh48pyhZOd7n8fi9N84GAZmQFHUbCEz1XUJQxsPYHn+mysqIx5fP86HqZWrxlAAhtIBQ5hYsH2RhEIY6WdJB8CgzEUHFrpRqTvbgfD6eCqSAx/25Z8WGvAwJrxbKBGnLhDLs1dmsYQbFQUD7j1pBuEKNZamNS5CT58r2Aho+ToUlIJAPCbtyOkxDKFUytb2YAkL4ZNsOwBJKmcOIwiCgD9yxguBhJbeQ500glop9eAIgHE5mwaSS8z9gIi/FpwKfu9nbSwXBth1QJJ1mD1MUBDhkGBnaQUA/vW05IVnSaIYUjs72phCJXO7SOHeXSKoZorhNCT/h0ALCDhT1LMtnrjgIezLxqxGE7/DIyMK24Ow7U01sGoafIlklqFpQrwGE/RgpluXflhK0OWhZQPBAhAUZfcJKYZ6wgabMdQ4IeG73LBuK8OT7EFDPF6iEkmb9BowzXdZBQGg5I42TICzbQDiFonyZuakKgoAiLPRyQPgNhdHS/QNlRHXtQmuoiRVrQp/IFxZmzGo2JMVBWIfdbN4PVVoUhNsgYKyeA0IdRW/26fARWJvWrmQgGBdY6m+xM5wgA0dZZbEwCJilsmVcmqIg3ACn4vdeDggyMflUNDnhmh5sA31CV2NLk4cgJM5ijR0wXjEQ2NeBsI6dZQMBPxYFTZUgcs+8HBB2kSb0rCdk4BtXU//XGqxabNq2oCrI1FWnb0GkXQuD4H1FKypFOY6EoEW0QznAM4Q0c0CoUeAcNsLYAHZUTY2NglzvPa6AFFPWHtKQsY7O96noi9eAgGse6tbETxCF/Vy3uXoatX0E0aaPIKx5KvOJri/Z7nq10pJ/nGSpI3A2UM5IKCYUb04IxQ7o4o2aee91IGD3IqBcuTPVRzerlrbcFz5E4Z90SistECWM4TpwrhsSaKrslUsY859bj3hVhVC6ZpdPho5tmRGZ2vCrjDCV+uyMvWTRbcJRv7N9g30z2dCbL7kg4C0Y9IEaqzjM+1N4t6hllwLhDp+Ch8V4x439I55mnG8nl9wgOBwcOB0htu1WMyHPhuIs0+2KOSC5SbwGLOR4SMvontQdCSJvOweEQAfB2+V4xwDekUtICwoonHgGEPSQ8OCyIcl1jxGq/K3dUdkxZoJXEr5B4Uupbcw34fTOIJQW8mtmQvon3GUNvtb99APIp/uUGSWm/VjQnfIg6c3oIHABjF5wfmRmP7V4UpgLAbnMu7Z1MfL7Jj24b/ju3Pcbej+yPsAUhTXk5Gbi6Tb8/gTBYddv64PPjKY/qzDUwiiHoda2Jiptxfdjjdbw1ahcVZvZ9yG2yvGTvXdN75/ERr096mwe/O0wi3Ufhln0XLhw4cKFCxcuXLhw4cKFCxcuXPzH8QcZsMxPcHNuLwAAAABJRU5ErkJggg==;" parent="1" vertex="1">
          <mxGeometry x="935" y="-670" width="170" height="127.5" as="geometry" />
        </mxCell>
        <mxCell id="HX6_WD2VTj27ss0LEgF8-4" value="" style="shape=image;aspect=fixed;image=data:image/png,iVBORw0KGgoAAAANSUhEUgAAAgAAAAEACAYAAADFkM5nAAA97klEQVR42u3dd5wdVd0/8M+Z29v29N5I2RQIAQRDCQiIgIpAkKZIS5SOoKKoyw9sCCIgVaoPgpTQu0BCAoH0ummbvimbTbbdXuf8/giRkDtz95aZvXvD5/168Xp8Zu6cOTO5e+c7p3wPQERERERERERERERERERERERERERERERERERERERERERERERERERERERERERERERERERERERERERERERERERERERERERERERERERERERERERERERERERERERERERERERERERERERERERERERERERERERERERERERERERERERERERERERERERERERERERERERERERERERERERERERERERERERERERERERERERERERERERERERERERERERERERERET5EEYXKK+EDRKnQcE3IFGdZzFRCKxHCq+Ix7CtK26EvBLDIPA9qBgMAUc+RQBoBvAJ+uIDUQe1K+pNRESUD0MDAHklJgL4D4ARBhUZh8Qf8E/cLvY+YA0n62DFDvwVwDUALAYVuwQC54lH0GBGnYmIiAplWAAgr8QoAJ8DKDehnn8Qj+JWM26AvBKPA7jUhKJ3IolJ4gnsMKPeREREhVAMK0niPpjz8AeAX8lpGGN0ofIKHA9zHv4A0AcW/MmksomIiApiSAAgL0VfCHzLxHpaIHGh4aUK/MjEOgMCU+WVcJt6DiIiojwY0wKgYBRMGFD4FRK1JpQ62tQ6A04oGGryOYiIiHJmTAAguuAtV8BlQqnm11uFx/RzEBER5ci4MQBERERUMkonABDmTAMkIiL6OiqdAICIiIgMUzoBgGQLABERkVFKJwAwKRMgERHR11EpBQBERERkkNIJANgFQEREZJjSCQCIiIjIMKUTAHAaIBERkWFKJwAgIiIiw5ROAMAWACIiIsOUTgDAQYBERESGKZ0AgIiIiAxTSgEAWwCIiIgMUkoBABERERmkdAIAjgEgIiIyTOkEAJwFQEREZJjSCQCIiIjIMKUTALAFgIiIyDClEwAQERGRYUonAOAgQCIiIsOUTgDAPABERESGKaUAgIiIiAxSOgEAuwCIiIgMUzoBABERERmmdAIATgMkIiIyTOkEAERERGSY0gkA2AJARERkmNIJADgIkIiIyDClEwAQERGRYUopAGALABERkUFKKQAgIiIig5ROAMAxAERERIYpnQCAswCIiIgMUzoBABERERnGWuwKZI0tAERE1A09OXOm0x4KuYb37TGwLRhr/vZxx+0sdp2yUToBABERUZHV1dUpp5/93QsTieT54Ujk8FgsWhmJ+m2wAI27mgAAM959HU6HI+ZyuLa7HM7PFCH/etTEo5YVu+4HKp0AgIMADwryxZ8/IDfNP1eqKbsQkJBSlcIqhcOdhJpKQrF8+Z2MBqywO1UoNlUmEwkAEDZHXLV7WyxOz3bYndvg8DbA7vpQfPf2+mJfW1Hu56aZTsx57m25Z/1YmUpahLd6u+hxyPninL90u/sh3/nzZNkw60l0NPUCREqtGrjKgo5TxVWzgsWu21fqKaXAC9c/KzfOO1nGAk6hSlUCcdQM2awc9cPLxFEXd7sf8kwaGhocbeHA2+FI6LB4IuGwWm3JLy40ZbVaY3abbavH5b573KjaF4pdV91r2NxwdEt7x/3RWHSQqkq7ooi4RSgpoShhq8UScDnt748fNf5XQoiUWXVYWr+0NhSL3tPe3nHClm2NtkyflVIiEo06ItHoUABDAVz43uwP28t83geXp5bWTZs0LVHsewqUUgDAPAAlTy558Rj52I9+hlQCYr/tIotj9/+MAgyVwBH771dvGZSUPUbsUGoGvg2rr05ccO+uYl9vl1jxYZ2c+8SU/e5RlRz9recAjC921Q4k13/yElZ90Gvf/69sX3EMxp/5VwA/LXbdvuLlX/5Bznzgh8CX3zsBAM3rqqW/aTaA8mJXMRfBRPT2rTsaT8zwkd4Anp+/fOF3jxw/6aJi1/dADVsaahs2bZoTjkQsGT42PhiKngZgrNHnX7B8+dBYLPzMxm2NR6uqmnc5gVCwIhAK/rq/c/DPP1uy4HdHH3bEnV1w+zIqnUGAwpS6ls71HwyaNx2HlEmBb9t2q1g3a6Cc+6/p8vMnmtR7Tt4gX7jh28W+ZNO175qYtq1jx8BiV0tT69bqAzfJeKj7BSprZ56tu3P7irJi1y9XiXjs0Gw+t23nzguXras/qtj1PVBbu/+BTh7+AIBdLc21DQ0Nhv77LFi24M6dzdsamvbsKujhv79INOrY3rTjLx98Omvz58s+72/SbctK6TwAVfQzsjhZBysA838oBQabfo5SkYj07JLzxCPA2plD5awH30ndc/Ja+cLPhhf70k2jJp3p1x/tni17iXD6741W/YtMRvwZHiLGPAS6UlJVs7rHqqoi6A/cV+z67k9KKfa0tX4z2/qHkrGjjTjvkiVLKj6e98mGLTt23BxPJEx5Trb7OwbtaenYOH/poh+YUX42SicAEJgsp+Mww8rbiUvRNU1553XBOUqDlF37fVNTEGtnHqIueG2NfGba9GJfvhmkqqb3oIhsOlW6B9kdO/YSsdL5XTRYm79jopSy23yB6hvW/CAcCWcd0ArAW+g5VzSsGNYSbt+8u7VlqNnXF41FbTuad770+ZKFPzP7XFpK6YtuhYrn5PTC+3jkNPwAEnd1Sa0lzpLTcKs8F502YZE5RGCXRc596iH5+IVF73P7eus2z5VOainjujslIEvlQr5gESLrMCsai1qXrVp5YbHrvE8oHMxpfIiaShUUANTX1w/csbN5Zbvf3+nLoRACNZXVGDpwECaMHocjJxyOI8dPxGFjxmP0sBGoqaqGRen8EZtMpcSO5p0PzFu24DLTb+gBumdTob6RULFQTsPbADZAReYRnwICQMV+WxQA4yDRtf1cErejEpfIKzEPQLca8XyADgBL4cEr4h5EuuysFhswfQYw5Mj0fYkIkIgByTgQDwGhNqB9O2TLFojmtcDGeUDr1s7PoaYgF824WT55UUj85Jnbuu6WmksoSrd8ic5B96u+QFR/n4DojnXOQOb4DQlFQ1cBeKbY9QaAQDD4jRwP8eR7roUbNpTvbGpcFggFM3aZOB1ODBkwCIP79YfL6dL93Gjs7ZbY2bwLGxo3Y09ri+5nVVVFU3PzowuWLNhwxGFHzDLlZmootQAAAByQOAtAicXhGPbFf91fCI3ySpwrHsW8Ljlf/wlA7ak6Oys1t37ln751C7BoBjDvGWBHhtlvahJyyeu/l0/85L/i0ifndsm1FUGpRwTFJqy21RLQHDciXZUAmg09n6yrU0RdXbcZXNAR8E8svJTCrdmwYVJ9Q73mA91qscpkKpn2BFAhHPmeL9raPKfd31Ght18IgWEDB2PM8JGwWrN7dCqKgn69+6Bf7z7Y2bwLy9asRDii/W6VSCaV3f6Otz/55JNekydPDph8e/fWrytOQiVnAIB35PQuGsBodxd2fNUg4OQbgd8sAi5/FqgZov/ZeFjIbYvfPFi6ZLTe7kR3zZqpMTZBKEr3q2tz488B7WZz5ajzXzXqNLL+Bbt87qp/SPFyh5mXI3LoAgCAcCRiX7p6xRlm1ikboXDHz7W+3y6nM9mnR8/ZRp5rcf3S3zXtaR6nt99us+O4I4/G+FG1WT/8D9SnZy+cePSx6FldrfuZcDjkUu3KB0ZeWyYMAEhPJSR+3TWnMugZIAQw8Wzg1/OBw76v/7kd9ZX41tl/6pprK4ISGgSIbticLh6JNQghj5fAPRLyKUC8CIgXBcR14rx7zzLkot+oO0d9vs4vP37kKuzeUPDAtXxUVVTu0dsXi0WuLkad9ucPBr+ltb3cV16vGtjMtXr16uodu3b9Tm+/0+HEcUcejeqKqoLPZbfZcczEo9C7Rw/dzzS37D5y/opFUw27wAxKsQuAuorEKV1zHoOfAc4y4PLngMcvAhbP0D7lthU/lcAvS60/l7qGeCg5B8Ccvf+fscnl5Ku/vUB+eP8zItohAPO/gHoPywpf2WNSldPa/O1p/Wz+YOgYk6uV0ZqtW/uuXr2sRmuf1+1+OhKNfs+oc7VHgy9GY1HNFkGr1Ypjj/gGfB7jYjRFUXDUhEmYNe9TdAT8mp/p6Ag8BMD0zIxsAaBMehVeRDZM+AkUCnDJk0CfMdr7d2/04uFzL+2a6+tqpdQCkFvzdKmTM2da5dIZT+CLhz8AiCLegzKfR7O52R8M+JavXj0u1/KMEg2235TSSLxjt9lkucv3kGJQK9eqDatG7NrdfILe/gmjxhr68N/HYrHgyPGHwWLR7onsCHRULVy++EbDT3wABgCUSdc8ScwatWZ1AOffr3/aaMdBGQDkOuq765RSYGKStvcuR9O6rw5UM7nLJtM4C7fDpTkdWkqJWDx0UzFuEQD4g0HNrpaKsvKNQ4YM0Z2lIYSa080MBEIPaQ0mBIABffpiUD/zEvX5vD4cMlg/1UBHMHCzaSf/AgMAKj4zH1jDJwNDdGZ9Nq3uFqOdjZbroK+uI7PeeNAK7knPVCeK9zNcO7J2fpnXF9LaFwiFTs21PCM0Nja6OgIdg7T2ed2eF4EvFmzSlH0AsKxpmae5Zc8UrX1CCIwZPtL0ax0xZDjsNrvmvraO9t4LViw5wczzMwCgbsDkZ8DRl2hvb9/plL8Y0LfYV1+YUnqrFlltOsilL4ZR5EGbZV7vZ1rb2wP+XitWrOiibsAvtQb9V8Xi8bSbYrFY4HN4/gZA955Jac16OmVqj/htLB7XfAb2790HHnfeKQWyZrVYMLi/fitDIh67xczzMwCg4jO7yXrk8fr7hkw6rtiXbzilmz5VS2t2gjkUy4b0jSZ3AXQSYbtcHs1+MlVVkRCJ67vu5uwVDAc1VySsLC/fOWLEiN0Zr1Uks36m+UMdP9LbN2Jw16VsGTJgMITO30Z7IHCsmedmAEDFJ03OgdJjGODVnXaTa6axbiY9epJqd21V16hXd81ZYBarIz0dXJEDowmjal93u92a6Y+D4ejZuZZXCCml6Aj4a7X2ed3et4w6T/2m+t5t7e19tPb5PF5UlHXdis8elxu9a7R/n8KRsGvRskUn5lhk1hgAUPF1xaC1Sp3FJJPxAcW+fKN13zEABCk10swWv2Wkwlu2RGt7u799WH19vT3X8vK1av3ac7QW/xFCwO12/G8tD7XABYui4eSNKZ3lffv17pNjaYXr3aO37r6YmrrBrPMyAKBuoAueV17t7FtSSluxr/7rQmo96OTXLFhJxdM7lrNYMMZsLrfnca3t8URCiYvk5V1Vj0BIe/Gfcm9Z+5hhYxqMOk84HNbNI9C3Z+9cijJErxr9xECRcNi0tWuK/80j6ooWAN1uBrXL3m66TDfta9fsi/7atVaoBea9Nkd70+4n7Ta75h9JOBK+pKvq4Q/6NR92ZT7fR0aeJxAMaM6/c9gdXdr8v4/b5dLNN+APBWvmzp3ryrHIrDAAoOIzewwAAARbNTcLYQnlWFL3UsQpZMb4uj3/kz3TtsVDQhbYpJ1JNnkhpkyZkqyqqFyjta8jEJjQFbdm3aZ1R/kDAc0Aye503mPUeVavX31MOBrRzILbo6rwdL/56lmjmfgQqVRKWL2u88w4J1MB08FPqkDLFu19Vus6w06z/M1KbPz8AkTaxstwYBjiwX6Qcm8LQzRgk4o1Jl3lzRanZzvcVe+gxvucmFIXLfC0Gjp/q5ZSWvH2Hdekmtadp4Tb+slQa7mwOWKwu/2irNdKVA95XJzx29eNr9uBFel8MSD51h2D0LFtOsLtE2Q01B9StUJKCaujSbh8KyAtL5TC6o6yrk6Ru2enL7KTjAOv3vpDAM+Zcd5sx4R43I5nAdxx4PZwJGJfvmr5d8aPGf+2mffHHwxoZr7zebyRQ0fWfrL/NkWn20Rk0fwViUUv0ttXXVHd2eGm6VHZAxu2bNbcl0zGvw/gKaPPyQCAis/sLoAdq4BIu/Y+VV1eUNU/fWoYNn/+d3XHqsny8QsrENNvUBB7/xv+xdWeC7vn8dQ9p2xQeo38nbjgflN+/NPqu2mTE/Pve0beOuL7aNls2fcz+sWvpg9AjQSGAviu+uthCTH8m++hvP+V4uw/7iz87Fq/zfqtP/KVX/5Cbpx3k3z7Dz2QSmh9ZIwETgRwXeo3IyLKgPGvIx6+Ulz7jh8GkP+edrds3XYqYiGPtLn8Ss2Q68WFD87s9LgP/jQU29bfLeOhgVJN2kQiYpWATba82B8NazXXmpdzHv136sGzbhOKpRVSSlhsdogvnnKpuAWJvW+sEoBwVXSIQeNvECf/8nMjrnMfu7Tfa7Pabk8kE2n/UOFY7GoApgYAgVDkJK3t5T6vodcZjSWO0NtXVVlh5iVmVObTTzmcSCTH5FBU1hgA0MFvtc7qmooF2L32v/kUKec9fYhc8e4M+dKNYxHx5zeOOx4SYu1Hw+Xaj55V755yh+g96mRx4UMbC75evSQpH9xzofrvcx8T25Y6syqndYtNzt9yBnw9tsl/Xf6k+NFjxg8G03g7lf+9+xty5buvyffu7pl1MS2bXLJl03nSU3OO/OcP7xBX/KeukGrJt+84T75e9783UgFA9p/wIoCaTo9d/uFHWDdr0L7j9v+/usJtQix/Y0Sn17nvHB07XwVg6Gi12tra4Ox5n25tbt2TloUvGApMNvJcB2rY1tB/Zf0azddvl9PzwIHbCukyiUQimpP8hRAo8/jMvMyMPC43LIoCrdkJkWjElIRlpd6BSAcFk1sA5j6pvb1mWJuoW7cnt8IA+UbdH+Wrdaux8MWxiBjysgk0zBkql766Tv7f5SfnVpnsmk/km3V3qG/e8UzWD//9BXYrcu5Tl6X+evx2OeN6U+dIyTfqbpTv3/0p1s7M+uG/PxHaY5GLXvq9+rcpC2RdAS84gT3fTNvWsTO70WGtW8wfRu5vynqkWi5/XR6P+xWt7R3BoK++ob42h6JyEuoI3az14HO73IkJo8fOyL6kzh9pkVi0TPPaXW7dxXm6ghACXp2BgOFoxPPIwkcMn7HEAIAObivfBZrWaO+rGTA/1+Lkq795Rr7zp1vQ1mj8305gt0UufeMd+filhr5tyZd/9U/57p2/EdGOgsoRGz7tK1f8d7184br8kqRr9dvulwhIvnrLH+T7d92NQHPh93bdnEnSPXlF3kGATKb/EussGpN+TZ2PayiYkn3K21y4FMedWv3rUkpEIlHTFgcK6EzLq/CVaXbRiTxnujQ1NXli8ZjmU77Ma/yqf7ny6dRBVVUcaj9iktHnYxcAFZ9ZYwCSMeCln2vvEwqEcNyaUzXf+P398t07L4TayfrwvUf60XP4IuGumgNFWQkpk7C5+yMWOFa2bD4Om+b30unTBkItFrVx/puyDjWiDsl87+j//sfbf/yFfOdPlyOpkehNCKDfeGDENwGbG0iEgQ2fAY3L9GdmNK11S6EslC9cM1RMvT9jWtbsarr3YSnfuO06+f5dv0ZCZ0ykzbU3pXPfsYDDC7Q1Aus+BprX65e98fNRcuRJHwEfGpPuOduHTvXgbdi9Ybgh59RT1qsl248qOUy1HDNmzM6P5s7e3drRljYxPRAOf9uMS2lqavLMX7lkoNY+l8v1ZK7lZdIebD9Ur9HM7Sr+DE1PhjookOMBfJZ9aZ1jAEDdgEkBwCu/0n1AyP7jtyrXvL4w6xoufGGcfOHGq3Qf3EIAQ47aIKoHXiEue3YmUK/1qfsBQL5Vd5y67tPnxNqZmv16omlNOcaf9Tjwyo8LuXz54X1nyrf/+GckIul1nTQVOKMO6KExHXrXur33brlO5tWdq73S1+sTAIUvlyaElB/fd5h85+6/pdUTABwe4OSbgJOu2/u/D7TyXeDlX+q38qybfax85JxfiGkv3YlCZRkAiL6jz5XA0xJwCItVlWoyrjjL9shIR2+sm10LVSOuq+iTlD1HNgghYv/bZrHa/jcQ8AsyGbfA5gwqPUZdC2Q3fCXXrHk+j+fd1o62iw/c3u7v6L24oaHHxE7y8eequb356ngiffEfu82u2qXln1rHSDW3ZX/3iaWSulManY7ce8eMZrPqt/KnUuooo8/HAIAOTrP/Ccx8UHufUKBUD/w5kPXzH+rSV18V/ibtHx2rQ4px3/mlmPbiX7MpS5xeNxtAP/nvn86Qnz7xA60WBbl5wQ9lHS7rtBVAc+EfAVk/0ytf/+XzCO356gdcFcAVzwGjMqQX73UIMP1l4KN/ADNu1m4NWDfrEPnUj28Tlzz9+6xvonb9rXLe87PQvj293bn/eGD6DKBqoP7xY7+9t2XgiYuBZW+k75cSsmHuHbLuqIdF3bwCB2xkGQBM/ftSAJoPGvXhH3yIpa+n3Xxx+IWnK+f++f3s6/JG1p8UOTaxeTyuO4UQFx/4ppxKpSDjwesB/CbPG6jJHwpfoLW9srxifW1tbTzX8jJJJZO6D9HuHgBImRqaQ1FZ4RgAKj6juwDe+yvw/DX6+4cdM09Mf/mlrKu3+oNDxMp3tP/4hIAYc8o12T78v3LohQ+dLSZfrj3X3t9kR+9zbs73FsjF/3kLWxZ/NXtY1SDg5tmZH/77O/Fq4MKHdXera2bdIh85M4d2U40H6MYFx2DjvPRBWaNOBG78MPPDfx+bC7jiP8BEnXVrgs02WVX1TL738n/3tNACAIjyPq+lb1SAmlMNzXRXiDHDx6ws95VpBkvhUPQcI88lpRQdHR2agws9HtfzesfpjQFQO2kZSKWSug9Rp8Nh5KXlxW7L1AKAHjkUlRUGAHTw6NgBPHY+8Nqt+kFFeZ+YsKfOzKnc1e/fhmhAe9+Ib84TP3vlgZzK29/5//g+Rp2k2aSqBvdMzavMUKsP8//91X5vTzVw9RtA7xxb7Y/5MXC09qqpon27DZayv2VfmMa/Sbg1/Qd7yFF73/ydZVmU+QXFClz0CNBTZybdxnmny7rhORSocb1GpC0WVu18Ciec0AXpMLNX5vXO1tre5m8fvnDhQsNGo9evW31eJBZNG5RntVilcJXn8N3KTjKpVurtsxZxBsA+tgwBgArVk0NRWWEAQMVXaAuAfxfw1h+A2yYAi1/W/5y7MiWGffNEce2cnPow1a3Lv6O5Q7FCJNWLcynrQEIIKcaf/hNY0v/wRfP60fndjybLVwbTCQFc+n+5P/z3mfr3va0HGuSWRRflVlgnynoDP30ZsOcxIMvp23udisYPedSvoOfYPxta1/xoDHSQQHdYEnA/PrfnLq3t8URcsboclxl1nkA4NF1re2V5xfbDhgxp1ztOb1yDomSegSGl1H3Nt1mL3yOuZBhnkkomDR+lyACgayUBPAEFU5BCtXgUItv/EIcLEiMhcT2AxmJfiKHymdLjbwLmPwv88zzg1hHAW/8PiGbo4nVXpcQhJ04VV/4np5Sxckf9QLHpc803Rzlw4lrxi9kFr1AmTrz2LRxyQnpQ4m9yyJt65TUf/iuOnw6MPin/4x0e4PTfau/bvd4jn7r0lOwuNIt/53P+Cng7zbWjb+BhwJHna+6S21deLAt50BqxyJKi0YogzQ0ARB7TEkePGP2xz+PVnJIRjhq3OFAwFDhSa7vH7c5+kMN+OusCAKD7im3tBgFApn8oVVUNXxCo+Ff89bETwFniUczL52DxFKIA1gFYJ2/AowjhCQA/LPZFGWLXOuDD+4C+Y766uE0yBkQDe/8LtwHB5r2j+retBFq3ZF9+71Htou/IyeLK5+uzP+gL7n4BWB0SseBXf1hqhviViqrcuhIyEAPGvylX//cnaTsGf+ObwGuv6B7YWSIgTzVwRmHj9AAAR50PvPF7oH17ehXCe34JIIcBbDoGHLp3dkKhTv45MO/f6S1LLZu9eOTsH2HajKfzKtfMVRZXrep2L2PlvrL5gVAwbQple6DjMCPKX93QcHT9+lVpDzVFKLDZXBnH1OiNAVA6acWX+9bmyKHMrpTpz1lKGN5HwQCga4QhcJp4BMuMKEzcg4g8FxehEuUATiv2xRUsldg72txg0tszpYw49lmEtk4TV86I5FOGqKhok2/c/u3UtmW/F+HW3sLh2Sastnex+OW7xB0NiXzK1NRv/PMA0gMAi3VwQeWedD3griyoCAB7+9i/ecnerpYDNa74ZjZFyM5ev4+dVng9AaDPGGDYMcD6T9PrEG6/CkB+AYARVJ3FD+x2E58++Q0vcDldDwNICwDCkYh96eqVpx46eux7hdQqGAlqLv5TUV7WMmHUqE2ZjtVLBayqmb9iqlR1WwC6ewBgBgYAXeNuox7++4gXkZJXYjqAtQCKP3+lO6kamBDDj31J2Mumi4vuLzhXrzjzt+/DiDfcTI684BP851ogckC2PiE7WZ80w4ujzQlMvtS4Oo47UzsAaGt0yKd+fJK45OkPMx2ecRCdqxw4wsAVT8eerhkAYPvqQ+Xed/k8fmlNzPDn3N3tWgDGj6p9flvT9n9FotG050QsHrkWQEEBQCAU1JyO4vV4P+zs2HwHZEoJw9PpGilTAKAoBgxCPbDMYl/w14CEikfNKFg8iq0QeKfYF9htWJ1SHHXhA+LkH7nFpU9fYMTDv6sIIULS1zP9VU2m8g/SR3+rsP70Aw04dO8gPS3xWEFJi3Dk+dqJfvJVe6r29mCzDQ9874zcCtvHgDdEoZNicVdL8V8/D6yqEGqFr2Kl1j5/MFRQuupVGzcOave3awa3bofjrs6OL2AxIN00nqratW/fuTKjegwAzNcoHsM200qXxqaGLGnJqJBLX/+ZXP75XPnkBYcWuzq5Ei5fepeCVPJ/MNQa3DskBFCrPd5Ptu84tqCyDz3L2Lr2GwtU9teuqxqfnmNpX1y/sVX8ClekW/4We9yOf2lt9wf8ZUvr818cKBb236xqLP5T7vWFxo4cu6Cz45U8m+stihLT25dM5Zt5u2tYFcW4LscvdMsv3UEm59XmctRc7AvsVmIBgdUfHCGXvr1YPnrOQwWN+u5i0uY29g987KmFl3Gg4Tpp9ZtWD8j7XrsqgOFZDSPIzSHHa2/37z40r/KM+CZJnW6EQNy832KZf9Oxx+Z50G6zpS/ZLCUSqejP8ykTAPyh4He1tpf5yj7N5vh8UwFj/1TLB+geAYD+ZSkWJa9xTJlwDID5zE3wISDNXk23S/Qa4Vd7jlirKLYUpBQyFnQLxSKgJpOq1ZkUUK1CTbqRiHvRsbMaLZsdmjnV94kFhVz86nR515Qj5E0zj8ivz7drCZvTuLSnvUcClQOMr2TvQ7S3h9ssePis8Zj+SoaxLjo/brWnQCsPQsF66WR9bdmS19TKApag71wk0S1fxkaMGBGbvWDuhuY9u9MWNwrluThQfXO9d8PyLZrNM26H434zr8cihO5DNJlM5VKUKTI3bIiw0edjAEDF56pICX+gt/W217OOcOXMeyqwe9NN6o61PxbrPu6vFwyI9XMOl/d861Pc8MExxb7MTq9J6xVaUfN7MPQ1ael2vUx7AODwnQTkMdh1ZJapiXOll/go3GaVf5o4XNyyeH0uxQkjBmHpJapxpLplAAAAXrfrxWbglgO3t/nb+9TX11fV1ta25lJeskW9Jp5IpH3V3W53fNzocW8WUleBzFGaUPTfolOp4gcAmVgsSsjoMrvtl46+Rsp7dYh7tuXUvCWm3NAupt53q+X69waI0269SPY/VD86XjvraPnIeYYuYNJ96Awb7m34wmF7eaoAr05K8ljkyNwK+8KAQ82pa69D9PdVDzs99wINaAGQOkO5LLZu21XlUpx3Wy3pj4pUSkVMJm7ItbxgWHvxn3KPb6nZ16Io+m/RyWTxuwAy1cGiKDkFWlndj2JfMJEUloJCb3Hmrf9WTvzFAIw6SXc8hFw78zb5yJkGDok3+B5IaRMdOzQyDnbyJ6rXZtir8JV6dfXQXk9FRjoyRx1adbXazWut6DFMPzOMqo7IrTAYMwZA1WlFiHXfFoDRo0e3VJZV7tDaF4qEz82lLCmlaPe3a6a49nm8j2VdkM73XiJzK42iKLppwJPdoAUgntAfBmRRlB05FJWVbvulo68PI/JviGOmtoqTfzUMgw7XjvDDrRYkxSPFvtZ9pJR2+dHdE+Qbd1woZ9z4Z/nQWRuwc1V6l5ya52OnerB5lXeXa2+Ph3PPONRnzN4gwAxW+94BhlqS0f45lQUUNJjuyzJ0WgDs5gUAQil8/IvX69Fsmm/r6Bgxc+bMrLuSV65ddWEkmr74j8NuV1uadj+Z9TXpbs/8a2JVlO16+zI9fLtKIkMLgKIIw2eTcQwAFZ80ZqS+qJ0SlB/de67c1fCW1roAcuPn35PXDHeI+9fH8ig+t0ua+4IL/o0nomPHcQh3HKb6dw9D1F8pIm0uhDvs8mq3glQWPzj5piczcv7/gRxe7e2JcO4T+Sv7mVdPAHB6gVBL2maZiPXOuSwjIlWLzhiASLzbdgEAgN1hvVMRypXqAWkM4om4Utmv36VAdrlOwpHwFVrbK8or1h476WjT2+CFsG7V2xdPRHMpyhTJDL8JimLblENRWWEAQMUnjZsoIU687m31yR+vwLx/j0vbGWq14LATrgbW3234JUip4O07fpzaueYyZfeGcfK5S8v2X5Gvy3/dPVWFl6FHL2FPLJQxI6XmIEdf4WsdZeT0aW9PxCpyLsuIAEAv20ysewcA40aM2/Dhp7Pa2vwdaa08kUjkJ8gyAOgIBo7Q2u51OZ/PpT75NmnYbRbd9UCiMdPfCzoVj+tPBFJVscTo8zEAoOITxj4fxYgTrpKLZ8yGRkQv/c2XATAsAJBznhgqN372kPzdqCnYvcHWLfrUFAvgrjCvfL2HajyS+1w+swMAh3ZdizYn1KLTjWCT3eKrk0mZr+yDNn9HWp9/m79jYjbHr92wdvKKdWvSFv+xWq2yzFn291zqkm8mwFQstUBRFGglIeoOAUAwHNTcblEUTBw7do3R5+v2Xzo6+EnV2AnWYvJP5mDY0e2aO3etG55baTp1XvxCD/Xpy+aoM27agM+ePAW7N5iTY1zkcW/cVV9dVdFoTs3VkSHzWHYWzvKcD8mtfO3uCqFYcm9uzjP/fFaS5gUA0oixCwDcTodm4ByOROwrVq04ubPj/eGg5oyBcl/5jmHDhnV0dnxWROYEQbW1tXGXUzvfRjBs+DT7nPmD2jP9nA5nLN/1DzJhAEBFZ8YiXKL/OO0FRYLNNnn3qRMKKVu+84cb1Bm/3onPnp4sonkuN+Cu/PI/W4aW83zGRzgNzKmvWSftLhthteY+jFo1eeS1Tl1lHv1OhgSqepkArWa2ABjz3Kg9pHZemden+YQKx2PXdnZ8IBCcorXd5/G+Yd61p3PanZrBRiQaQUo1N29bJolkEtGY9jgEp9O5O8fissIuAPOZfY8NXyO6qxndAgAAGHr0Q8B9Z2vu83p/DODG3Ar8otnxpZtfkm//6QcimwFDvUcCwycDNcOAir5A1QCgot/e/211fPk5NQWsfAd45FyNB1bm54KA0OhUNrk7OandTymFNeOvp2YinWwGQhYipv1WJxVrzu29pq4Wq1i69RiAfcp8ZXP9wUDa274/6D8u03FrNq8ZsmptQ9r4ASEEHE5Lp4v/pB2n5B8vuZzO9QDSkllIKREKh1Dm9eVRauECoYDuPqfD2WDGORkAmC/30ca5kOhb7AsslCm/fIed8zFqblGxZ3PaL4Xq331SPkXKGb94GR/+/fsZP1QzBDjhKuDwc4DyPtkVrFiA8WcAfccA2w9YfE2m8rg9Jvdw6wQ/wu7KHBVpPUFVswMA7R9Vi929PceSjCF0UoOnSqM11uV0/QOARgAQLFu2Zs3ICaNGrdU6LhyKaC7+U1FW3jZuxLgNudajgNUA4bTb5gI4Wmtfa0d70QKADr9+AGCziPlmnLMkvnQlrre8EialZQMATCm8iOKSML4FQAiRRO/RmgsxibbGnMcByHf+UIdZD3xf9wPlfYBL/w+4bRVw4jXZP/z3p2jE4/lMA4wGcz4kJ0Ht9a2kszzzwleKPb29P7DL3Lr6dXJD2Rwbcy5LmhhYWbr/IEAAmDCq9nWP253WBCSlRCIRuUnvuEAocqbWdp/HOzOfeuj+VcjOx6HYXK7X9Pa1tbcZfs+y1dLeorvPZrU9Y8Y5S+JLdxDIOV1mNuQ0TMBBEACY1fYpqgZprmWOtu1ueX1FRbblyPqZveXcf92q1/SNYccAv1kATJpa2OC7gEHdfOF2cx9Wfu2HtnB5M79VW2zpAcAew6c2fykZ1w1WAKzNpSjDpHTGHqRMHQNg6JehTCdlbyAU0Eyv3NDQUNbe0a6Z8MHjdP7d0CsSna8SOGbIIZ+4nE7NwSctRQwAdrdqZ/p1OZzxCWMmrMyxuKwwAOgal8lp+I6RBcqL4YHE0zgo/g1NWmatZqD2QECpAiNPODPbYuSyGS9g9wbtsRaDDgeufkM/P37WJ5FAMPcAQAqRPppdTQIBE1eJ7mjS3CxsrsxNuTZHenv/ns3m1bN9u36OiWB77k2qZgZViWRJjAEAAI/H97jW9vaOjj7Lly9PzxOQilybSKYv/uPzeCO1I2vn5FMHvRaAzjIB7j1WyHJvueZ31R8MIBwxfNXdTrX7OxCJap+33Fe2zqzzHgQPj5JggcRLchp+ZERhcjoGw4WZAAoazd5tmPXDOnTyC7ppZlOprJYylc3NXqx8S3uxeocXuOxZ/cx4uWjfpju4LhNhtWmPctuTewt3VhKRDG/tlo8zHSodvvS+ibZtumMKCrZd56XJ6VMR+CDnVQvN6Kr6HyWfsR7Zshj6B9bW1PyE3WZPi6xSqoqkBdcfuN0fDJ+vVY7P61uQbx30xgDILH9MvB73W3r7tjUZnnK/Uzub9bvC3C6HKc3/AAcBdiUXJJ6WV+JnkPgXBJZDYBcUZDcPSoUPEkMg8B2ouBiAM6vjSoMpP35i+DHrU3ccnhDblqXN0ZfhtsOzKmTxk79Ca6N2oPyt64CawcZUtnG59nbZSdOwYtXuOGxaBww9GobbthyaSy8rVqBh5muZDhXuslYAX83Bn0oAmxcAI441p65aqgfvFr9tK858L5Eo6UGAADBlypTkJws/X9O0e9eYA/eFw6GpAH6/7/+XUlrenvm+5spUXrcnq+yBucimBQAAnO6y+y0Wyw1aSwBvb9qJQ4YMM/MWfoWUElt2NGrus1ltUo2q95t17pL50h1EjoLAAwDmQGIdUtiQ1X8SSwG8AokrcHA9/GHmqHXRY7j2X1br1oFZ1Wznqu9r7nB4gON/ZlxFN32ms6OTP1F3uXZqU93yCrR1qfb2miEBcdeuzOuV233arznrPzWnrlt0XjDLeq3KpzhT2+gVpWS6AADA43Y8q7W9zd9+yP6LA61ct/qCSCx98R+n3ZEaN3LMc0bXS81y8axRgwdvqq6o0lxcp83fjo5Anvk98rCjeZdut0NlRcWaSZMmmZahiAEAFZ0peQC+IKoHLNTc0bHTJX/et/MVc9q2DtLcPvEHxi24IyWw4IX8ji3rN09z+4a5xtTtQKvf195e1b/TfkpR3nOxdl0/Mb6eiQiwdpZ2PVxl/82vUAMCVavOKHWLmb/FxgfYdmm/12a1pRUci8eVql49Ltn3/+su/lNWvkoIUbysOwCqysp0Vwddv8WkLjQNGzKcq8ztqzPz3AwAqOhMTbBSM0xzGVNICQw/6rudHS53b9Hu4B9mYJP1mg+B1i06N6eTUc3HT5uHir7pP6RNa4FdBucOiQaA1R9oV9NT9VKnx/capX1wwydAvhkV9aydtTcIOJDVDrSsftjYk+VAbzGgEuoCAIDa2tpgZVm55sp6oWj40n3/uyPQob34j8f170LOLw1YQbR2ZO1f3C7t2QCNO3YgEAzkWmTOtu3cgT1t2qP/y3w+/6G14/J8M8hOSX3p6OBUSFKPTo2b+hrcOsvUp5KndlIvq0jpJIyrMCj/klSBV3+jv7+TPABCCBW9RmnPdVvc+TM5Jyvf0R6wZ3VKbF/5j06PnzT1U83ZEokIsPS1Tg/Pid619x7dJG5Zkd9cLyMGq6o6LQApMwcBmsPjdb+qtd0f8E8EgLUb1x7rDwbTuittNpsUVaLz74vJhBCJmsqaWVr7VKli2Zr6HEvMTTyRwPK1+ueoqqjIOUNirhgAUNGZ+csnqqv9sm+tZmYcGWzpbBUzm26q2oRBU4Vm/xNoXFrYNfYapj2V6vN/GZtrf47OmK3+4xpFXX2n2YeEEBEMnqgdrCzMaTXYzIK7gUXaAYCo1JkaWmxCmjaux4xFZADAY3HdqWik5A2GQ476tfWT/aHI9VrHVfrKt07oPSHUWfldoUdZ1UVOh1OzK6K5ZQ8aNpvTFSClxJJVy3VXICz3ef2Txk683ezrZwBA3YC5qWtFj6HabeGtjQM6OTQKd6Xmj4NszHkWWbrNC4AZN3dya7JoHek7+l7NfpTdG4ElrxReTwBY9zHQoB1niKq+WTc1iH5jtQcRrJkJdOw0pq7v/kW7pUKxABb8Nd9iDWmpUnQSE8TChqxSqc2crvZRo0btqPCVayav2NXa8mpHR/spWvu8bpfBzT35GzJkSFPf3r11o8+V61Zjx66mXIrMyrI1K7G9Sf/7XllRc0tXXD8DACo+M7sAAIiqftrDzP07HfIPo3Vz9gohJCr7ab7ZikUvII8F5b60feXexX+Sha9BLk64do4cOEm7w/LdP2tP28tFMg68pBOo+HoksWPRb7Iua9ixf9PMzaAmgY/uK/heYOcqYLZ2S4UcePhmMf2VvCM3YUigGtd+mkTbSzKnh8/jeVdre2t7W3V7oCNt/IyiKLA4fXkHYfsIAxsOe/iqLvN5vZpJOKSUmL98MbZs35ZrsZpUVcXS1SuwcesW3c/0qK5ZM2nshAeNur5MGABQN2Dy4jX9x8/Q3Vc56nsZjy3vo/2Xv2sdMPdf+dVn7Szgbydl98ab5WAnZcgR2oOFtq8APrg3v3ru8+ZtwDbt56YYcuRrom5z1pl8xPgzFsnab2tnWpn1INC8Pv96xsPAExfrBlVKzaC6wm6EAaY+vEMrAJItW7POTNmdeDyuO3NZrqLcV9YyYcQIY56mBhkwYECkf5/e1yo6KwyqqopFK5diSf1yxBO5J+vaJxAKYta8TzM+/B12R8rjqTg1h2ILwgCAugNzB0Ades4c1AzWfl1X46dkOlT0OkQ/eJhxk362OS2xIPDC9cB9pwGR9iwPyvJPdPCRN6JqgHaH/1u35z/XfuaDwH/v1t7nrlRhk1flWqQy7js3ay58lIgCT1yU3/iKZBz45w91/z1kv/G7xeXPPZ3fTdhXSOFfUwFI+HqlDyzZ8Pkh8s3bRxd8gi42ZviYleW+sqyncJR5fHlOwcxWfo+02uG1jwzqN+C9TJ/ZtG0r3p8zC6sa1iAczf472u7vwMIVS/Dhp7PR7u/Q/ZwQAn179fj1pNrarVkXXpS7RWQkM3OsAxBCpPRWBpTBlkMzHnzot++V7irtfdEA8PeTgWVvZK5Ay2bgtVuBW0cAsx7S7DqQfUYHMGhS3nPhxDcu8ovxp2tPrUpEgIfOAjZ+nn2BahLyzduBl27U/fcR479zl7ji9ZyX8xOTL39WjvuOdvPH1iV765p1gASgrXFvUFWv8/ttc0ml/8ROp3x2zqDvaa9D0n/gI+1CNsx5Ty58xJZHiUVV5vXOzvazTof77mw/m5/811SYWDvhtD49e2Vsgoon4lizcT3e/fhDfDh3NpauXoF1mzagcecONLfsQXPLHmxr2olNjVuxaOVSvD9nJj76bA627tgOtZMuw749e797+NjD7zT3/nwVUwFT0Zk6DXCfyoErAZyYtr21sV+mw0T/o1pSj1+8HAueG6/5gVAr8Mg5QP8JwOgTgYoBgLNs70I0bVuAdbM7bdaWVQPjyuhjJ8ptazSS+uRwb3qdfRmGLP4eNs0vT9sX6QDu+RZw+m+Bk64FbC79cjbMBV64ASLT7IQRx68Tlzz9yzz+JQAAyhE/PFU2LlmqmWZ5zUzg9onABQ8CYzMs2ZCMAwueB17+JRDSX0pV1J72rPjJYzlEP+YSlX0/kEB6rtm1Hw2QAhvlm7efIs747WoDT2lqhO1xuO4BcEZnnyvz+kLjRo1amEWR2VySGUuIy4aGhrECSv2O5p2d5gLuCPgNyxjodrniNptl7YJli59OqmqVqqYqVFUtU9WUN5FMelSpOlPJlCORTNhSqZSSUlVht9lSvXr2+vVR4/MPGhgAUNF1xQRoUTPwA6kVAPh32eUdYweIW1c26h2r1J50qVzx1sKMyWq2LdPtJ8/I2yOljDtjiph633r1nm8Vdo1TpiTlO7d/XzZv+AihlvTbmkoAr/8O+Oh+4OiLgKHfBCq/iH+CLcCWhcDiGXvHDWTSZ3SHqKyaXFBdJ01dId/76/+Tr/+uTnOqZft24MHvAf3HA5POA4Yc+WXmxZ1rgMbFwGf/B/gzj9CWo05apEx/4aKCbuz/CjPoOVrd6xb4elyBwG6N4Oej/nLT/PrUP85cp1T2/wiuquWw2loRj1RDxkek2nceqzStHicGHzFTXPzYacZUqDC1o2o/em/2h9FAKJhxKmO5z9dtgjA9I0aMiEkpRy5aufS/W7Y3TpEmt07uE45E7Ju3bbsul2PiiYSlvb3jVgAMAKgE6Kb+7II/ssHH/gsO7x8R0xjUXz3iLGCl7hB08Y1LFsmXfv60/ODeHxtap8r+CTH2u6eK8+/7Im+vViiU2zrx4rTfzpKv/upq+dGDDyCuk0I8uBv47z0A7sm9zn3HtIkew0aJS1/Mfe3iA+t66s23ydd/21++/7fLdWdDbFuuv6hPJ+SIE9Yo7e8dWWg9jSbO+HObfOKil+X8/5yj+YFYUIiV74yUQNoiOvu+DNJRfgQKpAjkP6LtAD6Pd0EgFMyYHtPpcD1k1PkyXFXBPyZCiBSAE1dtWHVd4/Ydfw2EQt22WyaeiLkLOZ5jAKjrKJZ2ze02l2E/RHrEyGO2y4GHa7/CJ+Indnr8OXdfIo+8cHFnn8vaoEm7xYTTx4oL75v55f3R+HNUlJznCYrv//lBcfzPpsFbY+wE8KFHbxBVw0aIn77SbFSR4ru3XyFOvek+OMuMq6dihTjsrLeUAZVjRV2ek+CFJe07KY3MWb11+HkYPnl7vofLcKsn288mE0nNYec2u9OwVHdejzfjinUelzsxYfTYGdmW1ymhaI7CU4TSbtQpxgwbc++k2sNqhg4a9LLb5TIwo5ZxCk3yxACAuo6wzIZI/8pJT7XxmTY0KCMn/13z/MlIZwmBAACWS58+XBx3xeuwOvKvhLNMiklTnxXDBvQRP3zgqwvo2N3pD3sh1uZzGnH2nx8Vk684Rg47pvCHtbsqJY6YervyiznDxdWvtBRc3oF1PfO268RZt58qhx9beIdq9aC4OOaSK8W0F88QU1/M/0fbW5XWDyJ8NYZlrxN1daoYeNh4jDwxr3mPIh7KuvU24Pf/88BtHpc76bY6XjfqesaPqn2x3Femmzy/uqrqzVzK64zdZk0bIyGEABSbobMMqqur/RPHHHr2uGGjfSOHDL+rT49e2+w2e9f0C2TB7XK3FnI8uwCoy4jTbpkl/3X583LTvNMRDTikYk2Jin6bFU/5eV1y/jNu+718/gaHbPh4GkKtbqgpRXpr/Ep5379kXcYFD31PvvWnb8u1HzyJ9Z/0zjbVrvT2TCnDj/4Q5T2mifMf3qxZ9sgpV8tAy8PYs7EKQlHRc/gaLJqR95rp4vu3zwPQSz53za/lloU3YsvC6pz6sasGxMTgI16BsFwvLns259H+OdX1+Kvel1JW49Vb7pLrP/0JNn5ellNdqwfHxCGTH4crdIOY+nDhLUq9Tn9UPXzdj0Xj4glIRC3CWx0WQ4+5BTCuEUhMvacVwAj51KV3qes/uUrs2Zh9OmCrI+vg5pQppyydu2T+yh1NO8cCgN1mU3v37HnTkCFDss7fkNUtq+59psWizIjGYmUAICBgsVjiPo93QajFP9XIc1mS4uaayqoT2/wdQ1KplHA6HMmayspXDxszxuAVsPYaMGBABMDNAG6WUro2bN5wajga/nYkFp8Ui8UGJFNJVyql2pOppDWZSilSqjk3FyVTKahqdg1WNqsVLqcrWlNRnfdAXMCg8VfyCpwBgTcKL4m6mZh4FKblKC918o26iWjZdKvaun2iaN/WC6E2G9SUAotNhbsyKt2V7UpFnxVwVb6ITf98Ku/maKPq+9w1hyEauE627zxaBnf3FMHdXvh3WWGxS9gcEk5fCpUDdonyPkvgKHsFlzz2lOiSARoadf3vPT/AzjU/Udu2TBRNa3oh2GL5X34Aiw3w9UzB1zMgeg5fgIp+T+Dcu54vVl0Nud46KBg+/TIZaP4hWhsnINjsQ2C3Hck4YHdLWOyQTk9KKLYEynu3igGH/0Kcf++zuZxj0erlh7sttj5qhTqrtmdtp2s3lIonZ850/mTKFEODmWKSUtoAeDv5WEAIUWCKTwYAlBkDAOo25OoPqtG4uAr9Bm8RtVNNHzdCdLBjFwARlQQx+lstAAwfg0D0dcVBgERERF9DRgUA3XKKBBWsqH3WRERkHmMCAAU7Ci+EuqHGwosgIqLuyJgAoA9WANhY7Ishw71a7AoQEZE5DAkARB1UCFwDNhkfTLYghaznxxMRUWkxbBCgeARvQ2IqAMPShFLRfAYVU8TjKCjLFBERdV+GL8Qmr4QbwCkQGAqg2y6iQBokQlCxEI9hXiknVSEiIiIiIiIiIiIiIiIiIiIiIiIiIiIiIiIiIiIiIiIiIiIiIiIiIiIiIiIiIiIiIiIiIiIiIiIiIiIiIiIiIiIiIiIiIiIiIiIiIiIiIiIiIiIiIiIiIiIiIiIiIiIiIiIiIiIiIiIiIiIiIiIiIiIiIiIiIiIiIiIiIiIiIiIiIiIiIiIiIiIiIiIiIiIiIiIiIiIiIiIiIiIiIiIiIiIiIiIiIiIiIiIiIiIiIiIiIiIiIiIiIiIiIiIiIiIiIiIiIiIiIiIiIiIiIiIiIiIiIiIiIiIiIiIiIiIiIiIiIiIiIiIiIiIiIiIiIiIiIiIiIiIiIiIiIiIiIiIiIiIiIiIiIiIiIiIiIiIiIiIiIiIiIiIiIiIiIiIiIiIiIiIiIiIiIiIiIiIiIiIiIiIiIiIiIiIiIiIiIiIiIiIiIiIiIiIiIiIy1/8HVTm4tgHHbRYAAAAASUVORK5CYII=;" parent="1" vertex="1">
          <mxGeometry x="494" y="-610" width="242" height="121" as="geometry" />
        </mxCell>
        <mxCell id="HX6_WD2VTj27ss0LEgF8-7" value="" style="strokeWidth=2;html=1;shape=mxgraph.flowchart.database;whiteSpace=wrap;" parent="1" vertex="1">
          <mxGeometry x="970" y="-530" width="100" height="100" as="geometry" />
        </mxCell>
        <mxCell id="HX6_WD2VTj27ss0LEgF8-9" style="edgeStyle=orthogonalEdgeStyle;rounded=0;orthogonalLoop=1;jettySize=auto;html=1;" parent="1" source="HX6_WD2VTj27ss0LEgF8-8" target="HX6_WD2VTj27ss0LEgF8-6" edge="1">
          <mxGeometry relative="1" as="geometry" />
        </mxCell>
        <mxCell id="HX6_WD2VTj27ss0LEgF8-8" value="" style="strokeWidth=2;html=1;shape=mxgraph.flowchart.database;whiteSpace=wrap;" parent="1" vertex="1">
          <mxGeometry x="140" y="-530" width="100" height="100" as="geometry" />
        </mxCell>
        <mxCell id="HX6_WD2VTj27ss0LEgF8-10" style="edgeStyle=orthogonalEdgeStyle;rounded=0;orthogonalLoop=1;jettySize=auto;html=1;entryX=0;entryY=0.5;entryDx=0;entryDy=0;entryPerimeter=0;" parent="1" source="HX6_WD2VTj27ss0LEgF8-6" target="HX6_WD2VTj27ss0LEgF8-7" edge="1">
          <mxGeometry relative="1" as="geometry" />
        </mxCell>
      </root>
    </mxGraphModel>
  </diagram>
  <diagram id="7EQ175vIZiVRwltl_3Rx" name="lld">
    <mxGraphModel dx="1050" dy="621" grid="1" gridSize="10" guides="1" tooltips="1" connect="1" arrows="1" fold="1" page="1" pageScale="1" pageWidth="1169" pageHeight="827" math="0" shadow="0">
      <root>
        <mxCell id="0" />
        <mxCell id="1" parent="0" />
        <mxCell id="b_MoUG7u-HGy6iuQ1FGG-1" value="" style="rounded=0;whiteSpace=wrap;html=1;fillColor=none;strokeColor=#039bc6;dashed=1;" parent="1" vertex="1">
          <mxGeometry x="140" y="150" width="200" height="320" as="geometry" />
        </mxCell>
        <mxCell id="RCyklWpjuyxMJ6tR8Uhc-2" value="" style="rounded=0;whiteSpace=wrap;html=1;fillColor=none;strokeColor=#039bc6;dashed=1;" parent="1" vertex="1">
          <mxGeometry x="100" y="80" width="960" height="480" as="geometry" />
        </mxCell>
        <mxCell id="RCyklWpjuyxMJ6tR8Uhc-1" value="" style="image;sketch=0;aspect=fixed;html=1;points=[];align=center;fontSize=12;image=img/lib/mscae/Docker.svg;imageBorder=none;perimeterSpacing=0;" parent="1" vertex="1">
          <mxGeometry x="103" y="80" width="68.3" height="56" as="geometry" />
        </mxCell>
        <mxCell id="PIpR4Q_HlKM8lbTGAVgP-1" value="" style="shape=image;aspect=fixed;image=data:image/png,iVBORw0KGgoAAAANSUhEUgAAAIAAAACACAYAAADDPmHLAAAABGdBTUEAALGPC/xhBQAAACBjSFJNAAB6JgAAgIQAAPoAAACA6AAAdTAAAOpgAAA6mAAAF3CculE8AAAABmJLR0QA/wD/AP+gvaeTAAAACXBIWXMAADsOAAA7DgHMtqGDAAAAB3RJTUUH5AYMCjAFJiz+hgAANs1JREFUeNrtnXl8HNWV779VvalbvWmXLdmWZLDwincwi8HsWwIhJGSAED7MCzBZIExe8vJCJpNHEj4J7yXBxIFgJpkwgYQxS0IwxGAWQ8BgsLzhfZNlW4u1t1q9d9V9f5yqtmy8yWoZJ/D7fNqSXF23bt177tnuOefCJ/gEn+ATfIKPKbSPugN/x9AAF+C2fjoAHTABA0hbn8xH3dGjvcTHDTr7J85h/Z8JZAd8zIPucQNFQAUwEqgCxlmfcqDAalOz7s0AcaAFWA9sB3YDe4EOIPFRD4KNj4IANMALlCKDVwaEgQDgQwY7A8SsTy/QA3RbP/uAJKCO8XleYAQwBhgLTEQmrghwWv0xgBTQBTQBO5DJ6wJGA5cC06z+Bqw+DmbsDIQgOhGC+DPwvvWc+EcwBwdMxolCAKgHzgKuBE5FJsGHTIR+iHvslZkG+hECaAL+BqwFdgKtQIQDCUIHqq1nXQ9MRwjOO4h3tp/rweIUTqeTQCBAOBymqKiIcDhMMBiksLAQl8uFw+HAMAxSqRTRaJSenh66u7vp6uoiEomQSqUGvlcnsBz4LfCO9fcJx4kggBLgfOA2YBay2jVN0/D5fASDQQKBAIWFhbjdbnRdxzRNUqkUiUSCWCxGLBYjHo8PHECsyekGGoGXgGXAVoQdfw64FagDXJqmUVhYSGlpKWVlZRQXF+P3+/F4PCilSKVSxONxIpFIbtIikQjZbJaSkhJqamoYP348Z599NtOnT6esrIxAIIDX68XpdOJwONC0/UNpmmaOEGKxGF1dXWzcuJGXX36Z1atXs2PHDnp7e1FKgXCzBuABYClCzP8QBOAGzgO+C8wBPC6Xi6qqKiZMmMCcOXM455xzGDlyJIFAAI/Hg9PpRNc1TFORyWRIp9MkEgl6e3vZvXs3K1asYPPmzezatYvW1la6u7vJZDIgqz8O7EFkcS2gB4NBxo8fz9y5c7nyyiupqakhHA5TUFCQexbKmjCL6GKxGN3d3WzevJmmpibmzZtHbW0tgUAAXT+QSRmmSSZrkskaGKatNmg4HToup47L6UA/iDAikQibNm3iiSeeYOnSpTQ2NpLNZm1CWAr8GFiJiI2/WwIoBu4E7gLCBQUFTJ06lZtuuokrrriCkSNH4vF4DnmjOkqnspkMkb4+2traeO+993jppZdYv349TU1N9Pf3AxAKhbjgggv4yle+wqxZswgGg7kVqoBs1iRjyKRpgK7rMmkO/YCVfDAyWYNtzZ00tfXQ3NVHY2s37T39JDNZslkThULTNFwOB36vm1HlYU6tKqWqLMiI4iBl4UIKC9wAmKbB3r3NPPHEEzz22GNs27YNU4ioFbgfEQ19wzQ/OQwHAYwCfgZcq2mao76+nm984xt8/vOfp6ioCADDVPT2J+jo7aejN0Z3NE5XX5xILIlhmLicDkL+Aor8XoK+AooCXsJ+L6HCAvxeNy6nI/ewbDZLV1cXa9eu5cknn6S5uZmvf/3rXHTRRRQUFADQn0jT2tVHU3sv25s72ba3k55ogqwhq9bp0An4PIwqC1E3soQRJQEqiwOUhQopLPBg00TWMFm+YRePL13Nup2tJFIZ4SJoBwyksv7V0NB1DbfTQbCwgNHlYS6YNpYZ46oZXRHG43KilGLXrl384he/4A9/+ANdXV0g4u0p4H8jXO3vhgCqgEeAK10uF5/+9Ke57777GDduHADReIrNezpYtmYH72/eQ2ckTjyVJmuYmEodqMZpoGsaDl3H7XLg87gI+73UVBYxq76aupElVJUGKQ74cgRhGAbJZBKfzwdodET6WbFxN4vf3cSOlm6i8RQZw0B9yH5Q1iP3T1jA56G6LMTcKXXMrK+mprIot3qjiRSvr97BH15ZzfaWLpRSR+QcAEopTAUOXaPI72X2+FF89tzJTKipoMDtJJvNsnTpUu655x7WrFmDEgXhdeCrwOa/BwIIA78EbnK73Xz5y1/mRz/6EeFwmHTWoGHLXn6/dBUf7GwjlkqDAk3T0I6hB0pGEJtGHLqG1+OiJOhj/JhyLp9dz1kTa3A6REbHUxmWrdnB719exc7WLjJZE03jqJN08IQpBbquEfB5mFRTybXnTmL6uCpChcJZWrv6+N1LDfz1vS30J1IHyPtjaTvg83D+1LF88eLpjB1ZjKZpbN++nW9961s8//zzGIYBYiH8D2BjHucqB8fQm8i181XgLofD4bj11lu5//77CYVC9PYn+M2L7/PLP73NzpZusqaJrmnHPPkgVKpZ99iDnDFMevuT7Gnv5ZSqUqaOHYmmabR2R3nw2bf47V9Xsq9HdAL73sFg4D2ptMHu9l7eWLeTtTtaCfu9VBQFKAp4OXP8aEaVhdm6p5NILHlMz7HbTmcMtuzt4J0NTQS8HmoqiigvK+Wiiy6is7OTDz74ANM0RwGTgTcRMzivyBcBnAE8CAQvvPBCFixYQHFxMZ2RGD99chl/fmsD6UwWXdfyxnI0wKnrXD9vKv98xSycDp3G1m7u/f0rvLFmJ4ZSx7wij/osi3uYpqK5s4831zXS0tlH7YhiioM+TqkqYUrdCHa2dLGvJ3rMxGa3G4kneXfTbqKJNBNrKigOBznvvPPo6Ohg7dq1KKXGII6sV8izFzEfBOAHfgrMrqqq4pFHHqG+vp5oIsXPn3qTl97fNmj2eywwleKsiWP45ufnUljgZm9HhHv/6xVWbW3JK6EdDE3TyGRNtu7tYOWWvVQUB6guC1FRFGBGfTVN+3rY0x45Zu5mt5k1FBub2mjrjjL1lJEUhQKcddZZNDY2snHjRhDHGYi/41i9oEdFPgjgLOB7mqZ5brvtNr70pS8B8PQbH/CHV1fnr6cDYCrFiOIA99x0IdVlISKxJP/3yTdYvrHJ0sqHFzZBd0XjvLuxCY/LxbhRpRQHfEw/tYrd7b3s3tczKKK3v7qjpYv2nn5mjqumKBxk1qxZLF++nObmZh1xbL0KtOXrXYZKAG7E0XNmbW0tDzzwAKWlpWxv7uKnTy4jGk/lfeUDOHSdGy6cxqUz61EoFr2+jqfeWJf35xwNmqaRTGdZtbWZjGEyubaSooCX08eOYNveTpo7+47r/Xe2dhFLpZl12ihKS4qpqKjgL3/5C5lMJoDsWbyUr3fQh3h/DXAJwAUXXEBdXR2GafLc2xto7+kflsk3TUXdyBI+c+4kNA02NbXzxKurB3jiTiw0TSOVMXh86SoWvrCCZDrLyJIg37r+fE6tKhXzdtDvCM8v38TSldsAOOussxg/frx9+RxkDyUvGCoBnA5UBgIBbrzxRhwOB3s7Iry2Zke++vchOJ06V555GmWhQpLpLH94dTWdkdiwENuxQtMgkzV58rW1PPHKarKGySlVJdz9uXMpCfhsn/+g2oun0jy3fCPxVIbS0lIuv/xy+3I1siWdFwyFAJzAZYBzzJgxTJw4EYD1jW3DNiGmUlSVhrh4huhDm3e38/b6XQyfynfs0DRIZ7L818sNLG2QlTv7tFHcctlMnI7BS1pd02juiNAViQEwbdo0nE4nQBDhvHnBUAigCJgNUF9fT3FxMemswbK1O8lkh48dz6qvprzIT8Ywef6dTfTFU4PSuIcTmqYRTaR46LnlrG9sQ9c0Pn3WBM6eNGbwokDT6E+m6ekXq6+8vNzeP/EA4wfX2OExFAIotz7MmDEDp9NJb3+C7c1dwzIhSkHQ5+Gy2fW51bF8w66TYO0fCOlbH7967h16+5MEfB7++YrZlIUKByUKNGTzqbc/CUBhYaFNABrics9Pf4dwbzkQ8Pl8nHHGGQB098WJ9CeGhSUrpaguDTF2ZAkAH+xspSsS/0hl/+Gg6xoNW/eyaNlalFKMH1POZ+dOHrRjSilFIpUGyAWcWPDmra9DuLcccPv9fsrLywHojiZIpLPDwwGA+tFlBH0FJNNZXl21PbebdzIia5j8+a0NbNnTga5pXDVnPGMqiwYtCuwYhIO4R95GeCgEUAI47KgegN7+xLBNitft5OxJNWgadEZibGvuPGlk/6Ggaxpt3VF+v3QV6azByJIgnztvCk792Idc1zUCXombyGQyduAIiC8gP/0cwr0VAF6vNxfcEY2n7KCGvEIpRaiwIMf+93ZE6OlPnJTsfyA0Dd7ZuJv1O8Vxd+6UWqrKQsfEBZQiF1gCkEgk7OgnyGP84PESgI7ljLBDuQD64qlhcf0qBSWhQooCPkDcpan0CYmYGhI0TaM3mmDRG+vIWFzg0lnjjpFwFR6XE58VgxCJREin0yDBqrvz1cfjJQANCb5E1/WcnEpnssfZ3NGGQlEeLsTncZHJGqzZ3nLYVaTU/v32jwKmUhimwrDiDA2laNiyl8Y22ck9Z1INQZ/nqP1TgK/AleMAnZ2dNgdIA7vy1V/nEO49gfxXo7I4iNOh09ufYG9HJPdwibSR8CuP24nH5cTp0DFMk2Q6SyqdzUUXDRcU4qL2up0UB32UBH0EfB6JVFKQzho0tnYzrrqUUeVhRpWFWd/fdkROoBSE/d5cFNK2bdtsRTBGHkXA8RKAQqJYMQzDjlyhwO0algF2OXXGjiwGIJZM0xdPYiqFjkZZ2M+YijDjRpUxdexIRhQHcLkcGIZJS1eUt9c3snJLM3s7I8NCsUopvB4X006t4qozxzOptpJQYQEe1/5QcdNUueUS8HmYXFfJ+sa2ozVMRZEfr9tFMpGgoaHBvhJBwuHzguMlABPJ2CGZTOa001BhwbD4AFwOB6PKw4DoGRnDZPyYcs4/fSwXzziFEaVBvIcgvtNGl3P+1Dr2tPeycPEKljZsk8nIE5RSlIYKuePTZ3LZ7PpcH5RSZAzTWhgaDl3LhavpmoSYHW2YdF2jbkQxuq4R6eujqanJvtROHqOFhyICWgHi8TjxuGQ3hQoLcDi0PA8yuJ37tWGv28VXr57DuVNqKQr40KwB74un6OqL0Wv5IjwuB+VhP5XFAcZUFPGdf5qH0+HghXc35a1ffp+Huz93LpfOqkdDzNP1jftYs6OFbXs7iacyOHQNv9fN6WNHcsOFU/G4nKQzR1ZgFeD1uJl6iuz5tLe309HRYV9uIo/pZEMhgHbA6O/vd/T29gJQHPTidjpIpvOpDCqcTh2PS7o6pqKIMZVFaEjwZ2NrNys27eaNtTtp7Y4SS4jnTNc1/AVuLp1Vzy2XzSTsL+DLV85mfWMbjW3dQ9YJFIrzptRx4bRT0IBV25p58Nm36YnGKQv58Ra4SKYzbG/uIpXJ0tuf5Przp6CcirgVFHs4LqCUoshfwKiyMAC7du0iEonIY/OcNDJUAkjF43Hf7t27mT59OmG/F6/HRSKVyauN7rASN0Bs62Q6y5rtLfz3srWs2d5CXyyFqRRup4MJNeWMKgtjmCatXVFeWrmFZDrDNz8/l+qyEFefPYEHn317SP2x9yWuOWciLqeD5s4I9z3xGoUFbn7xlU8xsjSEy6nT0tnHnb/8Cztbu3L5DFnDpKM3dkRzWSlFRXGAcEA8vitXrrRNwD4kSjhvGAoBdALRVCrle//997nmmmsIFRYQ9BXQ1RfPuyZg6xZdfXF+9eflLG3YRiyRzoVn6QgHOm9KHadWl1IU8LJuZxstnRGWb2hiR0sXp40uZ8a4agJez5B2ERUi+0dbeknD1mZ2tnYzZ8JoigI+CtxOMobJmh2tdPbJ1nhxwIfT6SCWSNHRGzvqu46rLsXncdHX18err75qX9qHiIC8YSgE0GV9KrZu3YphGPi9HiqK/Oxs7c6rkWiaKudi3tTUzosrNpPJGgfE/2maRm9/ksa2bgq9biqLA4woDrC3vZfuaIK31zdx2uhyKor8FAe9ROLJ41ZY7Zh+n8eNqRQf7GxDKVi5pZlvPfICc6fUsrO1m9dX7yCezOBw6IwqD6MBsWSGvnjysMRn2//nTqkFoKWlhZ07d9qXd5JHCwCGRgB9SNrShL179xKLxQgGg0yuG8G7m/LmqAI0sqbk8oGYhLp26Dj/dMbglYbt9PYn6YrE6e1P8Nb6XXT3xdm8ux3DNAn4PIwsDbGztWcIRKpw6HoukTWaENe8YZqs2tbMqm3NByS+uJ0OxlWXyqDFk/Qn0od9tFKKspCfuhHi9t68eTOdnTmz/y0s8ztfGAoBJBB5dKmdqRsMBhlXXYrL4chfjJ4GhmGSzgoBuF1OdF1HYXxoEDUNkpksb32wixWbdmOYCtM00TSNfT39xJMZscNrK3l7/a4hdSqdMcgaBh6Xk+KAN9eXnHJp/VAKCtxOKor8AET6kyTSh9eRlFLUjZR8A8MwWLJkie0B7CaPwaA2hhoT+AGQ7enpobm5GYDK4gBejytvrlgNWVkDEzkdRwj9liwi2Y61c/Y0DXr6E/RbK3VMRdGgduU+9AwN+hMpEinZ+h47suQI4egKj9tFobWrF4klyR4hYsrjcjJ3Si0uh05bWxvLli2zLzUhtRDyiqESwG4gGo1GeecdUU7LQoWE/QWoPG4LKSVcANjP/gfRvIZGLJEiEhPuWRL0HZBhPFhoCCvv6RdzfHR5GI/70MxUISLAYz0vlkwfljualmNpxrhqALZs2cKePbnk4PcYhtSwoRJAK9CplOK9997DMAxC/gJGlYfzuhmjUDkdQNePPafQhi0auqMSX+f3efC4ncfdR03TiMZTrG/cB0BVWYiSgO+wG1QOh5bjEDZnOuR7KsWpVaWUF/lRymTJkiW2k60feIYPF68aMoZKAN3ANoCdO3fS19eHx+Vk5rhq8p2gk9PYj3PSslmTlk7xoPo8LmtFHj+VprOG6BmGSVmokCljRxy2OWWSI7bDKbAgeykXzTgFt9NBS0srixcvti/tAoYl82WoBJBActhpaWmhvb0dgHGjSg/LEo+rk5rk7AMYSg06zh5Ej+iwQqzdTgcup2NIQkrTNLbt7aSzL47L6eDiGace9p3TWSPHwbwe1yG9kKZSjCgJMKt+FADr1q1j165d9uW3kfJyecdQCQCEMpN2lQ6AqpIQocKC45qog6GQmANbZmezBoahBm3CmUoRT4qb2KHrOBxDe3XdSkVfvV2U3/Fjyqk+RLSPhsRJxJMSzRPweQ79bAVTx46kNFxIOp1m0aJFJBIJkN2/PzIM7B/yQwC7gK50Os0rr7wCQHHQx8iSIHnZE1IKl0OqhACkMtlcbZ/BIjc5Wn78VMl0hiXvbSGVyVIe9nO5FbJ+ADSNZCabs0ACPg9up+MA/UMpCBYWcNWc8eiaRmNjY24skeogw5b4mA8CaMOKUNm4cSPRaBS/183s00blTQ9wOx14PbLVKlr04ClL07Tcdq1pquNq40ODp2ls3NUunk/g/NPrKAsfGP9vx/e3dkcB8HvdFLidDFQYTKU4tbqU+lFlALz22mu0tLRgfekFhkH7z71DHtroA14D2bVqa5NAhyl1I/KiB8jWqCtHAH2x1HE5mRy6TmlIYgozWYNM1hgyF9A0ja6+GM+9tQFTKcZUFnPJzHEf+l4ma9BkhYQVetziJxlw3eNycPnsegoL3HR2dvK73/3ODq7dCywa8iAeAfkgABCPYLKjoyMXuVJdHiLs9w5ZD7D33b0WMTV3Ro4r49bt3B9UEkumSWay5EMQKODtDU3sae/FoWtcecZplByUBWSaivZeKVfjdjmFmNX+a6PLw8y1fP/vv/8+69evt29dzjA4fwYiXwSwHehMp9MsWbIEpUxKQ4XUjSjOgx6g8Be4cTudZA2TvZ2RQdvvSil8BS4qiwMA9EQTJNOZvOQV6JpGa1cff35rA0opxo4s4dKZ4ziAuDQhOtNUuJ06BW5njgPousYF006hNFRIPB7nN7/5jW379wG/QYJAhw35IoBWYAvA+vXr6enpxet2MXdK3RHdtscKl9OBZm28RPoHUydaoBSUBAspCYoI2NPee9SonMHAVIpXVm2naV8vDofONedMpKLIfwAXyGQNiWPUdStbWOWyna+aI7me69at4/XXX7dvWQWsyFsnD4N8EUA/sBhED2hsFK41YUw5fq97yF7BnF9fFyfOYFm3QlZm0FdAOmOwYvOevIat6ZpGS2cfi5atwzQVtSOKufrsCYd0+Ej8gv27xvlT66gqDZHJpHnsscfo7u4Gyfx5jBNQKTRfBADiq+7r6uripZdk06qqNMSI4uAQ9QCNWDJNJmvgcjioHVkyKNatAJ/HzYXTx6LrGh2RGFv2tOc9qF2heH3NdrY1d+ZyAWsqinIFMGUXU8MwFNmsialgZEmQa61KJ+vXb+DZZ5+1m9uAaP/DjnwSwE6ssqbLli0jkUgQDng5c8LoIQ22ponMjsbFjq63tpuPFcpUjCoPM3WsBFhu3t1OZ28s73kCurXl/PjSVWSyBlWlIb5w4VRcDh002YDSNY1UJkssmcahaVw4/RRGlxeRzWZ47LHHbE9qBln9w+L5+1C/89hWB1LCjM2bN9Pc3IwGnDlh9CFDto8VmqbRE42zp70XgLqRJbLbeIxcRdc15k6ppTjoI5nO8uKKzaTyKP8P6Cvw9vom1mxvAcQvMG5UGW6nk9PHjgDsXcQEoyvCXDd3MpoG69Z9wB//+Ee7mY0Ms+l3wPjksS0D+CuQbGtr44033gCgdkQxlcWB4zLd7EHtT6Z5bfUOFFBdGmJW/ahj0itMpagsDnDlmacBklO4envLsGUVS1hagsdfWU0ilaE0VMh1c6dQUeRn/GhJoW/tipJIZvjUnPFUl4VIpVIsXLjQXv1Z4L/IYxm4oyGfBAAiu1ozmQzPPfccqVSK0lAhcyaOGVqrCt7fsof2nn7cLgefO38KRYFj8DEomDmuWnz0puLllVulgMUwpolpmsbq7S2strjAGeNHcdWc8dYWL7y7aTejK8Jcc84kQOz+p556yr59LfD4sHXuEMg3ATQDb4CYNM3NzeiaxnlTavEd5P0aVCd1jd3tvby4QopmT6qt4PPnn26Fhh0aSkGg0MNVc8bj0HX2dkZ4ddX2YcleHghNkzT5p95YRzKdpaIowM2XzMDjctLW3cd7m3Zzw4VTKQn6iEaj/OIXv7A1/yTwayTc/oQh3wSQAf4EpJqbm1m6dCkgIVOjy8OoIZheWcPkT39bz9a9nTh0nX+68HQumzXOygz68PdNpaipKGKc5V9ftbWZ9p7+YU0SzQ2qptGwtZl3NjShaVi+f3hjXSPVZSHmTTsFgKVLl7JkyRL7thVI0McJRb6KRQ9EArjGNM3iVCrFZz/7WYJ+H33xFCu37D3uRu2iyvt6+jlz/GjCfi/TT60iGk/R2NYjvv0Bk6trGp+aM4FzJtfQn0jzq+fekaziE0AAmgapdJbmzghnTRyD3+shlkzz8sptfO68KVSVhmhpaeFrX/uanfPXC3wTibEcCJ39h1Yp8lgj2MZwEEA/UtP2jFgsxuWXX05lZSVej4vXVu8YUtaQpmns7eiltz/J6WNHEPZ7OWP8aEaWBGnriRKNp0hnDUxTEQ54+do1Z1EaKmR7SyePL11FKpM9YVVFNE2jMxIjlsxwxvjR+DwuTj9lBFUlIZRSPPTQQzzxxBO2HvMq4vYNIsfUTQLmAbcgZfi/AExAFO19iLKYFwwHASiEC1wXi8XcoVCIiy++mIDPw+bdHexs6R7SJCil2NHSTVmokEm1lTgdOqeOKuOCaadIJJLLSaHXzfjR5Vx55mm4XU6WNmzjtTU7xJtI/iuXH76vYnmECguYVFuBx+VE0zRWrFjB3XffTTQatb/qAz4L3A58GZn4a5Ey/KdYn3Ot74SRCKG8nEg6HAQAwgUuAEZFo1E+85nPEA4F8RW4WLZmJ9njDOgAQNM4d3INX7p0Jr4CN/F4nHQqRShQyNiRJZw/dSyXzarn3Cm1+L0esobJrrYe6iqLKQkWEk9l6E8MTxHrQ3SV6rIQ1eUhJteOwOnQyWazPPzww7zxxhsDiz4FkZpLRU6ns9Dv97sqKiq0U089lcmTJ1NTU0MmkyEajXqQMxD3IQdPDr2Pw/j+twEPeTwex8KFC7n55puJxJJ88+HFrNrafFxl3ZVSzDptFD/40sVUFgeIRCJ8//vfZ9euXdx6661MmTKF8vJyvF7vh454A1Ekd7R0seBPy3lnY15T7D4EXdO4ZNY4vnL1HEYUBw4guM7OTlatWsWbb75JS0sLhmHgcrkoKyvjtNNOo76+noqKCoqKivB6JUG0oaGBG2+80Y4TfBcp0zvkMwaHkwBOAV4Gas877zz+8pe/EAwGeen9rfz7714edDk5Uykmjqng3lsvobaymFgsxg9/+EN+9rOfkc1m8Xg8VFZWUlNTw4QJE7jllluYPXs2INnEsWSasL8Ah67T2hXlnt8sYc2OlmGxCkxTMaO+mp/edgXFAS/prMHufb309ic4bXR5rtbBfhw6VzwXwaZJmbibb76ZJ598EiRJ5DzykCg6XCIARLOtAM7p7u5m+vTp1NfXUxLysWZ7C61dx360iqkUNZVFfP/mixhXXUYqleKBBx7gJz/5Sa50mmEYRCIRmpqacLvd3HLLLdaZRUkefPZtFi5eQSyZYWJNBWG/l+KgjzfX7iRjDEEcHQYet5OvXj2HSbWVxJJpfv2Xd3ngmb/xwrub2by7XSKSlcIwFJmsQSpjkEhniMYlc7hpXy8fNLaxp72XiuIALqeDSCTCQw89xN69e0Eys38LRIfW06HlBh513oAngVui0WjlggULmDdvHkWBADddPJ3NuztIZrJHHXxTKcrDfr51/XlMrKnAMAx+97vf8eMf/9jOmT8A9fX1zJ8/n9GjR5NIZXj0hRU8+7cPMEyT3/z1PSqK/Vx15ngmjqmgqjTEtr2daHlMYjCVojjgY1JNJQCrtzWzaNm6nAXy5tpG3t24m4DPg9/rocDllFgHwySZyRJLpFHAjHFV3H7Vmfg8LgzDYNGiRaxevdp+zEYkM3vIyLcj6GDkNjaWL1/Oiy++CMAZp43m3Cm1R3XlKqUIeD185eo5zJkwBqUUzz77LPfccw+x2P4ce03TCIVCzJs3j//4j/9g5syZGKbiz29v4Nk311tHzenEkxleWbmNrCFZwqPLw/k3rK3iEYUWm9/W3EUqnZWEEMSrmTVMuvviNLX1sHlPOxt37WPT7nZau6KUF/n56jVz+PebL6JuZDHpdJrHH3+c733ve/bZyd3AQ+QpS3g4OQCIqfIfwLWxWKz6Zz/7GXPnzmXEiBH88+Wz2NS0jz0dkUPKYaUkEuimi6ZxxRmymbNs2TLuvvtuurq6CIfDVFZWMmbMGKZNm8ZVV13FpEmTCIUkNv+11dt5dPEK0tn9tr+mQYEVXKppGm5X/l9fAU6HI6fkmqachJrOGjkzFIQQ5EBMN0UBORBz3tSxnD2phiKrMkhbWxu/+tWvmD9/vm0yphF38Wv56u9wEwDIBtFC4AcNDQ36ggULuPfeezm1upR/+fQc7vvD68QOMsskGQQ+fdYEvnjJDJwOnXXr1nHnnXfi8Xj49re/zbXXXsuYMWMoKio64BziSCzJKw3b+PXz7x5wjp9pxQXcdNE0nA7digwejsKWyspgFub6mXMmUV0WZsOufUTjSUyr6FVpyEfdiBJGlYcoDRUSKizIJb/09/ezbNky7rvvPlasWGFHCCeAh4H7yJMPAE4MAZjA74BPm6Y589FHH+Wcc87h8ssv56IZp9LZF2fh8+8STaTRNQ2FnPd34fRT+crVcyhwO9mzZw933nknxcXFPP3004wbt7/catYw6Ykm2NcTZf2ufaJoNe0jPcA1bJqKypIA3/zcXCbVVlrThFVz4GjHVQ8efp9HAkGQJJlLZ43j0lnjjnhPJpOhubmN1atX8+ijj/Lqq68OFHPNwP9FjuU9aQpEDAZ7gP8D/L6joyP87W9/m6qqKqZMmcIX5p1OccDL40tX0dYdxVfgZt7Usdx6xSzCfi/d3d185zvfoaGhgWeeeYb6+noMU7GjuZONTftYtbWZLXs66IjEiMZTGIZpKXUSROrQNSbWVvD1z5ydy7sDchU88w5LB3A6HKTTadasWUMgECAUCuF2u9E0DcMwSKfT9PX10dnZSWNjI8uWLWP58uXs3r2bZDI3x3Ek9/JepDpY3tPDThQBgFS3eBD47vr165133HEHjzzyCJMnT+by2adx5vjRtPfG8Fv1fZwOnZ6eHn7wgx/w5JNPDjwxA1Mp1u1o4U9vbaC5s494cv8B1Lqm4dA0fF4XI0qCnH/6WK49dyJlYT/ZbJb29nYqKytRiBmWb9gFoTQNuru7ue2222hpaSEcDuP1euWQyGyWRCJBLBajv7+fRCJxcJX1KBIb8BDwPOJZHRacSALIAA8gDqJ/euedd7Qbb7yR++67j3nz5lEcLKTYCts2DIMNGzbwwx/+kKeffhrTNIlGozz44INMmDCBsrIyPjt3MhfNOJV9Pf00tnbT2NpNJJ7E43JSVRpi/OhySU4pLEDTNGKxGH/84x957733WLBgAWh6XpJXPzSgTp0xFWEAotEoHR0duc8RkEW8es3AaiQZ9F3y4Ok7an+H+wEHoQf4n0il8as/+OADxw033MAFF1zAddddx8iRI4nFYrz55pssWrSIPXv22JOUBlzPPfeclk6n+e53v8uUKVMI+wsJ+725nLpDIRaLsW7dOhYsWMBTTz3FJZdcgqZpwxYY4nY6cuXjIpGIneSRBNZj6bfIhCcQZ1kz4tdfa/3eTR4LQR4NJ5oAQJJIbrde9uZoNBp67rnnWLx4MS6XOD0GHIxgIivit8CXDcOYunjxYt5++23mzJnDNddcQ319PeXl5fj9fpxOp5yzk0jQ0dHBxo0beeaZZ1i+fDk9PZKbN5ybQEpJjf+QX8y4np4eW57vRrZ0OxDvq4FwxAx53No9HnwUBADiyvyfyF7BncBUwzCKDMOw02YTCIE8j+gNTcgW6E+A83t6egpefPFFlixZgtfrJRAI4PP5cLvdmKZJPB4nGo3S39+fq2RutaspOVCA4YgMtRNZbV9/V1eX7a2MIp67YU/0GCw+KgIAYeuLkVDyOmAqUIvUw/8AK8CU/exwLXA98GngS8AE0zRLY7GYe6BX8CAYiNix2/qsaZouMfy0/B80raCwwJ3LZG5tbbWVuxQf8Uo/HD5KArDRjxRAOJYiCH1I1OyfkCNUpyBn6Y5CAiXcyEKMIcGVK4E3ga3A2UiomtSw08nVH84XFIpgoQev24VpGGzalKtMnuYEyvXB4GQggONBDElG3QI8Zb2Hi/17G1lEvg60rTKAMgwjp4k5tPyrgmG/F5fTQSIRZ+vWrfZ/pximEi9Dxd8rARyMLEdnsRnAzGazKNNEc5IrPJVPlAYLcehidg4o8drPScoBhns38GRCFjCyWavGkKbjK3Dn9YQTl8NB7Qg52b2/v9+u8Q+iBJ6UOsDHiQDSQDabzWKaJrqm4SvwDLnRgXC7HNRUytlGPT09A335eTvkKd/4OBFACsim02myWanxW1hw9LN7jhVKKQrcrtxWbldXl+0EMoEdH/XLHw4fNwLIpFKpnKMpVFiQt8YVUFjgIugTrtLe3m4/J4lVTfVkxMeJANJAOpVK5cKx/T533jyDdq0/n0ecQNu3b7d9ADEkjPukxMeJAFJAPJlM2qFVeN0uHHnzCCqK/F4KPC5SqVSuairiiMpL/N5w4ONEAEmgP5VK5ZSzQq87r97AiiI/LodOLBYbWOe3hZPQBWzj40YALclkkv5+2V73F0jgRj7cQS6Hg/pRUgSit7eXrq7cot9KHs/5yzc+TgSQBj5IpVK0trYCEPBZZVvzUMyy0Otm/BghgLa2NqyzFFPAUoYhqzdf+DgRAMCmdDptrFsn2w5BX4GUsRtio3LQUyEjrEKUW7ZsscVMG1Lv76TFx40AdgH9GzduxDQMgoVyOmc+AoMm1VYSDnhJJpO88MILtgWwHtEBTlp83AigCWjZtm0bPb29FLidXDZ73JD2BJRSFAW8XHP2RHRNY9euXbz77rsg7H8ReY7izTc+bgTQDry8fft2Vq5cCcDM+lHUVBYdV+VQhUQYXTJzHBNqKgB48cUXbR1jM8NwzFu+8XEjAANYHI1G4wsXLiSZTFJR5OeLF08f9CFSdpbPeafX8T+unI3TobN582YefvhhTNPMIOXeTloHkI3hzA4+WZEArti3b1/F7NmzGTt2LNXlYbr6YmzZ05E7a/BQUEjlUaUk4ePqsydy17XnUBL0EYlEuOeee+xiz28D93ASm382Po4E0A/4E4nERY2Njdpll11GcVGY08eOJJXJsqcjQiKVwVQy0UopqW6mSbhXdVmI86fW8Y3rzuVTcyZQ6HUTiUS47777ePTRRzFNswX4OpIYe9LjxBTLOflQByzWNG38zTffzM9//nOKi4vJZA027NrHkve2sGtfD8l0FqdDJ1hYQG1lEWeOH03NiGKKA14cuo5pmmzZsoUf/ehHLFq0iGw22wv8L+BRTmLb/xMIbgJiDodDXX/99Wrr1q3KNE2llFKmqVQynVX9iZSKp9IqaxhqIJLJpNqyZYu6//77VW1trdI0TSHy/iv840RZ/cPDC/wUSGmapurr69WCBQvUxo0bVW9vr8pk0so0TZXNZlU8Hlf79u1Ta9asUU8++aS64YYbVFVVldJ1XSGhZu8hNXv+7pTqj6sIsOFHWPZXgSKHw0FZWRljxoyhrq6OkpISkskkTU1NtLS0sG/fPnp7e+3t5BRyVM5TSPp760f9Mp/g+OACrgBeQdKyTPZX5Rz4MZBUrs3As4gIqeTvfBEN7LwDKEFWhReJsQfxZNl72nkrTHASIgBMBC5HKnWGEXmeQGL61gJvYR2UyREOc5px+wMAOmgV7M9ZUMg4tqDYBxgNC+864L5Zt/+SNBmcOAtAVQEjgEKE23RosEdH9Sng/Ue+ccDzJrc+xQcjPl9kPSuuxOmlVj1yF0fCQAKYgOTgVSPJm/YpD2nrhV+zrq/mowtx1jgx2rXT+ujsz+M7alz/jNsXIMG/WhjJXroNGIOMJwgxtQA/V4bnEU1P07DwTuve+aDhQjEbEUnnIQvSZfWhD1gD/ApJqYs1WJM78475nDMzwd/e934H+AZybsNtQKbhKAQwUGnxAfUIW2tEMmreQFheCLgD+DNwHSeW7bmQkqn/YvXvRCCLcL44g0rqMAAtCPw/4GfIYlqJ7Ak8g6S8hQGf5khh0/KM2+cDeFF8DRnj661nL0E8is8jiaXnA08gymuRdR8A3XEvyDxVAGUc4xwdbLJoCJu6A6E2HREFpyAVPq4GfoxscZ6oQMcypJDyKcCnEII86TDjjvn2fF4J3IzoE18F7QVQSVAaSvOhMQZLYWxYeJc1+coB2peR+j8m8EvgF0CL4VAZh6E5kYn9uvX5F4Tavj3j9vkpgJKS4+v3oWxWhVC/wX72txb4FjAZGAt8Brj/BI2tjugkJ4r9Hx+kZwXI6nUBSxX8CVR2gByOIlvEAMz88nzrNm0m8F1ksf0c+B6QGsC+szNun9+s4N81mZt/Q0TMUqzj+o4Xg3FaNCHyvw44HZmYgazRb12rRmrc9yCiZC+H1xn8wDigCpngduT0MTuPfhRQYw2MhsjTcVa/e/iw6VViXS9HWPdO6+Oy7k0iufqm1f9RCHHttq7VAqchcnr1gHYd1nuNRdhszHq3Rg7M+PEgihtAl47KmurwrgG5pDyg3Y6s8AZEfKQOlt0Nj9yFtdp/jVgtsxDH02tKHf+ew2AIwOYMcKB80YHZwP9GSpoXDri2F6kTuJAPR8bWIizvcmsSQAjlXeCfrN+fQJRTvzUJP0c4khM5Ws0eJQdwIfB9YJrVnoEQ0oOIo+Y/EU72BUS+uq3BPhO4ESGanyJE/Fvgn622g9bvX0P0I2U9vwOp2vUg0GeNSBLFHms8piu0ck1T7ePvfpRNv/jyYYZVGwVcZP3xjIJ9R/EmtVnvMgvJjq5G4g6PC4PxXBUj5hGI/LdX/6WIknMFsAnREf4VeBpZLT8C5lu/2wgiMu4LVuf/HSGg5xEuELMmehVSPsVWxDYgpthbiBPGxqcQZelMqw8LrPY3I6Lr28BIhJDsfpsIZyhHStv/3OrjGsTUA1GM/w9CGHGkWtcXrL/TVr/vAZzrHvseKFJI+nocmIMQx2RfIu4aqLAdhDqrD93ASxqw8jCa+wCusBLxSZQhHOu4cawcwAd8EbGTW5H8fJBVfD/CSn9rDbS90n+NHHrwKCIXVyOaMcB45ESMvcCt7JeLLoSDxJCVdidygsZriJi4FwmycA6YyDqEk1QAv7cm3N6H9yNm0b9Z92TZr0fYlUhcyApvBu5GdvFsG/8qROHaYE38Fuv/F1t9eho53OG/M4moHfv3EqLEfc1673NRPAv8cebt89eaGjGHgnTMfk1GIqJjL8d+YFQ7UkAqbM3JX46XAA7FATzAWchqOhsx+34L/BBZlQvZf7bNFQhX2GJdH8jmDeA5hI07Ec+ZXc3JjyhMaWsSbGQQyrYnyTxo0uzfM+zXKy5FCGoLsiIHBmH0I2x6zYD2bCirPc3qy7eAd6yBTSDc4KvWGN0/YPJtLEeOdy0HPge5FZqw+nE7slKLEWL4q4L/1BTTDIXmKMwljoatn7bJeSxIDRi34qEY5QcTgELY88NIgcJXEfZ+LcIW/xdSp8dAVuo11n3vYx0bexDSiP2bQJS50db/70Yovs5qbybCZY6Gg1/Vh5imIHL+UPXzO4G/DXi/g98XRFSsPujaaGR1dVj9HWO9g/2pZL/snYTlOW145C40SDmU+gOi39yMOGYUQiiLNI0LND1XNzh3kjzH7l/R2c+9Y0OxjQ4lApIIG7PZYDtSx2c5wv7tx/kRtgyiXB1O029BVlWJ9f0GRH7bsvU6RIF7DSmM+DbHvhL8iBIEIvsP5bBRHL2ufhsfDt4sR4g8hBDxodq2iTbIgOAaS4arGbfN70RXT6G0xcAlCCcZB/wEU7vSctd2W7cFOFCBPhKC1vcNhuiPOZQjKIrYoRvY7wo93L22u/hIlSxtdq0N+L5CRMMOREafgxyIdDGijP2EYyMCx4A2E8fw/cMhy4cnuMBqP4ZwlxQfXqF2oeG1HKIAhO3rn3H7/AQiDk2kCORExFp5CeGccWSBnIqYlofEGbc+YD+kFihCxOWGIbz3Ya2AgTtgh0OK/TFvdUf4XghZKUkOPBPXQFb7TcjqeAwx3+5GFMTD9evgPtjEN/Yw92jIahksYsiE7UMUwesP8fmC9fPHHGGjbID2vgrhol72a+87EAW0ELgBcB7OYsi6dFCaG3HEuRFOOqRjY4YSwBBhv3I16wiDPBuh1nYOrSekEKXyXxEfQAgpBWfDnnSND8cwRqx7QPSIokO0H0b2EgaLVkSpHYHsQZjs944e/DnWAlAuhHMaWKxfk8n/b+v6pYj5yMFEMOP2+SgUaGoOopNlgf9W0DOUBOehhC9lkCNhrkMG/1MIexu4SusRTRpEqbSzZGzCGzhwMUThOhj2xowLYZEDY+0NREm9EWGptyK7ZbY8dwGft/o3WOxGNsS+gBS13MgRTvWedtsDaJqma6KTdGmmiimnRsPDtr9fc4C6FNGD9iG6EErG4D8Rk3MqYirfhqmtnXHbfNWw8C5m3DYfpKzRNMR5VYJsFD12mLk/ZrVwqPFrf0MiYr5kdcyHWA5pZPL/DdGQ1yL17m05OQVh+68jK01DvIhzEZb+1wHPiCIWyAREo16PrPy9CMGsQDaL7kL8BJMRu9hAwrSuQrT8qYN8t4Q1GWdY7TyGOHa2I8TvRSa7GHg2vq8x5a+sK0LORogqXfsjJo0zbp+fBIKgLmG/WbkIW3nTAJOdaNyNmNizgKfR1YPA8hm3z+8HAmicjWwE1SBK+TeAbl075GxXIYSfPYQ4yVjj3t3wyF2HVAIHg37gO9Z91yLmY4dFAGXICnwDsbEH2tFnIM6bBMJmHdb304jj6JUB341bA3OmNTgvImLjX5GVk7QmPm0RyBcRvSKNiJ2fI/J1Kgf6FA5+30O9+0pkZ/SniKUyDyG+LCKDg4gYXJqKdKT8lXVBRISdh3DEhDXgHkSp7EIsnXsZsFc/4/b5YDqWoRs3WNfORSqrx6z3cyMiNop4Oe8DtU/TdN7/9Z3MvGM++8sRAMINf3+YOetFlO1uOFCmuqzPaotCjrVGfT/Clt+z/jatjtqevx9xoNsWZNXvtgYyZQ3MW8APkNV8sEm2A2HBbmQTaJtFJDut6ymEXT9vTcgaxDX8Y6tvlyGWRgPivbOJIIAQ7Jt82A9gYyfCUXZak9lv9Xeb9bwHgB0Oj88M10yOIqx5g0UovVb7W5F9/ntA/RdosYGbPa0NSxgx8zJ03WwB7TlEOY5bnwxi7vrY7yhzguYH3CNnXp7F1FIXXgSbNuG3nvs+QrwHfxqseXodiLQ2LMl7YIeD/Tt3aY5eG8+OvMH6/tGUKfv79jb1scBvDf6FiIfu3iG838D+HrI45Rlf/RWZdBrd4dCVUnb1UgNTywCq4dE7j/qQ6bc9CNa5VqB8iBPqSkRsjkfEjl0H+T4NHjSBo4V/HQp/1wGNA6Bz+OPVL0L0FBNxXa/4qDs7WMy44wGr1LnmRzyU5yJcrRrRC97tzxSw5be3D7rtfxQCuBTxsL3J/uPVvYjO8ENEgXwS2fQ56fP1joTpX3kQX08/iWChpYOoCJBpGBAk+nGDC9Eb7KjbrYhfoQnRDVKIrK75qDt6MuIfITlUIQpaHBEFBYgeEkU8b/8PsTjajvcB/8j4RxEB9rsUICafg/0ae3oojX6CT/APjf8PQIxFEUA3h3MAAAAldEVYdGRhdGU6Y3JlYXRlADIwMjAtMDYtMTJUMTA6NDg6MDUrMDA6MDD9f35mAAAAJXRFWHRkYXRlOm1vZGlmeQAyMDIwLTA2LTEyVDEwOjQ4OjA1KzAwOjAwjCLG2gAAACB0RVh0c29mdHdhcmUAaHR0cHM6Ly9pbWFnZW1hZ2ljay5vcme8zx2dAAAAGHRFWHRUaHVtYjo6RG9jdW1lbnQ6OlBhZ2VzADGn/7svAAAAGHRFWHRUaHVtYjo6SW1hZ2U6OkhlaWdodAA1MTKPjVOBAAAAF3RFWHRUaHVtYjo6SW1hZ2U6OldpZHRoADUxMhx8A9wAAAAZdEVYdFRodW1iOjpNaW1ldHlwZQBpbWFnZS9wbmc/slZOAAAAF3RFWHRUaHVtYjo6TVRpbWUAMTU5MTk1ODg4NR5BilEAAAATdEVYdFRodW1iOjpTaXplADQ4NDM2QkJIyry9AAAAXXRFWHRUaHVtYjo6VVJJAGZpbGU6Ly8uL3VwbG9hZHMvNTYvTnZ2Vm9RNS8yNDE1L3Bvc3RncmVzcWxfb3JpZ2luYWxfd29yZG1hcmtfbG9nb19pY29uXzE0NjM5Mi5wbmeXYX6TAAAAAElFTkSuQmCC;" parent="1" vertex="1">
          <mxGeometry x="171.3" y="164" width="128" height="128" as="geometry" />
        </mxCell>
        <mxCell id="b_MoUG7u-HGy6iuQ1FGG-3" style="edgeStyle=orthogonalEdgeStyle;rounded=0;orthogonalLoop=1;jettySize=auto;html=1;entryX=0.5;entryY=0;entryDx=0;entryDy=0;" parent="1" source="PIpR4Q_HlKM8lbTGAVgP-2" target="b_MoUG7u-HGy6iuQ1FGG-2" edge="1">
          <mxGeometry relative="1" as="geometry" />
        </mxCell>
        <mxCell id="PIpR4Q_HlKM8lbTGAVgP-2" value="" style="strokeWidth=2;html=1;shape=mxgraph.flowchart.database;whiteSpace=wrap;" parent="1" vertex="1">
          <mxGeometry x="185.3" y="314" width="100" height="100" as="geometry" />
        </mxCell>
        <mxCell id="Zr7tizGE0mZnI7TlOZvU-8" style="edgeStyle=orthogonalEdgeStyle;rounded=0;orthogonalLoop=1;jettySize=auto;html=1;exitX=1;exitY=0.5;exitDx=0;exitDy=0;entryX=0;entryY=0.5;entryDx=0;entryDy=0;" parent="1" source="3q12vl5ihhkgBvTzabu4-1" target="Zr7tizGE0mZnI7TlOZvU-4" edge="1">
          <mxGeometry relative="1" as="geometry" />
        </mxCell>
        <mxCell id="Zr7tizGE0mZnI7TlOZvU-13" value="Get from queue" style="edgeLabel;html=1;align=center;verticalAlign=middle;resizable=0;points=[];fontSize=18;" parent="Zr7tizGE0mZnI7TlOZvU-8" vertex="1" connectable="0">
          <mxGeometry x="0.4546" y="-5" relative="1" as="geometry">
            <mxPoint y="12" as="offset" />
          </mxGeometry>
        </mxCell>
        <mxCell id="3q12vl5ihhkgBvTzabu4-1" value="CDC queue" style="rounded=1;whiteSpace=wrap;html=1;fillColor=#ffe6cc;strokeColor=#d79b00;fontSize=19;fontColor=#CC6600;" parent="1" vertex="1">
          <mxGeometry x="430" y="334" width="350" height="68.3" as="geometry" />
        </mxCell>
        <mxCell id="3q12vl5ihhkgBvTzabu4-2" value="" style="shape=image;aspect=fixed;image=data:image/png,iVBORw0KGgoAAAANSUhEUgAAAgAAAAEACAYAAADFkM5nAAA97klEQVR42u3dd5wdVd0/8M+Z29v29N5I2RQIAQRDCQiIgIpAkKZIS5SOoKKoyw9sCCIgVaoPgpTQu0BCAoH0ummbvimbTbbdXuf8/giRkDtz95aZvXvD5/168Xp8Zu6cOTO5e+c7p3wPQERERERERERERERERERERERERERERERERERERERERERERERERERERERERERERERERERERERERERERERERERERERERERERERERERERERERERERERERERERERERERERERERERERERERERERERERERERERERERERERERERERERERERERERERERERERERERERERERERERERERERERERERERERERERERERERERERERERERERERERERERERERERERERET5EEYXKK+EDRKnQcE3IFGdZzFRCKxHCq+Ix7CtK26EvBLDIPA9qBgMAUc+RQBoBvAJ+uIDUQe1K+pNRESUD0MDAHklJgL4D4ARBhUZh8Qf8E/cLvY+YA0n62DFDvwVwDUALAYVuwQC54lH0GBGnYmIiAplWAAgr8QoAJ8DKDehnn8Qj+JWM26AvBKPA7jUhKJ3IolJ4gnsMKPeREREhVAMK0niPpjz8AeAX8lpGGN0ofIKHA9zHv4A0AcW/MmksomIiApiSAAgL0VfCHzLxHpaIHGh4aUK/MjEOgMCU+WVcJt6DiIiojwY0wKgYBRMGFD4FRK1JpQ62tQ6A04oGGryOYiIiHJmTAAguuAtV8BlQqnm11uFx/RzEBER5ci4MQBERERUMkonABDmTAMkIiL6OiqdAICIiIgMUzoBgGQLABERkVFKJwAwKRMgERHR11EpBQBERERkkNIJANgFQEREZJjSCQCIiIjIMKUTAHAaIBERkWFKJwAgIiIiw5ROAMAWACIiIsOUTgDAQYBERESGKZ0AgIiIiAxTSgEAWwCIiIgMUkoBABERERmkdAIAjgEgIiIyTOkEAJwFQEREZJjSCQCIiIjIMKUTALAFgIiIyDClEwAQERGRYUonAOAgQCIiIsOUTgDAPABERESGKaUAgIiIiAxSOgEAuwCIiIgMUzoBABERERmmdAIATgMkIiIyTOkEAERERGSY0gkA2AJARERkmNIJADgIkIiIyDClEwAQERGRYUopAGALABERkUFKKQAgIiIig5ROAMAxAERERIYpnQCAswCIiIgMUzoBABERERnGWuwKZI0tAERE1A09OXOm0x4KuYb37TGwLRhr/vZxx+0sdp2yUToBABERUZHV1dUpp5/93QsTieT54Ujk8FgsWhmJ+m2wAI27mgAAM959HU6HI+ZyuLa7HM7PFCH/etTEo5YVu+4HKp0AgIMADwryxZ8/IDfNP1eqKbsQkJBSlcIqhcOdhJpKQrF8+Z2MBqywO1UoNlUmEwkAEDZHXLV7WyxOz3bYndvg8DbA7vpQfPf2+mJfW1Hu56aZTsx57m25Z/1YmUpahLd6u+hxyPninL90u/sh3/nzZNkw60l0NPUCREqtGrjKgo5TxVWzgsWu21fqKaXAC9c/KzfOO1nGAk6hSlUCcdQM2awc9cPLxFEXd7sf8kwaGhocbeHA2+FI6LB4IuGwWm3JLy40ZbVaY3abbavH5b573KjaF4pdV91r2NxwdEt7x/3RWHSQqkq7ooi4RSgpoShhq8UScDnt748fNf5XQoiUWXVYWr+0NhSL3tPe3nHClm2NtkyflVIiEo06ItHoUABDAVz43uwP28t83geXp5bWTZs0LVHsewqUUgDAPAAlTy558Rj52I9+hlQCYr/tIotj9/+MAgyVwBH771dvGZSUPUbsUGoGvg2rr05ccO+uYl9vl1jxYZ2c+8SU/e5RlRz9recAjC921Q4k13/yElZ90Gvf/69sX3EMxp/5VwA/LXbdvuLlX/5Bznzgh8CX3zsBAM3rqqW/aTaA8mJXMRfBRPT2rTsaT8zwkd4Anp+/fOF3jxw/6aJi1/dADVsaahs2bZoTjkQsGT42PhiKngZgrNHnX7B8+dBYLPzMxm2NR6uqmnc5gVCwIhAK/rq/c/DPP1uy4HdHH3bEnV1w+zIqnUGAwpS6ls71HwyaNx2HlEmBb9t2q1g3a6Cc+6/p8vMnmtR7Tt4gX7jh28W+ZNO175qYtq1jx8BiV0tT69bqAzfJeKj7BSprZ56tu3P7irJi1y9XiXjs0Gw+t23nzguXras/qtj1PVBbu/+BTh7+AIBdLc21DQ0Nhv77LFi24M6dzdsamvbsKujhv79INOrY3rTjLx98Omvz58s+72/SbctK6TwAVfQzsjhZBysA838oBQabfo5SkYj07JLzxCPA2plD5awH30ndc/Ja+cLPhhf70k2jJp3p1x/tni17iXD6741W/YtMRvwZHiLGPAS6UlJVs7rHqqoi6A/cV+z67k9KKfa0tX4z2/qHkrGjjTjvkiVLKj6e98mGLTt23BxPJEx5Trb7OwbtaenYOH/poh+YUX42SicAEJgsp+Mww8rbiUvRNU1553XBOUqDlF37fVNTEGtnHqIueG2NfGba9GJfvhmkqqb3oIhsOlW6B9kdO/YSsdL5XTRYm79jopSy23yB6hvW/CAcCWcd0ArAW+g5VzSsGNYSbt+8u7VlqNnXF41FbTuad770+ZKFPzP7XFpK6YtuhYrn5PTC+3jkNPwAEnd1Sa0lzpLTcKs8F502YZE5RGCXRc596iH5+IVF73P7eus2z5VOainjujslIEvlQr5gESLrMCsai1qXrVp5YbHrvE8oHMxpfIiaShUUANTX1w/csbN5Zbvf3+nLoRACNZXVGDpwECaMHocjJxyOI8dPxGFjxmP0sBGoqaqGRen8EZtMpcSO5p0PzFu24DLTb+gBumdTob6RULFQTsPbADZAReYRnwICQMV+WxQA4yDRtf1cErejEpfIKzEPQLca8XyADgBL4cEr4h5EuuysFhswfQYw5Mj0fYkIkIgByTgQDwGhNqB9O2TLFojmtcDGeUDr1s7PoaYgF824WT55UUj85Jnbuu6WmksoSrd8ic5B96u+QFR/n4DojnXOQOb4DQlFQ1cBeKbY9QaAQDD4jRwP8eR7roUbNpTvbGpcFggFM3aZOB1ODBkwCIP79YfL6dL93Gjs7ZbY2bwLGxo3Y09ri+5nVVVFU3PzowuWLNhwxGFHzDLlZmootQAAAByQOAtAicXhGPbFf91fCI3ySpwrHsW8Ljlf/wlA7ak6Oys1t37ln751C7BoBjDvGWBHhtlvahJyyeu/l0/85L/i0ifndsm1FUGpRwTFJqy21RLQHDciXZUAmg09n6yrU0RdXbcZXNAR8E8svJTCrdmwYVJ9Q73mA91qscpkKpn2BFAhHPmeL9raPKfd31Ght18IgWEDB2PM8JGwWrN7dCqKgn69+6Bf7z7Y2bwLy9asRDii/W6VSCaV3f6Otz/55JNekydPDph8e/fWrytOQiVnAIB35PQuGsBodxd2fNUg4OQbgd8sAi5/FqgZov/ZeFjIbYvfPFi6ZLTe7kR3zZqpMTZBKEr3q2tz488B7WZz5ajzXzXqNLL+Bbt87qp/SPFyh5mXI3LoAgCAcCRiX7p6xRlm1ikboXDHz7W+3y6nM9mnR8/ZRp5rcf3S3zXtaR6nt99us+O4I4/G+FG1WT/8D9SnZy+cePSx6FldrfuZcDjkUu3KB0ZeWyYMAEhPJSR+3TWnMugZIAQw8Wzg1/OBw76v/7kd9ZX41tl/6pprK4ISGgSIbticLh6JNQghj5fAPRLyKUC8CIgXBcR14rx7zzLkot+oO0d9vs4vP37kKuzeUPDAtXxUVVTu0dsXi0WuLkad9ucPBr+ltb3cV16vGtjMtXr16uodu3b9Tm+/0+HEcUcejeqKqoLPZbfZcczEo9C7Rw/dzzS37D5y/opFUw27wAxKsQuAuorEKV1zHoOfAc4y4PLngMcvAhbP0D7lthU/lcAvS60/l7qGeCg5B8Ccvf+fscnl5Ku/vUB+eP8zItohAPO/gHoPywpf2WNSldPa/O1p/Wz+YOgYk6uV0ZqtW/uuXr2sRmuf1+1+OhKNfs+oc7VHgy9GY1HNFkGr1Ypjj/gGfB7jYjRFUXDUhEmYNe9TdAT8mp/p6Ag8BMD0zIxsAaBMehVeRDZM+AkUCnDJk0CfMdr7d2/04uFzL+2a6+tqpdQCkFvzdKmTM2da5dIZT+CLhz8AiCLegzKfR7O52R8M+JavXj0u1/KMEg2235TSSLxjt9lkucv3kGJQK9eqDatG7NrdfILe/gmjxhr68N/HYrHgyPGHwWLR7onsCHRULVy++EbDT3wABgCUSdc8ScwatWZ1AOffr3/aaMdBGQDkOuq765RSYGKStvcuR9O6rw5UM7nLJtM4C7fDpTkdWkqJWDx0UzFuEQD4g0HNrpaKsvKNQ4YM0Z2lIYSa080MBEIPaQ0mBIABffpiUD/zEvX5vD4cMlg/1UBHMHCzaSf/AgMAKj4zH1jDJwNDdGZ9Nq3uFqOdjZbroK+uI7PeeNAK7knPVCeK9zNcO7J2fpnXF9LaFwiFTs21PCM0Nja6OgIdg7T2ed2eF4EvFmzSlH0AsKxpmae5Zc8UrX1CCIwZPtL0ax0xZDjsNrvmvraO9t4LViw5wczzMwCgbsDkZ8DRl2hvb9/plL8Y0LfYV1+YUnqrFlltOsilL4ZR5EGbZV7vZ1rb2wP+XitWrOiibsAvtQb9V8Xi8bSbYrFY4HN4/gZA955Jac16OmVqj/htLB7XfAb2790HHnfeKQWyZrVYMLi/fitDIh67xczzMwCg4jO7yXrk8fr7hkw6rtiXbzilmz5VS2t2gjkUy4b0jSZ3AXQSYbtcHs1+MlVVkRCJ67vu5uwVDAc1VySsLC/fOWLEiN0Zr1Uks36m+UMdP9LbN2Jw16VsGTJgMITO30Z7IHCsmedmAEDFJ03OgdJjGODVnXaTa6axbiY9epJqd21V16hXd81ZYBarIz0dXJEDowmjal93u92a6Y+D4ejZuZZXCCml6Aj4a7X2ed3et4w6T/2m+t5t7e19tPb5PF5UlHXdis8elxu9a7R/n8KRsGvRskUn5lhk1hgAUPF1xaC1Sp3FJJPxAcW+fKN13zEABCk10swWv2Wkwlu2RGt7u799WH19vT3X8vK1av3ac7QW/xFCwO12/G8tD7XABYui4eSNKZ3lffv17pNjaYXr3aO37r6YmrrBrPMyAKBuoAueV17t7FtSSluxr/7rQmo96OTXLFhJxdM7lrNYMMZsLrfnca3t8URCiYvk5V1Vj0BIe/Gfcm9Z+5hhYxqMOk84HNbNI9C3Z+9cijJErxr9xECRcNi0tWuK/80j6ooWAN1uBrXL3m66TDfta9fsi/7atVaoBea9Nkd70+4n7Ta75h9JOBK+pKvq4Q/6NR92ZT7fR0aeJxAMaM6/c9gdXdr8v4/b5dLNN+APBWvmzp3ryrHIrDAAoOIzewwAAARbNTcLYQnlWFL3UsQpZMb4uj3/kz3TtsVDQhbYpJ1JNnkhpkyZkqyqqFyjta8jEJjQFbdm3aZ1R/kDAc0Aye503mPUeVavX31MOBrRzILbo6rwdL/56lmjmfgQqVRKWL2u88w4J1MB08FPqkDLFu19Vus6w06z/M1KbPz8AkTaxstwYBjiwX6Qcm8LQzRgk4o1Jl3lzRanZzvcVe+gxvucmFIXLfC0Gjp/q5ZSWvH2Hdekmtadp4Tb+slQa7mwOWKwu/2irNdKVA95XJzx29eNr9uBFel8MSD51h2D0LFtOsLtE2Q01B9StUJKCaujSbh8KyAtL5TC6o6yrk6Ru2enL7KTjAOv3vpDAM+Zcd5sx4R43I5nAdxx4PZwJGJfvmr5d8aPGf+2mffHHwxoZr7zebyRQ0fWfrL/NkWn20Rk0fwViUUv0ttXXVHd2eGm6VHZAxu2bNbcl0zGvw/gKaPPyQCAis/sLoAdq4BIu/Y+VV1eUNU/fWoYNn/+d3XHqsny8QsrENNvUBB7/xv+xdWeC7vn8dQ9p2xQeo38nbjgflN+/NPqu2mTE/Pve0beOuL7aNls2fcz+sWvpg9AjQSGAviu+uthCTH8m++hvP+V4uw/7iz87Fq/zfqtP/KVX/5Cbpx3k3z7Dz2QSmh9ZIwETgRwXeo3IyLKgPGvIx6+Ulz7jh8GkP+edrds3XYqYiGPtLn8Ss2Q68WFD87s9LgP/jQU29bfLeOhgVJN2kQiYpWATba82B8NazXXmpdzHv136sGzbhOKpRVSSlhsdogvnnKpuAWJvW+sEoBwVXSIQeNvECf/8nMjrnMfu7Tfa7Pabk8kE2n/UOFY7GoApgYAgVDkJK3t5T6vodcZjSWO0NtXVVlh5iVmVObTTzmcSCTH5FBU1hgA0MFvtc7qmooF2L32v/kUKec9fYhc8e4M+dKNYxHx5zeOOx4SYu1Hw+Xaj55V755yh+g96mRx4UMbC75evSQpH9xzofrvcx8T25Y6syqndYtNzt9yBnw9tsl/Xf6k+NFjxg8G03g7lf+9+xty5buvyffu7pl1MS2bXLJl03nSU3OO/OcP7xBX/KeukGrJt+84T75e9783UgFA9p/wIoCaTo9d/uFHWDdr0L7j9v+/usJtQix/Y0Sn17nvHB07XwVg6Gi12tra4Ox5n25tbt2TloUvGApMNvJcB2rY1tB/Zf0azddvl9PzwIHbCukyiUQimpP8hRAo8/jMvMyMPC43LIoCrdkJkWjElIRlpd6BSAcFk1sA5j6pvb1mWJuoW7cnt8IA+UbdH+Wrdaux8MWxiBjysgk0zBkql766Tv7f5SfnVpnsmk/km3V3qG/e8UzWD//9BXYrcu5Tl6X+evx2OeN6U+dIyTfqbpTv3/0p1s7M+uG/PxHaY5GLXvq9+rcpC2RdAS84gT3fTNvWsTO70WGtW8wfRu5vynqkWi5/XR6P+xWt7R3BoK++ob42h6JyEuoI3az14HO73IkJo8fOyL6kzh9pkVi0TPPaXW7dxXm6ghACXp2BgOFoxPPIwkcMn7HEAIAObivfBZrWaO+rGTA/1+Lkq795Rr7zp1vQ1mj8305gt0UufeMd+filhr5tyZd/9U/57p2/EdGOgsoRGz7tK1f8d7184br8kqRr9dvulwhIvnrLH+T7d92NQHPh93bdnEnSPXlF3kGATKb/EussGpN+TZ2PayiYkn3K21y4FMedWv3rUkpEIlHTFgcK6EzLq/CVaXbRiTxnujQ1NXli8ZjmU77Ma/yqf7ny6dRBVVUcaj9iktHnYxcAFZ9ZYwCSMeCln2vvEwqEcNyaUzXf+P398t07L4TayfrwvUf60XP4IuGumgNFWQkpk7C5+yMWOFa2bD4Om+b30unTBkItFrVx/puyDjWiDsl87+j//sfbf/yFfOdPlyOpkehNCKDfeGDENwGbG0iEgQ2fAY3L9GdmNK11S6EslC9cM1RMvT9jWtbsarr3YSnfuO06+f5dv0ZCZ0ykzbU3pXPfsYDDC7Q1Aus+BprX65e98fNRcuRJHwEfGpPuOduHTvXgbdi9Ybgh59RT1qsl248qOUy1HDNmzM6P5s7e3drRljYxPRAOf9uMS2lqavLMX7lkoNY+l8v1ZK7lZdIebD9Ur9HM7Sr+DE1PhjookOMBfJZ9aZ1jAEDdgEkBwCu/0n1AyP7jtyrXvL4w6xoufGGcfOHGq3Qf3EIAQ47aIKoHXiEue3YmUK/1qfsBQL5Vd5y67tPnxNqZmv16omlNOcaf9Tjwyo8LuXz54X1nyrf/+GckIul1nTQVOKMO6KExHXrXur33brlO5tWdq73S1+sTAIUvlyaElB/fd5h85+6/pdUTABwe4OSbgJOu2/u/D7TyXeDlX+q38qybfax85JxfiGkv3YlCZRkAiL6jz5XA0xJwCItVlWoyrjjL9shIR2+sm10LVSOuq+iTlD1HNgghYv/bZrHa/jcQ8AsyGbfA5gwqPUZdC2Q3fCXXrHk+j+fd1o62iw/c3u7v6L24oaHHxE7y8eequb356ngiffEfu82u2qXln1rHSDW3ZX/3iaWSulManY7ce8eMZrPqt/KnUuooo8/HAIAOTrP/Ccx8UHufUKBUD/w5kPXzH+rSV18V/ibtHx2rQ4px3/mlmPbiX7MpS5xeNxtAP/nvn86Qnz7xA60WBbl5wQ9lHS7rtBVAc+EfAVk/0ytf/+XzCO356gdcFcAVzwGjMqQX73UIMP1l4KN/ADNu1m4NWDfrEPnUj28Tlzz9+6xvonb9rXLe87PQvj293bn/eGD6DKBqoP7xY7+9t2XgiYuBZW+k75cSsmHuHbLuqIdF3bwCB2xkGQBM/ftSAJoPGvXhH3yIpa+n3Xxx+IWnK+f++f3s6/JG1p8UOTaxeTyuO4UQFx/4ppxKpSDjwesB/CbPG6jJHwpfoLW9srxifW1tbTzX8jJJJZO6D9HuHgBImRqaQ1FZ4RgAKj6juwDe+yvw/DX6+4cdM09Mf/mlrKu3+oNDxMp3tP/4hIAYc8o12T78v3LohQ+dLSZfrj3X3t9kR+9zbs73FsjF/3kLWxZ/NXtY1SDg5tmZH/77O/Fq4MKHdXera2bdIh85M4d2U40H6MYFx2DjvPRBWaNOBG78MPPDfx+bC7jiP8BEnXVrgs02WVX1TL738n/3tNACAIjyPq+lb1SAmlMNzXRXiDHDx6ws95VpBkvhUPQcI88lpRQdHR2agws9HtfzesfpjQFQO2kZSKWSug9Rp8Nh5KXlxW7L1AKAHjkUlRUGAHTw6NgBPHY+8Nqt+kFFeZ+YsKfOzKnc1e/fhmhAe9+Ib84TP3vlgZzK29/5//g+Rp2k2aSqBvdMzavMUKsP8//91X5vTzVw9RtA7xxb7Y/5MXC09qqpon27DZayv2VfmMa/Sbg1/Qd7yFF73/ydZVmU+QXFClz0CNBTZybdxnmny7rhORSocb1GpC0WVu18Ciec0AXpMLNX5vXO1tre5m8fvnDhQsNGo9evW31eJBZNG5RntVilcJXn8N3KTjKpVurtsxZxBsA+tgwBgArVk0NRWWEAQMVXaAuAfxfw1h+A2yYAi1/W/5y7MiWGffNEce2cnPow1a3Lv6O5Q7FCJNWLcynrQEIIKcaf/hNY0v/wRfP60fndjybLVwbTCQFc+n+5P/z3mfr3va0HGuSWRRflVlgnynoDP30ZsOcxIMvp23udisYPedSvoOfYPxta1/xoDHSQQHdYEnA/PrfnLq3t8URcsboclxl1nkA4NF1re2V5xfbDhgxp1ztOb1yDomSegSGl1H3Nt1mL3yOuZBhnkkomDR+lyACgayUBPAEFU5BCtXgUItv/EIcLEiMhcT2AxmJfiKHymdLjbwLmPwv88zzg1hHAW/8PiGbo4nVXpcQhJ04VV/4np5Sxckf9QLHpc803Rzlw4lrxi9kFr1AmTrz2LRxyQnpQ4m9yyJt65TUf/iuOnw6MPin/4x0e4PTfau/bvd4jn7r0lOwuNIt/53P+Cng7zbWjb+BhwJHna+6S21deLAt50BqxyJKi0YogzQ0ARB7TEkePGP2xz+PVnJIRjhq3OFAwFDhSa7vH7c5+kMN+OusCAKD7im3tBgFApn8oVVUNXxCo+Ff89bETwFniUczL52DxFKIA1gFYJ2/AowjhCQA/LPZFGWLXOuDD+4C+Y766uE0yBkQDe/8LtwHB5r2j+retBFq3ZF9+71Htou/IyeLK5+uzP+gL7n4BWB0SseBXf1hqhviViqrcuhIyEAPGvylX//cnaTsGf+ObwGuv6B7YWSIgTzVwRmHj9AAAR50PvPF7oH17ehXCe34JIIcBbDoGHLp3dkKhTv45MO/f6S1LLZu9eOTsH2HajKfzKtfMVRZXrep2L2PlvrL5gVAwbQple6DjMCPKX93QcHT9+lVpDzVFKLDZXBnH1OiNAVA6acWX+9bmyKHMrpTpz1lKGN5HwQCga4QhcJp4BMuMKEzcg4g8FxehEuUATiv2xRUsldg72txg0tszpYw49lmEtk4TV86I5FOGqKhok2/c/u3UtmW/F+HW3sLh2Sastnex+OW7xB0NiXzK1NRv/PMA0gMAi3VwQeWedD3griyoCAB7+9i/ecnerpYDNa74ZjZFyM5ev4+dVng9AaDPGGDYMcD6T9PrEG6/CkB+AYARVJ3FD+x2E58++Q0vcDldDwNICwDCkYh96eqVpx46eux7hdQqGAlqLv5TUV7WMmHUqE2ZjtVLBayqmb9iqlR1WwC6ewBgBgYAXeNuox7++4gXkZJXYjqAtQCKP3+lO6kamBDDj31J2Mumi4vuLzhXrzjzt+/DiDfcTI684BP851ogckC2PiE7WZ80w4ujzQlMvtS4Oo47UzsAaGt0yKd+fJK45OkPMx2ecRCdqxw4wsAVT8eerhkAYPvqQ+Xed/k8fmlNzPDn3N3tWgDGj6p9flvT9n9FotG050QsHrkWQEEBQCAU1JyO4vV4P+zs2HwHZEoJw9PpGilTAKAoBgxCPbDMYl/w14CEikfNKFg8iq0QeKfYF9htWJ1SHHXhA+LkH7nFpU9fYMTDv6sIIULS1zP9VU2m8g/SR3+rsP70Aw04dO8gPS3xWEFJi3Dk+dqJfvJVe6r29mCzDQ9874zcCtvHgDdEoZNicVdL8V8/D6yqEGqFr2Kl1j5/MFRQuupVGzcOave3awa3bofjrs6OL2AxIN00nqratW/fuTKjegwAzNcoHsM200qXxqaGLGnJqJBLX/+ZXP75XPnkBYcWuzq5Ei5fepeCVPJ/MNQa3DskBFCrPd5Ptu84tqCyDz3L2Lr2GwtU9teuqxqfnmNpX1y/sVX8ClekW/4We9yOf2lt9wf8ZUvr818cKBb236xqLP5T7vWFxo4cu6Cz45U8m+stihLT25dM5Zt5u2tYFcW4LscvdMsv3UEm59XmctRc7AvsVmIBgdUfHCGXvr1YPnrOQwWN+u5i0uY29g987KmFl3Gg4Tpp9ZtWD8j7XrsqgOFZDSPIzSHHa2/37z40r/KM+CZJnW6EQNy832KZf9Oxx+Z50G6zpS/ZLCUSqejP8ykTAPyh4He1tpf5yj7N5vh8UwFj/1TLB+geAYD+ZSkWJa9xTJlwDID5zE3wISDNXk23S/Qa4Vd7jlirKLYUpBQyFnQLxSKgJpOq1ZkUUK1CTbqRiHvRsbMaLZsdmjnV94kFhVz86nR515Qj5E0zj8ivz7drCZvTuLSnvUcClQOMr2TvQ7S3h9ssePis8Zj+SoaxLjo/brWnQCsPQsF66WR9bdmS19TKApag71wk0S1fxkaMGBGbvWDuhuY9u9MWNwrluThQfXO9d8PyLZrNM26H434zr8cihO5DNJlM5VKUKTI3bIiw0edjAEDF56pICX+gt/W217OOcOXMeyqwe9NN6o61PxbrPu6vFwyI9XMOl/d861Pc8MExxb7MTq9J6xVaUfN7MPQ1ael2vUx7AODwnQTkMdh1ZJapiXOll/go3GaVf5o4XNyyeH0uxQkjBmHpJapxpLplAAAAXrfrxWbglgO3t/nb+9TX11fV1ta25lJeskW9Jp5IpH3V3W53fNzocW8WUleBzFGaUPTfolOp4gcAmVgsSsjoMrvtl46+Rsp7dYh7tuXUvCWm3NAupt53q+X69waI0269SPY/VD86XjvraPnIeYYuYNJ96Awb7m34wmF7eaoAr05K8ljkyNwK+8KAQ82pa69D9PdVDzs99wINaAGQOkO5LLZu21XlUpx3Wy3pj4pUSkVMJm7ItbxgWHvxn3KPb6nZ16Io+m/RyWTxuwAy1cGiKDkFWlndj2JfMJEUloJCb3Hmrf9WTvzFAIw6SXc8hFw78zb5yJkGDok3+B5IaRMdOzQyDnbyJ6rXZtir8JV6dfXQXk9FRjoyRx1adbXazWut6DFMPzOMqo7IrTAYMwZA1WlFiHXfFoDRo0e3VJZV7tDaF4qEz82lLCmlaPe3a6a49nm8j2VdkM73XiJzK42iKLppwJPdoAUgntAfBmRRlB05FJWVbvulo68PI/JviGOmtoqTfzUMgw7XjvDDrRYkxSPFvtZ9pJR2+dHdE+Qbd1woZ9z4Z/nQWRuwc1V6l5ya52OnerB5lXeXa2+Ph3PPONRnzN4gwAxW+94BhlqS0f45lQUUNJjuyzJ0WgDs5gUAQil8/IvX69Fsmm/r6Bgxc+bMrLuSV65ddWEkmr74j8NuV1uadj+Z9TXpbs/8a2JVlO16+zI9fLtKIkMLgKIIw2eTcQwAFZ80ZqS+qJ0SlB/de67c1fCW1roAcuPn35PXDHeI+9fH8ig+t0ua+4IL/o0nomPHcQh3HKb6dw9D1F8pIm0uhDvs8mq3glQWPzj5piczcv7/gRxe7e2JcO4T+Sv7mVdPAHB6gVBL2maZiPXOuSwjIlWLzhiASLzbdgEAgN1hvVMRypXqAWkM4om4Utmv36VAdrlOwpHwFVrbK8or1h476WjT2+CFsG7V2xdPRHMpyhTJDL8JimLblENRWWEAQMUnjZsoIU687m31yR+vwLx/j0vbGWq14LATrgbW3234JUip4O07fpzaueYyZfeGcfK5S8v2X5Gvy3/dPVWFl6FHL2FPLJQxI6XmIEdf4WsdZeT0aW9PxCpyLsuIAEAv20ysewcA40aM2/Dhp7Pa2vwdaa08kUjkJ8gyAOgIBo7Q2u51OZ/PpT75NmnYbRbd9UCiMdPfCzoVj+tPBFJVscTo8zEAoOITxj4fxYgTrpKLZ8yGRkQv/c2XATAsAJBznhgqN372kPzdqCnYvcHWLfrUFAvgrjCvfL2HajyS+1w+swMAh3ZdizYn1KLTjWCT3eKrk0mZr+yDNn9HWp9/m79jYjbHr92wdvKKdWvSFv+xWq2yzFn291zqkm8mwFQstUBRFGglIeoOAUAwHNTcblEUTBw7do3R5+v2Xzo6+EnV2AnWYvJP5mDY0e2aO3etG55baTp1XvxCD/Xpy+aoM27agM+ePAW7N5iTY1zkcW/cVV9dVdFoTs3VkSHzWHYWzvKcD8mtfO3uCqFYcm9uzjP/fFaS5gUA0oixCwDcTodm4ByOROwrVq04ubPj/eGg5oyBcl/5jmHDhnV0dnxWROYEQbW1tXGXUzvfRjBs+DT7nPmD2jP9nA5nLN/1DzJhAEBFZ8YiXKL/OO0FRYLNNnn3qRMKKVu+84cb1Bm/3onPnp4sonkuN+Cu/PI/W4aW83zGRzgNzKmvWSftLhthteY+jFo1eeS1Tl1lHv1OhgSqepkArWa2ABjz3Kg9pHZemden+YQKx2PXdnZ8IBCcorXd5/G+Yd61p3PanZrBRiQaQUo1N29bJolkEtGY9jgEp9O5O8fissIuAPOZfY8NXyO6qxndAgAAGHr0Q8B9Z2vu83p/DODG3Ar8otnxpZtfkm//6QcimwFDvUcCwycDNcOAir5A1QCgot/e/211fPk5NQWsfAd45FyNB1bm54KA0OhUNrk7OandTymFNeOvp2YinWwGQhYipv1WJxVrzu29pq4Wq1i69RiAfcp8ZXP9wUDa274/6D8u03FrNq8ZsmptQ9r4ASEEHE5Lp4v/pB2n5B8vuZzO9QDSkllIKREKh1Dm9eVRauECoYDuPqfD2WDGORkAmC/30ca5kOhb7AsslCm/fIed8zFqblGxZ3PaL4Xq331SPkXKGb94GR/+/fsZP1QzBDjhKuDwc4DyPtkVrFiA8WcAfccA2w9YfE2m8rg9Jvdw6wQ/wu7KHBVpPUFVswMA7R9Vi929PceSjCF0UoOnSqM11uV0/QOARgAQLFu2Zs3ICaNGrdU6LhyKaC7+U1FW3jZuxLgNudajgNUA4bTb5gI4Wmtfa0d70QKADr9+AGCziPlmnLMkvnQlrre8EialZQMATCm8iOKSML4FQAiRRO/RmgsxibbGnMcByHf+UIdZD3xf9wPlfYBL/w+4bRVw4jXZP/z3p2jE4/lMA4wGcz4kJ0Ht9a2kszzzwleKPb29P7DL3Lr6dXJD2Rwbcy5LmhhYWbr/IEAAmDCq9nWP253WBCSlRCIRuUnvuEAocqbWdp/HOzOfeuj+VcjOx6HYXK7X9Pa1tbcZfs+y1dLeorvPZrU9Y8Y5S+JLdxDIOV1mNuQ0TMBBEACY1fYpqgZprmWOtu1ueX1FRbblyPqZveXcf92q1/SNYccAv1kATJpa2OC7gEHdfOF2cx9Wfu2HtnB5M79VW2zpAcAew6c2fykZ1w1WAKzNpSjDpHTGHqRMHQNg6JehTCdlbyAU0Eyv3NDQUNbe0a6Z8MHjdP7d0CsSna8SOGbIIZ+4nE7NwSctRQwAdrdqZ/p1OZzxCWMmrMyxuKwwAOgal8lp+I6RBcqL4YHE0zgo/g1NWmatZqD2QECpAiNPODPbYuSyGS9g9wbtsRaDDgeufkM/P37WJ5FAMPcAQAqRPppdTQIBE1eJ7mjS3CxsrsxNuTZHenv/ns3m1bN9u36OiWB77k2qZgZViWRJjAEAAI/H97jW9vaOjj7Lly9PzxOQilybSKYv/uPzeCO1I2vn5FMHvRaAzjIB7j1WyHJvueZ31R8MIBwxfNXdTrX7OxCJap+33Fe2zqzzHgQPj5JggcRLchp+ZERhcjoGw4WZAAoazd5tmPXDOnTyC7ppZlOprJYylc3NXqx8S3uxeocXuOxZ/cx4uWjfpju4LhNhtWmPctuTewt3VhKRDG/tlo8zHSodvvS+ibZtumMKCrZd56XJ6VMR+CDnVQvN6Kr6HyWfsR7Zshj6B9bW1PyE3WZPi6xSqoqkBdcfuN0fDJ+vVY7P61uQbx30xgDILH9MvB73W3r7tjUZnnK/Uzub9bvC3C6HKc3/AAcBdiUXJJ6WV+JnkPgXBJZDYBcUZDcPSoUPEkMg8B2ouBiAM6vjSoMpP35i+DHrU3ccnhDblqXN0ZfhtsOzKmTxk79Ca6N2oPyt64CawcZUtnG59nbZSdOwYtXuOGxaBww9GobbthyaSy8rVqBh5muZDhXuslYAX83Bn0oAmxcAI441p65aqgfvFr9tK858L5Eo6UGAADBlypTkJws/X9O0e9eYA/eFw6GpAH6/7/+XUlrenvm+5spUXrcnq+yBucimBQAAnO6y+y0Wyw1aSwBvb9qJQ4YMM/MWfoWUElt2NGrus1ltUo2q95t17pL50h1EjoLAAwDmQGIdUtiQ1X8SSwG8AokrcHA9/GHmqHXRY7j2X1br1oFZ1Wznqu9r7nB4gON/ZlxFN32ms6OTP1F3uXZqU93yCrR1qfb2miEBcdeuzOuV233arznrPzWnrlt0XjDLeq3KpzhT2+gVpWS6AADA43Y8q7W9zd9+yP6LA61ct/qCSCx98R+n3ZEaN3LMc0bXS81y8axRgwdvqq6o0lxcp83fjo5Anvk98rCjeZdut0NlRcWaSZMmmZahiAEAFZ0peQC+IKoHLNTc0bHTJX/et/MVc9q2DtLcPvEHxi24IyWw4IX8ji3rN09z+4a5xtTtQKvf195e1b/TfkpR3nOxdl0/Mb6eiQiwdpZ2PVxl/82vUAMCVavOKHWLmb/FxgfYdmm/12a1pRUci8eVql49Ltn3/+su/lNWvkoIUbysOwCqysp0Vwddv8WkLjQNGzKcq8ztqzPz3AwAqOhMTbBSM0xzGVNICQw/6rudHS53b9Hu4B9mYJP1mg+B1i06N6eTUc3HT5uHir7pP6RNa4FdBucOiQaA1R9oV9NT9VKnx/capX1wwydAvhkV9aydtTcIOJDVDrSsftjYk+VAbzGgEuoCAIDa2tpgZVm55sp6oWj40n3/uyPQob34j8f170LOLw1YQbR2ZO1f3C7t2QCNO3YgEAzkWmTOtu3cgT1t2qP/y3w+/6G14/J8M8hOSX3p6OBUSFKPTo2b+hrcOsvUp5KndlIvq0jpJIyrMCj/klSBV3+jv7+TPABCCBW9RmnPdVvc+TM5Jyvf0R6wZ3VKbF/5j06PnzT1U83ZEokIsPS1Tg/Pid619x7dJG5Zkd9cLyMGq6o6LQApMwcBmsPjdb+qtd0f8E8EgLUb1x7rDwbTuittNpsUVaLz74vJhBCJmsqaWVr7VKli2Zr6HEvMTTyRwPK1+ueoqqjIOUNirhgAUNGZ+csnqqv9sm+tZmYcGWzpbBUzm26q2oRBU4Vm/xNoXFrYNfYapj2V6vN/GZtrf47OmK3+4xpFXX2n2YeEEBEMnqgdrCzMaTXYzIK7gUXaAYCo1JkaWmxCmjaux4xFZADAY3HdqWik5A2GQ476tfWT/aHI9VrHVfrKt07oPSHUWfldoUdZ1UVOh1OzK6K5ZQ8aNpvTFSClxJJVy3VXICz3ef2Txk683ezrZwBA3YC5qWtFj6HabeGtjQM6OTQKd6Xmj4NszHkWWbrNC4AZN3dya7JoHek7+l7NfpTdG4ElrxReTwBY9zHQoB1niKq+WTc1iH5jtQcRrJkJdOw0pq7v/kW7pUKxABb8Nd9iDWmpUnQSE8TChqxSqc2crvZRo0btqPCVayav2NXa8mpHR/spWvu8bpfBzT35GzJkSFPf3r11o8+V61Zjx66mXIrMyrI1K7G9Sf/7XllRc0tXXD8DACo+M7sAAIiqftrDzP07HfIPo3Vz9gohJCr7ab7ZikUvII8F5b60feXexX+Sha9BLk64do4cOEm7w/LdP2tP28tFMg68pBOo+HoksWPRb7Iua9ixf9PMzaAmgY/uK/heYOcqYLZ2S4UcePhmMf2VvCM3YUigGtd+mkTbSzKnh8/jeVdre2t7W3V7oCNt/IyiKLA4fXkHYfsIAxsOe/iqLvN5vZpJOKSUmL98MbZs35ZrsZpUVcXS1SuwcesW3c/0qK5ZM2nshAeNur5MGABQN2Dy4jX9x8/Q3Vc56nsZjy3vo/2Xv2sdMPdf+dVn7Szgbydl98ab5WAnZcgR2oOFtq8APrg3v3ru8+ZtwDbt56YYcuRrom5z1pl8xPgzFsnab2tnWpn1INC8Pv96xsPAExfrBlVKzaC6wm6EAaY+vEMrAJItW7POTNmdeDyuO3NZrqLcV9YyYcQIY56mBhkwYECkf5/e1yo6KwyqqopFK5diSf1yxBO5J+vaJxAKYta8TzM+/B12R8rjqTg1h2ILwgCAugNzB0Ades4c1AzWfl1X46dkOlT0OkQ/eJhxk362OS2xIPDC9cB9pwGR9iwPyvJPdPCRN6JqgHaH/1u35z/XfuaDwH/v1t7nrlRhk1flWqQy7js3ay58lIgCT1yU3/iKZBz45w91/z1kv/G7xeXPPZ3fTdhXSOFfUwFI+HqlDyzZ8Pkh8s3bRxd8gi42ZviYleW+sqyncJR5fHlOwcxWfo+02uG1jwzqN+C9TJ/ZtG0r3p8zC6sa1iAczf472u7vwMIVS/Dhp7PR7u/Q/ZwQAn179fj1pNrarVkXXpS7RWQkM3OsAxBCpPRWBpTBlkMzHnzot++V7irtfdEA8PeTgWVvZK5Ay2bgtVuBW0cAsx7S7DqQfUYHMGhS3nPhxDcu8ovxp2tPrUpEgIfOAjZ+nn2BahLyzduBl27U/fcR479zl7ji9ZyX8xOTL39WjvuOdvPH1iV765p1gASgrXFvUFWv8/ttc0ml/8ROp3x2zqDvaa9D0n/gI+1CNsx5Ty58xJZHiUVV5vXOzvazTof77mw/m5/811SYWDvhtD49e2Vsgoon4lizcT3e/fhDfDh3NpauXoF1mzagcecONLfsQXPLHmxr2olNjVuxaOVSvD9nJj76bA627tgOtZMuw749e797+NjD7zT3/nwVUwFT0Zk6DXCfyoErAZyYtr21sV+mw0T/o1pSj1+8HAueG6/5gVAr8Mg5QP8JwOgTgYoBgLNs70I0bVuAdbM7bdaWVQPjyuhjJ8ptazSS+uRwb3qdfRmGLP4eNs0vT9sX6QDu+RZw+m+Bk64FbC79cjbMBV64ASLT7IQRx68Tlzz9yzz+JQAAyhE/PFU2LlmqmWZ5zUzg9onABQ8CYzMs2ZCMAwueB17+JRDSX0pV1J72rPjJYzlEP+YSlX0/kEB6rtm1Hw2QAhvlm7efIs747WoDT2lqhO1xuO4BcEZnnyvz+kLjRo1amEWR2VySGUuIy4aGhrECSv2O5p2d5gLuCPgNyxjodrniNptl7YJli59OqmqVqqYqVFUtU9WUN5FMelSpOlPJlCORTNhSqZSSUlVht9lSvXr2+vVR4/MPGhgAUNF1xQRoUTPwA6kVAPh32eUdYweIW1c26h2r1J50qVzx1sKMyWq2LdPtJ8/I2yOljDtjiph633r1nm8Vdo1TpiTlO7d/XzZv+AihlvTbmkoAr/8O+Oh+4OiLgKHfBCq/iH+CLcCWhcDiGXvHDWTSZ3SHqKyaXFBdJ01dId/76/+Tr/+uTnOqZft24MHvAf3HA5POA4Yc+WXmxZ1rgMbFwGf/B/gzj9CWo05apEx/4aKCbuz/CjPoOVrd6xb4elyBwG6N4Oej/nLT/PrUP85cp1T2/wiuquWw2loRj1RDxkek2nceqzStHicGHzFTXPzYacZUqDC1o2o/em/2h9FAKJhxKmO5z9dtgjA9I0aMiEkpRy5aufS/W7Y3TpEmt07uE45E7Ju3bbsul2PiiYSlvb3jVgAMAKgE6Kb+7II/ssHH/gsO7x8R0xjUXz3iLGCl7hB08Y1LFsmXfv60/ODeHxtap8r+CTH2u6eK8+/7Im+vViiU2zrx4rTfzpKv/upq+dGDDyCuk0I8uBv47z0A7sm9zn3HtIkew0aJS1/Mfe3iA+t66s23ydd/21++/7fLdWdDbFuuv6hPJ+SIE9Yo7e8dWWg9jSbO+HObfOKil+X8/5yj+YFYUIiV74yUQNoiOvu+DNJRfgQKpAjkP6LtAD6Pd0EgFMyYHtPpcD1k1PkyXFXBPyZCiBSAE1dtWHVd4/Ydfw2EQt22WyaeiLkLOZ5jAKjrKJZ2ze02l2E/RHrEyGO2y4GHa7/CJ+Indnr8OXdfIo+8cHFnn8vaoEm7xYTTx4oL75v55f3R+HNUlJznCYrv//lBcfzPpsFbY+wE8KFHbxBVw0aIn77SbFSR4ru3XyFOvek+OMuMq6dihTjsrLeUAZVjRV2ek+CFJe07KY3MWb11+HkYPnl7vofLcKsn288mE0nNYec2u9OwVHdejzfjinUelzsxYfTYGdmW1ymhaI7CU4TSbtQpxgwbc++k2sNqhg4a9LLb5TIwo5ZxCk3yxACAuo6wzIZI/8pJT7XxmTY0KCMn/13z/MlIZwmBAACWS58+XBx3xeuwOvKvhLNMiklTnxXDBvQRP3zgqwvo2N3pD3sh1uZzGnH2nx8Vk684Rg47pvCHtbsqJY6YervyiznDxdWvtBRc3oF1PfO268RZt58qhx9beIdq9aC4OOaSK8W0F88QU1/M/0fbW5XWDyJ8NYZlrxN1daoYeNh4jDwxr3mPIh7KuvU24Pf/88BtHpc76bY6XjfqesaPqn2x3Femmzy/uqrqzVzK64zdZk0bIyGEABSbobMMqqur/RPHHHr2uGGjfSOHDL+rT49e2+w2e9f0C2TB7XK3FnI8uwCoy4jTbpkl/3X583LTvNMRDTikYk2Jin6bFU/5eV1y/jNu+718/gaHbPh4GkKtbqgpRXpr/Ep5379kXcYFD31PvvWnb8u1HzyJ9Z/0zjbVrvT2TCnDj/4Q5T2mifMf3qxZ9sgpV8tAy8PYs7EKQlHRc/gaLJqR95rp4vu3zwPQSz53za/lloU3YsvC6pz6sasGxMTgI16BsFwvLns259H+OdX1+Kvel1JW49Vb7pLrP/0JNn5ellNdqwfHxCGTH4crdIOY+nDhLUq9Tn9UPXzdj0Xj4glIRC3CWx0WQ4+5BTCuEUhMvacVwAj51KV3qes/uUrs2Zh9OmCrI+vg5pQppyydu2T+yh1NO8cCgN1mU3v37HnTkCFDss7fkNUtq+59psWizIjGYmUAICBgsVjiPo93QajFP9XIc1mS4uaayqoT2/wdQ1KplHA6HMmayspXDxszxuAVsPYaMGBABMDNAG6WUro2bN5wajga/nYkFp8Ui8UGJFNJVyql2pOppDWZSilSqjk3FyVTKahqdg1WNqsVLqcrWlNRnfdAXMCg8VfyCpwBgTcKL4m6mZh4FKblKC918o26iWjZdKvaun2iaN/WC6E2G9SUAotNhbsyKt2V7UpFnxVwVb6ITf98Ku/maKPq+9w1hyEauE627zxaBnf3FMHdXvh3WWGxS9gcEk5fCpUDdonyPkvgKHsFlzz2lOiSARoadf3vPT/AzjU/Udu2TBRNa3oh2GL5X34Aiw3w9UzB1zMgeg5fgIp+T+Dcu54vVl0Nud46KBg+/TIZaP4hWhsnINjsQ2C3Hck4YHdLWOyQTk9KKLYEynu3igGH/0Kcf++zuZxj0erlh7sttj5qhTqrtmdtp2s3lIonZ850/mTKFEODmWKSUtoAeDv5WEAIUWCKTwYAlBkDAOo25OoPqtG4uAr9Bm8RtVNNHzdCdLBjFwARlQQx+lstAAwfg0D0dcVBgERERF9DRgUA3XKKBBWsqH3WRERkHmMCAAU7Ci+EuqHGwosgIqLuyJgAoA9WANhY7Ishw71a7AoQEZE5DAkARB1UCFwDNhkfTLYghaznxxMRUWkxbBCgeARvQ2IqAMPShFLRfAYVU8TjKCjLFBERdV+GL8Qmr4QbwCkQGAqg2y6iQBokQlCxEI9hXiknVSEiIiIiIiIiIiIiIiIiIiIiIiIiIiIiIiIiIiIiIiIiIiIiIiIiIiIiIiIiIiIiIiIiIiIiIiIiIiIiIiIiIiIiIiIiIiIiIiIiIiIiIiIiIiIiIiIiIiIiIiIiIiIiIiIiIiIiIiIiIiIiIiIiIiIiIiIiIiIiIiIiIiIiIiIiIiIiIiIiIiIiIiIiIiIiIiIiIiIiIiIiIiIiIiIiIiIiIiIiIiIiIiIiIiIiIiIiIiIiIiIiIiIiIiIiIiIiIiIiIiIiIiIiIiIiIiIiIiIiIiIiIiIiIiIiIiIiIiIiIiIiIiIiIiIiIiIiIiIiIiIiIiIiIiIiIiIiIiIiIiIiIiIiIiIiIiIiIiIiIiIiIiIiIiIiIiIiIiIiIiIiIiIiIiIiIiIiIiIiIiIiIiIiIiIiIiIiIiIiIiIiIiIiIiIiIiIiIiIy1/8HVTm4tgHHbRYAAAAASUVORK5CYII=;" parent="1" vertex="1">
          <mxGeometry x="474" y="244" width="242" height="121" as="geometry" />
        </mxCell>
        <mxCell id="Zr7tizGE0mZnI7TlOZvU-1" value="" style="shape=image;aspect=fixed;image=data:image/png,iVBORw0KGgoAAAANSUhEUgAAAQQAAADDCAMAAABTTJ+AAAAACXBIWXMAAAsTAAALEwEAmpwYAAADAFBMVEVHcEykcD6kcUClb0KucUKmbz+lcUGicj+lckGlcT+lcUGkc0CkcUGlcUGmbz+kckGkckCjcUCkcUGlcUIAJmOlckClcEGjc0CkckCkcUGkcUGjcUCkcEGnckUAKGOkcUKlcUGlcUGlcj+kcUEAKWMAK2SlckGlcUCkcUGkcEGbckKjcUKkcUEAMWEAKmMAKWMAK2QAKmOjckGkckCkckKlcEGkckEAK2MAKmMAKmUAKWIAMmOjb0CmcUGkcEGlcUGlcUGnd0EAKmMAKmMAK2MAKWSmckGkb0GjcEKlcEClc0EAKmMAKmMAK2MAK2IAKGEAKmIALmEAKWIAKWEAKmQAK2KjckCjc0OkcUGjckGkcUEAKmIAK2QAJ2YAKWMAKmMAMGYAK2Sjcj+lbkCkcj+lckIAKmIAKWIAK2IAK2MAKmMAKmMAK2Gmbz+jc0IAKmQAK2Kjb0Gmb0CjcEEAKmUALGXEmmylckLDmWyjckKlcEIAK2SlckCjcEKjckDCmWylcECjcEAAKmIAKmQAK2IAI2IAGWIAFmIAJmIAKGIAG2IAFGIAJWIAH2IBLGTDmmwAHWLEmWwAEmLBmGzPoGwAKWLJnGwAIWLMnmzgqmzdqGymckIADmHHm2yjckHor2zrsGzGm2wAKWTOnmzVo2zmrGwADGHTomzZpmziqmznrWzztGzusWzfqWzJm2zssWzQoGzBmGvqr2z4t23YpWz1tm3CmGzRoWsSNmTkrGwAEGHKnmvapWzwsmzcp2wqQ2XSomwzSGXxtG1BUGUcO2Tjq2xLVmZ/c2mUf2lpZ2cAFmFRWWcABmB7cWgOM2QuRWVFUmWMemmIeGm3k2qqjGqvj2o8TWZuamf7uW4kP2UgP2VlZWhZXWg4S2WliWpUXGaghml1bWkJMGRcX2ekckKmcEJ3cGcXOGSykGtgYWhJU2i8lmumcECjcz+jcUDCmmsAG2CchGqDdmn+vW6lc0KagmqWgGmQfWrWo2ylcUCmckD/xG6dhGimckKjcULCm2oRQPMDAAAAdnRSTlMACXymEW7B1YxKliyAQeFiVuq0SCJnWDI2RHh0URQnrzzm3M/83XG5kiAE8e4E1Zqmzp6jhcb5NrwxjAmJj9P1yw2qk7ATrCWpXB1A4YJJV6ANdDvze75uasTZbMgX9rcbYuMY4ftS7ofk6cEsbfxcaNf8/HFkuBb0DAAAGOdJREFUeNrsnMlTU1sex/0jXLvSpdPKaeew8uGzfbqy9enm6evuqteLrtSpOotTde48Zr65SSUVAoEgEBMhSBIgzPDAiRlBBNQqB1w8tUul6lnVfW+gG6G8DKJVyYHfIgsWt+p++P6+5/c753fPjh3bsR3bsR3bsR3bsR3bsR3bsWXjOvTS1y5tZQK/HIQ07YU03LtFAZw+er6srAzmo2z/Fnv5XWcunD242+ulaUhR1CKEPVvm9a9cPHmehjD/4qoKBR/r8C1AgJe3BoHfrpn/d4FnFIdDFEWWy1amZ19yOM+A/mErIDiOKcyIUjCrvmgd65mZedb3ZKS+cfohIwp5YRzcAghoLItB6tVsW0NHIlzR7ffHc1X+W+qT8PyLSkn08fAs6QhKMGa4N6+0Gn9MA273bWTG7caIOt3ZV90S+/1Juw/+SDiDX7HM8oMd8XKn2wwEgM0GgJ6ib028e9Lu0Rob+hR4jGgEO71eRXqUaL6JkLM8V1rT0B0zIWi59tGJ6MTjkA5uJboYmmgGZ2iefar5dQSQ7tefpRmfqwIZQph/96xvduD1RMDQRLdLILpWOodl6XFd1AmMd62+E2R9PH+3xQ2AR3saa21unxlNAhS4x2KSGVw1GDyv8yBgB5HMGMcbqyHP1dwGkVzXfFdmrI2udqLyDCuTLISLlCzdy2jINIHGYZdg1AOY7YkjEP049bKn/qm/Ne4OZeZEkoVwhOal8YxmrgY2kGrnaBXybFlGBza/8DAd/vRo6N68LTDL8SQvDRTPzYSb8gxsINrLVWaD2QF/DIC2T3Md6YePG2c+tQVecsxPBDPAWHxQqi8wMNbE5to/pkcTceMPIPaifPBZvfrv1kj4Lcv8g2AGf8WK3O1BCwyMRRE5NY8eMUslkBxp7n19I93y4GGfRDSDHzHDeqKLOjDDDvJhArHZNE3Tm2pzXSx/heTVkRak3oBzicGyMGAgT+alz3GN6ErxvGkIGrBbQXBGM2MSQ3YDfc5IhlQSWQohFNBUkb9KdueIBW4oB6wYoPLqwX7FS/g++z6s3E9oljpoDHdK8m7CdxDOULxLi1kkg1Em+NMsv4/0rSQKi3e6nZYMUqoo/Ew6g5MUIxodgv3LfpDMqKKXeB3shII0WGWVDE3hSdFLuh/s2CFQDktXBCjwhBNo4hmU0LyrydIV9W6XjHcSD8GLxQErV7SjQB+LjxPPYA/FsN0ei3oZODsUhvxkOERhrjdnWS97/gjiE8RDKMMKZVkr2lDgFUu+EE4YteJw1FIItxNPGUw6g0uQEtsrIlZCAJGOrED8TIoXMo6MB1hCSI66qNOEM7iOBen3ZksGhiU8YiHp9TKNxcm6kCUDu7u0i/ESDoHGPkfAcjvJrBIaXKS3j4cxL42skgxGzfw6iH8jmsG/sMB2ZqyTwbCE5ucsRfTU5hEaO9Lh8lWEYLsdfqCQXSXQlE+pakOrMACoQeFVsk2R4VY1BAPCzXgl0R1knkFgNUMwIMQ+SCrBvngeM6738dCqQrAh/x2ROkWyDlxD/jUYAHftfYYid13wKtx7v7Y6Axuw1WSF84QyuEDxLKXn1tBBvlTKQjJbyGMU9rnmMuaQ3uoMjFLpHqsSOZlz3ZABM5rRgdUh/FL3ZJZKJLaQxyneEeypTkXWlEG+e3Lw5NWLJ7CguDrnzZHdtRkYluAJUofJIvDTHspA8OK1uY+0DgSGJaTeceovJCE4V4Z5MTs5Uhpzrg+BYQkVjx3kWMKp/TQ0imTXgF4XC6E1DXHJEhRSLOHQfprGgsOlDtZ2J51onTLIW4IepE4SUBme2E1RhhlK2daR2tRNBNargsUqgaPOFPX77yw5iDGNseyQXK0f6ypikQ2IYOHYJTzhK2JLOHL0VwMAFBhRqlTmplvCUQ2BjSHIH7u4BKE4AZw+q1IqNATABbPpqffxmkxbBKGNElg8dsFni7ASOAChSvEK66rEY732hoQ/dhNtXAOLcwn+GZE6VGQEdv0MoQGAC755MD5a25FJ6U73VwJYWCBrGLnI9hKOQmx0BVJ/+1BjQzjnibjRxpaCL8wlgCAupmmtU/sgJfg41+PZlvAmBbCUDfFXYhENZ+z8G6RkMZseKq0w6sFNCuCzbBAYeleRILhy2dw27p+KJlLaN1DA0trwnyAulgmVv5tfdsuDLX7dib4ZAfPU5UaPSBXHDQklFJY55l1p881vlAVLlVKNKFMXiwDB3t1YZrnxRJX2LUWwYIvRaQnTRXASewEKDna8Ltf0rRGYtlg3qeAiGM64jBmpyxPXvz0Cs0iIZoXCb6P/SfOib7au0fkdEBi26J8TKVjoC+QBQwad/ub1bxNtDIIe7udhobfRuw03+BD2gO8hg4XhfpYqK+x95r2QZ9PRtU/Rvl4IGU6GsKCnF3dRsjQQjoHvxgDF+1hc2NmwC8rS83A5+k4IbHag+/tlSBd0zQzzV118/T7B/74Btz6P754ylga6kKd0MM+Nb4pBKJnUV53Vir52GY5AlxQug/2YHatr+no7AKH4284qtDID/q8OO2hKqAplQCjcr6L/QilU2PP1fgBA1fu7k91oZQbo+qI6gM0/zgnYC+nTBWwI/Xp0E54I9ADLDWRWQvAM3wkgex5Sys0xioGaLthjl6MCZ33Nw/pWv2esOOVHK6vkO3cT5mMBasz5FIWp53BZoU7u7aUcE9bXPKwHglbXz7N9uRUQQjVvKj0aMBjodWmHIjf+6RBgoW4mXGPe5JKbSAY7Sg1xkOtNLYeAYrOSazoJTAY9rENpitamGXi0MBlc5aW3VZupE4EzkfaprpEkWJ4N4VYfNxRFBoMpTvQ1pYC/U6QL896QS1jsrA6BTTUF0awAK+PLH2KYpUtg71W5k6U9nOjQUk4U/SjhssIsk3zMKl9sra87fMRCob9+WUYB87yNFh/55/2TrMJqVU4AtEwQF2TvcFmWhlObappApEZmVOZ+rXu5ECokWVV6/hz2ibw0aCw+doA6VKYQzyEP81Jv3Aa+2PEshn0tIZi7p6o4dwOtlAeG8v1XLh92tNeFzMeYg930gYJjsE9gO8MrVkfz/ifkdt8CkZAREectd/5KWSscIJToUiAlfYgtywYtwRqtgpeReYp3Ld4xBJLD2YIzhXNQYB+E9c+TwSRg05sziZr6jmhjW1tjW/hhfU1tRTyV1EwcaCUNgKpmJQEKwfDnvmgI4Tm7eDE5dAxULNgFiHQwDCycOxOOHSr5QcWMNBn+zBSNDEChWEXD8L2xFxRXWVkZDBo/lSyT/i975wIU1XUG4AWsRsCIKC/BR0BQIjXxGV9BTayJpp2ojRhTW42i02jjJE3r5T455+7dF+xu1pVlQbEgKkYJUVSMD8AXKGLVaGseTWwmRptkqknTdlInnen0P3cXdu+yT2B0Z8xRwb337Dn3fud/nf/cPXv9q3/+ddvpg6cPHN2yc/87snBsPnz4MPysf3evxs6ymkv7Ct13V9vRSgTBUbR/at7sgFDYfF57vxegfvLEy79eOHXcC2azmaw3aytMF90YAIJNJeWnvz2lq9BZNHqDZJYLK5ENx4t01oqadvNHZ89fuVZyGmSjqpKUqrdrm74oElmzMl4s2NR6Fo6ykrxZv+VsbYljKaugrLzCIE67X9PExePJE3d6jcZkKdLqiq01Nf9o+fjvTY2uFAIg2L/r3QvaYotebYbrN4+b+7hcVqwfl/kr1qyWWIPebtESGsc0ly6fgHK55YjZDrEwa6g57pZNKCg8edyqV1dXL1/5hE1i9dpTe8rLCogiFbaeKhLvz0OMTxs0MJIg1+Klv5x67/MPzrVd293QULWlxLXaCopecvT49YoivcguX+xdbYc/P339C5IoAU69BiZEJpPdrjEayEb09kv7NrlpVem+FovaNmoR6RvO6ot0n96t3bOzbPubJ++2G9X3/iGNH4/X6IpbPm+rbzxIpHjv0brmQ7tLthXUb3attsIQHd+y5cwxi0F8OvBnk6b9/rHxalEtF4fWq3VXDxW+6VKGus90BrUzQJ7OSizZv9184T/1dZWVDZ8ZWZvtd/d4adGou/Fd7b46GIZCp7OTDbzCwhdsv1v1QXuR/pVQ1HX4ywszbbZqEAxW317l2jMDAoftVqP4iiuFSwp58O0YWNljRUa2uvqn93RH2nEa3dWmu9s2+3najGjCri/VWuO6bi0XD3nKpi46W97pGwoKdxwwmxThwC8kQoolZlYCQytlLrqncrBONF07ePKbelK8L7FCMFvaXP6+1W7r7gdyMkW99a0Sl309fuCM1uYxRRi+0MBWs4SFlHnPMwq/Udvfbyut/BBKbfmOAq87Y+6uuqot0nd/rVgCQWh1Gdhtred1evY1bzIzZMj92Xhxht6utZKIp+aPLTsLuiIoLCs/fkSnEbu/U+5cyWhtLnExqGsrNqrXhVlsvHZ9ZubcJWab9dzdgi4I3nmr8qtik6Eni6SSqP2kvGNPZmDw52KNOjzX2h7Ta49UKjc9IiHyoaYrFq1R7MnH86aqNabKjsR6QWlrG2GwOCyTR5riU7v2K7dOLixtbGoTQROW96TplfIOMrJrABNbtveiFRiE4/bDjxss2ivKSULhppI9Vef0xXZR7NlCgFq0fFElzx/J5sMHLoA9CMuFZ1Gj+6ix2TlJkJMFm0rqajdeaAcpkHr4yMR0yagrIRtGEMmq2wjBBoSDYZg7Muh131XukENFmPrWbyxr3NvwzcdqmCWopZ5+BdkitUF3cQv59g5iX/7WbrKx1bYwXF4Zwurf+++HTVWVu47u2lvV1NBQf/G6pUKrgdh/eY9jV1CGlgMgY4Xbd779rVpHVCE8v8II5nBWrfnEiTNnzlw+ccNSc0xn0ouSqF7S86bHs2R37s1gYk9/eaPYboPZ9qjwfFLzl5IoGox2k8ViMdnJxBeGa9TPeuNaX2P11rbG0p2VlefMVpMNZgfV4fuRlpXTx0lAQiSZANa2fEkvPUg4g7VZPv1XQ2vbCatOY5NsUnX4f9BvxsohvbuNCSvZzNc+uVGjMxkI3hUP4hefTgUIdotFY1Czom3886oHsaytlhxJJXX1U9NUD2gh328Jf1asVT3AZfhzP39ukeqH8kN5gMvSvHl9wvLCUuYHrBI9rHe6ep3mKS4m1HcN6usoo6OioiZOSujvr4EJszvqPjkzJYQ+onHAKnT/XmGQxFMUTQmhvk2gnIWDwjA8z2MqPs173VVMZ2X4h+ctCLKP0UygWxzDD+0VCJGYXB3uNgRFYXK93WA/ZSXEDQquj1l0oLHh6BG9AmGwIA9nNyCQ0Xe8maJ52gGB53O8QuAQIxeahopIEIJSZQ4Jg/1WmMlRg3rHJmCaR9zQ7kBIiktMzZr50ISoEf22YoTg7gADRcd6gSBMSImLi0uInfgwjUAnBCEiiD4ogfMvoaBeuHcgqPL4NQNV3YDAKI8kRwsMUX5BmN0VAu3qIRmBAgpTAnfRBxrj/RnSSTyo1v10X0QPuhx8dDQRBR6nd4XwI7fX+QLFCAMCKypoDuNvpDEw5x4NNwhQxvKgE1yeXwgqAazI5IBdxBI74wdWLJE7bkAYQlA9RAlgGwb6hRANEAI75dGyU/UtCrIp7iUf2csQVKkc6DztF0ISvDuwMo91hBa+hjrS4Y/ifZyOSEvNGjjAv7IMTA1CKVNTEwZHhApBFY0YCr/uD8IcwQOTj5G+CX99WgUwPuCcGa8+cnA+j2kwTggxy1Y7/W16fq4zGp+Svmo0/H4W0QJN35aPrb6TviqjSzPJuaQJuWQ4Q+I76emzgoGgWkUM2jA/EJ6hg4HAUNzkWTcRSvZ69kWGQhmIYlDXU8kQwTDOwAVKzhy5NQhrHafTeIZEM/nEqVO049ZXw7FbHs1kfy9QHTEhBEC3sp3NMEFBgJoUnuwHQiK4Bz4QgwiGYsaMxIj2jovGEOsLMNxdzmQgvuPKaXKZSIiVkXZccH+4nHRVX4bBCGOnaerzB4r+XtlMPA+TKprwxJjnoC16IhwF7FRwEPKUDrwLhFyAkB9wDgn9DVXBcAkjvZx9lWc4pMqnKeyp9hjmMiQwjYqMS4jOpTHcKJ3nCaHvHMR8jaOX5sa6IGxVNDOFh3cw9K15sYkDx0wGDQfBfCkUCBEwFFyaTwjDMEfxgwNOahCF+quWIkQjbwaDpgHOCOjIw7bdFigsCFGdr2M2QGzPx6uQOwQqYw3i+7oHZp4QBMSAQcnrtIgLBvFA96UQIKh4mJ0v8wkBJIwLHO7GcxQHhgVk24tVSKBk8QUPwUUqTtwBg4ge8ZgdCTyfqIAAL3Cuyg+EHOK/BIWQxWDECYk4eAiRID2CAsKrna+ywGTxQnZACDmcbDyzMIW6igLPIB5EIIWnsMJHZpBYrZ9n/C1gDmOFJFCMMuj3gPAsqd9lKojAOoQAYRjjfppMoBIddjsrnQeLRvEvBo5EEKi2rOOIwkmeDh706d/E14KY5CgGHcxlPy9tIdlSukOI9ANhgcAhbpYXY0xcTtAQiBmi+7hDEHjwLQKGnzT4nWDyS+BhZAipmOJvd3ENvMOogCS4Dyn2EYAke0K46TH7U0K4xbvfqqus5nGoEAb4SKoEESI4jCue7eyK9hCF+TTndJwgJm63EwdV6QjvSSpaAcHDbCghxGCAkOStmSf5UCCQqD7RJwT6jeSAEAaAAETL/xvKUXiDRwqEciYX1yCKd931FOL8fOUmlBCW+oGQgX0EosQWhQBhEEehBCUEkovE9P/gF/G/YwN6SHBszmmYICDknsiNgwjGKU3LMIVdPhIshK9szWROCSHbDwQyyU3ykTMORRJyoJ8sd++QqprzTHbyyJTIETkkegHrHCC3FI8pOqaTB7VGmUfg0zrlU+g0cSNBWJGP5tKUEDw9tDuEPkSpfDQTEwqEreCt57tDSHDPCGGQ50AJ7hzksh1w11+7RCHNbQ4aBwFJp4+MBAjxPhOWQUOA9umHfTcTPATwgyjFZ9is+i1InPCG/9Qn44IQywjcBveUDNVhb7KRm4+cB9c006fHZdwgcP4gTAJt8JnEFuiQvAO3+v/tWk1PGzEQXQilSwg0AQUoH0oCUgmlpyRwIg1cSMoPAMoRtT+gvVi7si37j/TXwQ164sKtM5uQ9Xq93kWVqh48pyhZOd7n8fi9N84GAZmQFHUbCEz1XUJQxsPYHn+mysqIx5fP86HqZWrxlAAhtIBQ5hYsH2RhEIY6WdJB8CgzEUHFrpRqTvbgfD6eCqSAx/25Z8WGvAwJrxbKBGnLhDLs1dmsYQbFQUD7j1pBuEKNZamNS5CT58r2Aho+ToUlIJAPCbtyOkxDKFUytb2YAkL4ZNsOwBJKmcOIwiCgD9yxguBhJbeQ500glop9eAIgHE5mwaSS8z9gIi/FpwKfu9nbSwXBth1QJJ1mD1MUBDhkGBnaQUA/vW05IVnSaIYUjs72phCJXO7SOHeXSKoZorhNCT/h0ALCDhT1LMtnrjgIezLxqxGE7/DIyMK24Ow7U01sGoafIlklqFpQrwGE/RgpluXflhK0OWhZQPBAhAUZfcJKYZ6wgabMdQ4IeG73LBuK8OT7EFDPF6iEkmb9BowzXdZBQGg5I42TICzbQDiFonyZuakKgoAiLPRyQPgNhdHS/QNlRHXtQmuoiRVrQp/IFxZmzGo2JMVBWIfdbN4PVVoUhNsgYKyeA0IdRW/26fARWJvWrmQgGBdY6m+xM5wgA0dZZbEwCJilsmVcmqIg3ACn4vdeDggyMflUNDnhmh5sA31CV2NLk4cgJM5ijR0wXjEQ2NeBsI6dZQMBPxYFTZUgcs+8HBB2kSb0rCdk4BtXU//XGqxabNq2oCrI1FWnb0GkXQuD4H1FKypFOY6EoEW0QznAM4Q0c0CoUeAcNsLYAHZUTY2NglzvPa6AFFPWHtKQsY7O96noi9eAgGse6tbETxCF/Vy3uXoatX0E0aaPIKx5KvOJri/Z7nq10pJ/nGSpI3A2UM5IKCYUb04IxQ7o4o2aee91IGD3IqBcuTPVRzerlrbcFz5E4Z90SistECWM4TpwrhsSaKrslUsY859bj3hVhVC6ZpdPho5tmRGZ2vCrjDCV+uyMvWTRbcJRv7N9g30z2dCbL7kg4C0Y9IEaqzjM+1N4t6hllwLhDp+Ch8V4x439I55mnG8nl9wgOBwcOB0htu1WMyHPhuIs0+2KOSC5SbwGLOR4SMvontQdCSJvOweEQAfB2+V4xwDekUtICwoonHgGEPSQ8OCyIcl1jxGq/K3dUdkxZoJXEr5B4Uupbcw34fTOIJQW8mtmQvon3GUNvtb99APIp/uUGSWm/VjQnfIg6c3oIHABjF5wfmRmP7V4UpgLAbnMu7Z1MfL7Jj24b/ju3Pcbej+yPsAUhTXk5Gbi6Tb8/gTBYddv64PPjKY/qzDUwiiHoda2Jiptxfdjjdbw1ahcVZvZ9yG2yvGTvXdN75/ERr096mwe/O0wi3Ufhln0XLhw4cKFCxcuXLhw4cKFCxcuXPzH8QcZsMxPcHNuLwAAAABJRU5ErkJggg==;" parent="1" vertex="1">
          <mxGeometry x="870" y="174" width="170" height="127.5" as="geometry" />
        </mxCell>
        <mxCell id="Zr7tizGE0mZnI7TlOZvU-2" value="" style="strokeWidth=2;html=1;shape=mxgraph.flowchart.database;whiteSpace=wrap;" parent="1" vertex="1">
          <mxGeometry x="905" y="314" width="100" height="100" as="geometry" />
        </mxCell>
        <mxCell id="Zr7tizGE0mZnI7TlOZvU-6" style="edgeStyle=orthogonalEdgeStyle;rounded=0;orthogonalLoop=1;jettySize=auto;html=1;entryX=0;entryY=0.5;entryDx=0;entryDy=0;" parent="1" source="Zr7tizGE0mZnI7TlOZvU-3" target="3q12vl5ihhkgBvTzabu4-1" edge="1">
          <mxGeometry relative="1" as="geometry" />
        </mxCell>
        <mxCell id="Zr7tizGE0mZnI7TlOZvU-12" value="Send to queue" style="edgeLabel;html=1;align=center;verticalAlign=middle;resizable=0;points=[];fontSize=18;" parent="Zr7tizGE0mZnI7TlOZvU-6" vertex="1" connectable="0">
          <mxGeometry x="-0.5292" y="3" relative="1" as="geometry">
            <mxPoint y="-7" as="offset" />
          </mxGeometry>
        </mxCell>
        <mxCell id="Zr7tizGE0mZnI7TlOZvU-3" value="get_cdc.py" style="shape=image;verticalLabelPosition=bottom;labelBackgroundColor=default;verticalAlign=top;aspect=fixed;imageAspect=0;image=data:image/png,iVBORw0KGgoAAAANSUhEUgAAAgAAAAIACAYAAAD0eNT6AAAABHNCSVQICAgIfAhkiAAAAAlwSFlzAAAN1wAADdcBQiibeAAAABl0RVh0U29mdHdhcmUAd3d3Lmlua3NjYXBlLm9yZ5vuPBoAACAASURBVHic7d15nFxlne/x7+9U9ZaQdGczBCQgjKMiI8ZAOul00iI4Mm4Ic/E1o+OMjsi4XJ3BZZQlaZsE1EFxuerMxauO66iMIirLuMWQTqfTIeIax1EQFAiQkM7eVd1d53f/SBCMWaq669Rzqs7n/Xr5SpA65/mGrtT51nOec44EAAAAAAAAAAAAAAAAAAAAAAAAAAAAAAAAAAAAAAAAAAAAAAAAAAAAAAAAAAAAAAAAAAAAAAAAAAAAAAAAAAAAAAAAAAAAAAAAAAAAAAAAAAAAAAAAAAAAAAAAAAAAAAAAAAAAAAAAAAAAAAAAAAAAAAAAAAAAAAAAAAAAAAAAAAAAAAAAAAAAAAAAAAAAAAAAAAAAAAAAAAAAAAAAAAAAAI3MQgcAUF0LL/WmaN6+WbnS6ByZZpYUtZri1sijljiyFlPc6m4tZt4iWau7t5gp525FMxXdveiyQmRejGMrRjkveBwVo8iLHtueXOzbx/Pj24b6Zu8O/WcFMHEUAKBOLOx9YIqp9dQottNkdqrJTpBrjsxnuzRb0myTzZbUXptEPiZpu8u2m7Rd0nZ3327SI3Ld6+Z356PS3QN9s7dK5rXJBKBcFAAgRXp6vXW/dp2Rcz0tdp1m0qkunWbmp0k2L3S+iXBpxNx/42Z3m3S3u+422d0ejf10qG/2/aHzAVlFAQACObN3uKNVera7FphrgWQLXP50M8uHzlYz7tvddJfJ7lKsu0qyu+7MTf+V+iwOHQ1odBQAoAYuvthz956+a4G5nyO3xWZaIOkpoXOl1D53/7GZfuiyO5rHoh/0v2f6ttChgEZDAQCS0OvR2dr5LHOdI9k5Ji1Xzc7NNxp3uf3c5WtcWpOLbO1gX8eO0KmAekcBAKrkrCsfPSnK5V5q0rnu3mNmM0NnakjusWQ/kbTGIt06trV97eYbbCx0LKDeUACASei8avcz3OILTX6hzM4KnSeTXDvd/Ftmumlc+2/f3Hfi/tCRgHpAAQAq4ra4d9fZsfuFJl0o2dNCJ8LjXBox6dux4ptyFn2TUwXAkVEAgDIs6t3+ZMX5v5fp7006OXQeHJu7j5vZLbHZ/ztly/TbbrzRSqEzAWlCAQCOoKfX8yPx8IvM7HUunW+yXOhMmCDX/S7/dC72T264ZuZ9oeMAaUABAA5xVu/OU3OxXyLTq+v15js4AvdYpu/I9Ynxhzu+weJBZBkFADhoyVXDC2KzKyS/SGZR6DxImOt+Wfz+cRv5BAsHkUUUAGTe4hW7l8ZWutJkfxE6C2rP5dtM9uHxYvzRze+buSt0HqBWKADIrEW9O//cYl0p0/LQWZACrt2SfyyK8h/a0DftkdBxgKRRAJA5Z6/YtcQs/qDJOkNnQfocfHjRh1qj0WvX9s3dGzoPkBQKADKjq3fbCeOef59Jr5SM9z6Oyl0PRqZ/Hry64wuhswBJ4EMQDe/8N3vLjhm73irXFWY6LnQe1Bd3HzDZWzau6tgcOgtQTRQANLRFK3ZcYIqul+nU0FlQx9xjN/tUyaLLN/dN3x46DlANFAA0pEW926fLcx8z2d+EzoLG4fKHzaPXbFzVflvoLMBkUQDQcBat2LFMij5rplNCZ0GDcv+Y7d3zjsEPzh8JHQWYKAoAGsbCS70pP3dnn6R3ciMfJM3lv8jFeuWG1TPuCp0FmAgKABrC4t6df+KuL0laGDoLssTHXLpy6OoZ14VOAlSKAoC6t3jF7qVupZslmxU6CzLK/XN7oo5LtvTZaOgoQLkoAKhri1buvFjunzWz1tBZkG3u+kHzmC7qf2/HcOgsQDk4T4q6tWjl8DtM/mUO/kgDMz13tMkHFl05/JTQWYByMAOA+tPrUafv/Jhkrw8dBTiUy7eZRy/ZuKp9Y+gswNEwA4C60xnv/DgHf6SVyebI/L8WXbXjzNBZgKOhAKCudK4YfrfM/iF0DuAY2s3sdk4HIM04BYC60bly5xskfTx0DqBc7v7rXJRfyuOFkUYUANSFRb3D/8tifZkb/KAObc6NjJ0zcN2cPaGDAE/EhylSb8lVwwvk+jwHf9SpheNtTTxSGKnDBypSrafXW2PT503WEjoLMFEmvaRz5fDrQucAnogCgFQrxLuuldnpoXNIkrv2uvxXLt0nd+74hoq42/Vn9e7ksdRIDdYAILU6e4efK9f3Jav9+9R91E3fM+mmUhzd0VwcffDQc7hnv2vXrFxLfHLs9gK5v8xMZwfJirrh8vVD1rFcfRaHzgLwYYVUWtS7fbrF+Z/KNL+2I/vW2O1qi8a/ONQ3e3clWy6+YvuJcS73BpNdJtOUpBKi7r1r49Ud7wsdAqAAIJU6Vw73SbayZgO6drv0vlK070Ob+07cP5ldLbxi77x8bqzXpdeaWb5aEdEgXPubxqNT+t8zfVvoKMg2CgBS5+C3//tk6qjFeC791MxfurFvxr3V3O/iFTt63OyrPKUQh3LX+4ZWdbwrdA5kG4sAkT6ef1PNDv6ub7RZsavaB39JGlw1c62XdLakn1d736hzpjcu7t05M3QMZBsFAKmysPeBKZJfVoux3P0LQ1H7hWv75u5Naoyha2b8JjcytkSuHyU1BuqPSdNir837HDgSCgBSJe9trzPZnKTHcfnGtqjjklqsxh64bs6eUlx6qdwfSnos1A+TvXlR7/bpoXMguygASBWX/XUNBrnfrella/uskPhYB915zazfWWQXuHvNxkTqtUel/PmhQyC7KABIje7Ld88x19lJj+ORv3lT33E1/zY+2NcxJOm6Wo+L9HLTC0NnQHZRAJAao01+ftL3+3dX/1DfjK8nOcbR5Avj17mcy79wkL9Acq7GQhAUAKSHxy9KfIzI3pH4GEcxcN2cPZFsVcgMSBGz4xf37lwQOgayiQKAdOj1yGQvSHIIdx8Y6msfTHKMcrRY+yck7QudA+kQx8Y6AARBAUAqLBzbNzfpa//N7BtJ7r9ca/usINdtoXMgHcz0tNAZkE0UAKRCU9PYvKTHiCy6OekxymWmYOsQkC4uT/y9DxwOBQCpEMdRoh+CLt23oW/6fyc5RiVGzG8JnQHpYG4UAARBAUAqRB4n+iFo0j1J7r9SP+6bsdOl4dA5kALGDADCoAAgFTxK+luQb012/5UzT18mBDHz9F5vDh0C2UMBQCq4a2qyI9iDye6/cp7CTAjBrEk7p4ROgeyhACAb3FN32Z0ZlwICCIcCgKw4PnSAQ7k8dZkAZAcFAJngZieEznAoU/oyAcgOCgAywTxtK63dxAwAgIAoAMgEl85Y2PtAahZada7Y9RzJmkLnAJBdFABkgpm1RvGURJ81UAmXXxg6A4BsowAgMyLZBaEz/J7potARAGQbBQCZ4fKX9PQ+fFzoHEuuGl5gsmeEzgEg2ygAyAwzm1mIm98eOkfJtDp0BgCgACBbzN7eefmeuaGGP7t3x3Ize2Go8QHgMRQAZM1Uz5feE2Lgnl7PW2zXhRgbAA5FAUDmmOk1nSt2XlrrcUfinR8xs0W1HhcADocCgGwy/+jiFTt6ajVc54qdbzSzN9RqPAA4FgoAMsqa3OyrS3p3dSU9UudVu/7G5R9OehwAqAQFABlms+I4XnP2yh1/l8juez3qXLHzXxT558wsn8gYADBBFABkm1lzpOjfF60c/vCi3u3Tq7XbJVfuOHlRvPMWmd5RrX0CQDVRAABJJnuLPPfrRSt3vqmn1yf8bf3M3uGOzhU7/6WUs1+a2fnVzAgA1cS0JHCQyeZI+uiI77xs0YrhL5rs5o2rOjYfa7uFl3pTfu6u58r8pR7rFTLNNFkNEgPAxFEAgEOY7DSZVkha0bli5/1u3i/ZgyZ/MI5tayRv9sjmmfwEd5tv2vVcmaZLJuO4D6BOUACAozE92WR/9dg/RNGBX+3gP3PAB1CvWAMAAEAGUQAAAMggCgAAABlEAQAAIIMoAAAAZBAFAACADKIAAACQQRQAAAAyiAIAAEAGUQAAAMggCgAAABlEAQAAIIMoAAAAZBAFAACADKIAAACQQRQAAAAyiAIAAEAGUQAAAMggCgAAABlEAQAAIIMoAAAAZBAFAACADMqHDgBIkqLos67SYOgYWWSxnSHTqtA5ANQWBQCpMNQ3fYukLaFzZFFn7/BOuYWOAaDGOAUAAEAGUQAAAMggCgAAABlEAQAAIIMoAAAAZBAFAACADKIAAACQQRQAAAAyiAIAAEAGUQAAAMggbgWcNr0eLdLuRealTik6QdLxLp9nbvNkPsspbagyd2vmRsBhtY7mW8p9bWFg2X1yL/v1KTAis4fctdWkhyRtNdM9o9b03WlLvv9w6HBZRgFIge7Ld88Zy/kLFMV/Id/5AslmPfE4bzLJfv87AA0mbray/2q7/AQzq7fP7lOe+Cd0Sfl4zEfWL/uhzG9zt9vaHjh+o738xlKwhBnE8SSgRVftONOi6Eq5/6XM+GYPZFRs+Xmb+o57qJzXjqxfVjJrwJlA1wMyvb+lef8Ndtbm/aHjZAEFIIDOFbs63fxKk14SOguA8CopAIWBZZ50nsC2yXV9i5c+Zt0De0KHaWSN1yJTbNGVw0/pXDl8u8wHOfgDqJR7Jj6z58j0nkKUu68w0H2ZO19Uk5KFN1MqLLpq+O+Vsx9L9oLQWQDUqR/0ZOYz26QZkl1fHFj2/f3rls4PnacRZebNFEr35bvndK7c+XWL7JMmTQudB0Adm7Mte5/ZpudaZD/Z39/9N6GjNJrsvZlqqHPFzuePNpV+KumC0FkANIDd03OhI4RgZu1RZJ8bGVj2Ff/R86eGztMoKAAJOfuqna+Q+S0mmxs6C4AGMWVapj+zTbq4sG/k+7s2njsrdJZGkOk3U1I6V+74xyjyz0vWFDoLgAayd1/mP7PNbFFzqdi/f2jZSaGz1LvMv5mqbdGK4dVS9CGp/Bt7AEBZxpoyeQrgUCZ7ejTmA4UNy58ROks9owBUUeeK4X8zsytD5wDQoFqKfGY/xuzJHnv/6GD3wtBR6hVvpipZtGJ4tcz+IXQOAPUnL4/Led2e5hY+s5/ATDPj2G4dGVz2lNBZ6hFvpipYfNXwJXzzBzBRuWJprJzX2ViOUwB/7EmK/VZf1z0jdJB6QwGYpMW9O8+PTf8aOgeA+pVrKZZXAEbH+Mw+DJM9vRjZTf6z05tDZ6knvJkmYclVwwviWDfW4ZO5AKRI244nlVcAmigAR2TqKeya+WluHVw+3kwT1Hn5nrlxpFvMdFzoLADq2+0zVV4BKHEK4GjM7BXFgWVXhc5RLygAE9U0/knJ5oWOAaDOucfqs7IWAVo+z2f2Mbh57/71y7pC56gHvJkmoHPlzjdI9qLQOQDUP5dGy37xeInP7GMwWS6Sf94HF00PnSXteDNVaEnv7qfL9f7QOQA0CLOypv8lyfIRpwDKYfaUYtzy0dAx0o4CUIGFl3pT7PHnZZoSOguABuFedgFQaZzP7PK9qri++69Ch0gz3kwVyM/d2SeJu04BqB4rbwGgJJlzxVElYtO/7l+3dH7oHGlFASjTWb2PnuGmfw6dA0BjMS//FIAkCkAFTNZhuejDoXOkFQWgTDnPfchknH8DUF2VzACY84TRCpn0spH13eeGzpFGFIAynL1i+EJJvIEAVF8FawDGOAUwUR/0r1zMF7hDUACO4fw3e0tk9oHQOQA0Kiv7MkDLcwpgIszszwonbb00dI60oQAcw/CMXW+XxJOmACTCKzkFUMpxCmCCLNYqX9PTETpHmlAAjmLxFdtPlHR56BwAGlgllwHmmAGYMLNZhZbSu0PHSBMKwFF4Pr9S0tTQOQA0sEpmAFSiAEyG2xu5LPBxFIAjWHzF9hPl/urQOQA0uEouA3RmACbDTE1Rzric+yAKwBF4Pv92mfFsaQDJsgpOARhrACbLpdfu2fC8uaFzpAEF4DAW9u6eLRcrRgEkzip4GJAxAzBpJmvNx2NvDZ0jDSgAh5GLS//E/f4B1AR3Aqw90xt8XfeM0DFCowAcYlHv9ulm9r9D5wCQERUsAiyJOwFWg0nTijm9JXSO0CgAh/L8myS1h44BICvKXwNgzABUjbu9xdf0HBc6R0gUgCe4+GLPmeuNoXMAyA53K1bwcgpAlZhpZqElfmXoHCFRAJ7gvqfvPl+mJ4fOASBTdlTwWk4BVNcloQOERAF4AjN/XegMALLFpO0VvJYZgCoy6axif9ezQ+cIhQJw0MIr9s5z9xeFzgEgW8y97ALAjYCqz6NcZr/4UQAOyuXGX2PGozYB1FZsvq2Cl/MZVWXu/kq/c2EmL/umAEiS3Ex6begUALInUr78GQDWAFSdmbWPjE65OHSOECgAkhb37jpXplND5wCQPaWo/BkAZwYgEZErk6cBKACSYve/C50BQDaNKn6kgpdTAJJgWjoy0PMnoWPUWuYLwMJLvcncXhw6B4DscfnDP+6bsbOCLTgFkBBT6aLQGWot8wUgN2/XOTJ1hM4BIIPcflrZBixUTowbBSBrzP3C0BkAZJNJFRUA7gOQHJcW7RtYfGLoHLWU8QLgJumC0CkAZJR5hTMA3pxMEJjJIjVl6gthpgvAot7dnZLNC50DQDbFVtkpAOdW5YkyeaZOA2S6ADD9DyAUl/bsU/tPKtvInppQHEhyafmujefOCp2jVjJdAFwUAACh+C1b+my07Fd/5eKcpKckGCjzTJZrHi9k5rRwZgvA2b27/tREmwYQin2tklcXTnjgFDPuBJi8KDOXhWe2AJj7OaEzAMgmdy+0WfG2ijayXOZuVBNIj7ssdIhayGwBEAUAQChm31nbN3dvhVstSyQL/oCZZo6u7zozdI5ayG4BMD03dAQA2WSxVzT9f2Ajz8y56dA8ijLxBTGTBWBR7+7TTTY3dA4A2ePu4/F49M1KthlZ132qyc5IKhP+kLtRABqWx5n44QJIH5Pdsem97Y9WtE2OG5bVli93b/zjY8P/AY+AAgAgCDdVPv0vcclyDZlZ+9j6rueEzpG0DBYAN3PvCZ0CQPa4+w7Z+Ocq2aa4vucMyVgAWGNxlGv4L4qZKwBn9e54psxmh84BIINM7x3qm727kk3c4suSioMjczX+F8XMFYBcKTordAYA2ePSA9GePR+tZJs965c8yeWvTCoTjsxcC0NnSFrmCoCbGv68DoBUWjX4wfkjlWzQZLk3mKwlqUA4CrPj927sOT50jCRlrgCIAgCgxtz9123W/smKtrn1/BbJ3phUJhxbPh5fEDpDkrJVAHo9klsm7vAEIEXMVq7ts/FKNim073mlpCcllAjlcKMANIol2vOnZjoudA4AmfLjoavbv1T5ZvZP1Y+CSrgoAA1jvBQz/Q+gtsyukMwr2WRkoPt8M/uzpCKhPCZRABpFFDX2DxNAurj7Fzb2td9a0TZ3LmyS9MGEIqEC7jrVBxdND50jKZkqAHIWAAKoFf9lWzT6+kq3Ko62XWaypyeRCJUxk42UWp4dOkdSslUAzFkACCBx7l6Q+csrfeTvvsGeJ7trZVK5UDkzPSt0hqTkQweolYXv3NEu2azQOQA0PpP948a+GT+pdLsojq83s6lJZMIEuZ8WOkJSMjMD0Nxkp4bOACAD3P9j46qOGyrdbGSg+zyTLk4iEialYY8dmSkAsTXuDxFAOrj8V7nC+D9UvN2dC5skq+g2waiRBj52ZKYAeAP/EAGE5+4FxX7xwHVz9lS6bbHY9laTnpZELkyS6ymhIyQlMwXAGngaB0Bg7qOR/OVDq2f+uNJNR9Z1n+rSiiRiYfLMbOqeDc+bGzpHEjJTAOQUAAAJcB+No+gvB1fN/GbFm67rnqGcbmHhX7rlSuMNefzITAFwZgAAVJv7qCu6aFNf+7cq3vRnpzcXI7uJa/7TLxd5Qx4/slEAej0y08mhYwBoHC4vKoouHFrVfstEti/smvkpmXqqnQvV5w26DiATBeCs8R0nStYUOgeAxuDyonl0YaW3+X3MyED3KjN7ZbVzISFGAahbls815AIOALXn8mJk9rKNq9pvm8j2I+u7X2Oyq6qdC8lxeUMeQzJRAKLY5oTOAKD+ueveyGz5YF/H7RPZfmSg+zzJ/m+1cyFhroY8hmSiALiXGvKHB6B23PW1YuQLBvs6hiayfXF9zxly/aeZOB1ZZ0yNWQAy8SwAi5gBADAxLi/K7e1DqzomfKe+vWuXzXOLbzFZezWzoTbcGrMAZGQGgAIAoHIu/1Uu1pLJHPx9XfeMXN6/JWl+FaOhhkx2nK/paQ2do9oyUQCsQdsbgCT5F/Mj4ws3rJ5x10T3sK+/64RCTneY2XOqmQy1NzI1brjjSCZOAbg0x0KHAFAf3O/0SO8c6pvx/cnsprBh+VMVx9+W7JSq5EJQuXHNkfS70DmqKRMFwNznyKgAAI7M3X8duV05uLrjRsl8MvsqDix7jrvfLuP0Y6OIG/BKgEwUADdmAAAcnssflmxV6eGOG4ZusLHJ7m+kf/k5sfxmk6ZVIx/Swd0pAHVqeugAAFLG/X9c9pm2aPQja/vm7q3GLgsbll/kHn/RZC3V2B/Sw6zxjiOZKADm1iKmAAC47nHzr7jpy5uunvGjau56pL/7de7xv5osV839Ih3M1HClLhMFwOXNRgMAsse126V7JX0nlr5856qOTUkMUxjovkKya5LYN1LC1Rw6QrVlogA0YnMDJsU9dik26eCv9vt/lhS7/An/TrHLYjOVHv9nj3WE7R/fz4Ex5CpJdsj+FNtj//6JY/zBa7z0h/s7dIw//DPIbMzcH1Cke026V7J7B6/u2JHof8Zbz28pduy7XtIbkxwHKdCAx5GGLwA9vZ4v+C6+/mMy9rlrm5lvc9c2k22TaZu7bzPTNjcNR7GXSlHOo4MHpliKIymO5bFiefT7/y8fl+SxRQf+v5IU5w7+aiX3SIpL8jhS04HX5eQ5eTx+8HXj8jinOI7G5GNqjfPucZM8LrrHuRb3EXncolLcplK8V+Nx0+6Sd4yfFG8rKj51WPGNNyqe7Ap3HFBcv3xBwfZ9zqRnhs6C5LkbMwD1ZnjvQy1tU9tCx0AdcPk2kw24fL2ZbxiXftu0e++2wQ/OHwmdrRo2hw7QIPwrF+eKT976ztj93Sbu658Z5swA1JvpTW3Nk76uBw3J5XfL7fvmPiBF64dWd/wqdCak28hAz58UtfWzki3h1iJZwwxA3Sm25FsiHw8dA6nhYy7dJNe/Da2asSZ0GtQHX9PTWmwp/bN7/C6ZMaWYQebMANSd/PhoS5zLxCMPcHS/keuGKMp/akPftEdCh0H9KGxYflExLn1AslP41p9pFIB6E1uuWWLNU2a5fhRHtmJT3/RbWPyGShTXLX2m5+wjcn8etxKHi8sA607OPS6FDoHac93jpquGVrV/iQM/KlHc0P0sj+1tsfkrTNbwn5Eoj5nFoTNUW8O/uUdVGs2JG3NlxeP3dW+/YXMV7uuO7BhZv+wFJn+buz1fJnHzMBxiNHSAamv4AtCUby7GzhxAo3P3cTP9S2Ff4dqffGDevtB5UB/2rl02L5fzF8v0ZjP9mTjo40hcxdARqq3hC8B+jY+28pe6sblv8cj+bqiv487QUZBu/rPTmwu7ZnVLfr5kLzDTszjooxxuzgxAvWnbvafo0xruIU6QJPdYsg/M2Nmx4vb/Yw3XzjExPrB45qg3n+zu8z3y+ZJOlmy+ueYXdvkZZprKQR8V88b7jGn4AnDS/SeN/vYZu0LHQJW5/Fe5KHr1hr72gZqN2d81baQ515Ebi9olb5K5WVyKZHmTuY2V4sgsZ4riSOam0oHf22O/tziSyRTbgV/NzeLowGstjmQ5U8kPbp8zxXFkJpMik8eRJJNZVIrdDmxvB/59HEeyyCSZ3COZmcwjxTLpwO/ND7xeOrjtYxncI5lc0pi7jUo+duD3GsvlbMxlY/LSwV9t1N3G3EtjTU025q4xVzTmbmNeGh+N42gsnhqNTVPTmDQ8JmnMzto8oXUY7jJtXpiX1KTxXF5xlN9rU5oi35+P4qjVLXei3OdHOZ0st/lyzXf5yZLmF2VTZa4/Oo/PeX1MRgPOAGTib8OilcPjPKKzcbjra6Vo36s29524P4n97127bF4+70tdtkDSAjOd6fK5vIcmxl1jksYkHzNpTKYxycbkHunAl5C8H7ilbl6mvNyazMTNO5AurhWtS9etDh2jmhp+BuAAG5XE3bsagLveN7Sq/XKpo6qX9vmanuNGWsYvijx6lUvPkx34Sv0YvjlOnJmaJDX90feNJ1xb/wf/hv/USKMGnAHIRAEwV1FGAahvPuaxXj+0esanqrbHr1ycK5z40HmSv6qg+MJI0ZQD08QAcAiPWANQj9y8yDe4+uXSsFx/ObS6Ovfu3zew+MTIm95a1NZXmNnxHPIBHIubUwDqkmtYprmhY6By7nowdnvenas7fjnpfa3paS22lt7msS5nJTiASkSm4dAZqi0TC23MbFvoDKicyx8+cPBvn/TBv7Bh+UXF5tIWua02s6nVyAcgO+JYDXccycQMgLu28SyPOuO+3T0+987VMyZ18C+u7znDrfRhHugCYDKiBvwimYkCYPJtTPfWD3ffIffzNq2e9fMJ7+PO89qLo4VrYpVez+V7ACZrLEcBqEtu2sbhv27sMtmfb1w948cT3UFhsPv0QrHwdTN7Kj93AJPlLp+6X9tD56i2bKwB8KjhmlsjcnnJzS/auKpj80T3UVjf/TKPbdDMnlrNbAAyzLTTzlk7HjpGtWWiALg5BaA+XD7UN+P7E9nQXTayflmfy75m0rRqBwOQYd54CwCljJwCiEzbvKr3jUO1ufTVoatnXDehbQcXTS8MNH/OTC+tdi4AMFEA6lZcirdZlInJjrrk7v+dL4y/ZiLbFvq7nlaIo6+b2dOrnQsApAPryEJnSEImCoCVmh5SVAodA4fh0p5clLtw4LoZeyrdtjDYfbpKusNks5LIBgCSZO4Phc6QhEx8Ld74nmkPS9oXOgcOI/Z/sn0tMwAAFhBJREFU2tA3/b8r3Wz/+iUnq2TflnHwB5Aws3tCR0hCJgqAJMn1m9AR8EfWDa3u+HSlG+1Zv+RJptx3ZDoxiVAA8AdiUQDqmasxf4D1y8fcotdLVtHyTL/zvPa85f+Ly/wA1IoxA1DfzCgAaeLSB4b6pm+paJuBxW3F0cI3TXp2UrkA4FDNLc0NefzITgFgBiA13HVvyfavqmibNT35gvI3SrYsqVwAcCh37bCzvrsrdI4kZKYAxN6YUzh1KfLLNveduL+STQotpV6TvSipSABwWA08e5yZAmAUgHRw3zLU13FzJZuMDnYvlPSuhBIBwJG5N+yxIzsFYN/OeyXuBxiauz5QycI/v/X8llJsnzFZJu5ZASBlmAGof4MfnD8itwdC58g237o31/H5SrYodOx9t0nPTCoRAByd/Tp0gqRkpgBIkpvuCp0h2+zDW/pstNxXjw4sWyTpHQkGAoCjykX+o9AZkpKpAmByCkAgLu0ZL8b/Vvbr1/S0ltz/3WS5JHMBwJG4fLxpx3E/C50jKZkqAO7+w9AZssrk39z8vpllX0pTbCm91cyekWQmADgqty32wtuLoWMkJVMFII4pAKHE8m+X+1r/2enNcr05yTwAcCyNPmucqQJw5zWzfif37aFzZFE83lx2ARjZPeuvZXZ8knkA4NgiCkCDYRag1lw/23ztcVvLfblJlyUZBwDKETMD0FjcKAA1Z/puuS8d6V9+jklnJhkHAI7FXd6WKzbsFQBSBguAZBSAGnOp/OtoI39rglEAoCxmuscWD+0OnSNJmSsAuVI8FDpD1rj7g+W8bv+6pfPl4n7/AIJzaVPoDEnLXAHYcM3M+yT9JnSOLLEoKuv8f2TRAjNZ0nkA4Jjc14SOkLTMFYCDGv4HmyYllcqaAZCJ6/4BpIJFUcMfJ7JZAGJr+B9seriPaMZDZb6YAgAgPNcDrUvu+FXoGEnLZAHw3NgPQmfIDNej5d7/380pAADCs2zMEmeyAAz1zb7f5Q3f7lLB7OEKXvz05IIAQHncYwpAQ3P7QegIWeCusu6jvfuO7jkmTUs6DwAcU5yN40N2C0BGpnhCM/NSOa/L5cebk84CAGX4bduy/ntCh6iFzBYAt/wayT10jobnKqsAWCnHY38BpMH3QgeolcwWgE19xz3kEjcFSphbmQWgKaIAAAjP/RuhI9RKZguAJJnsptAZGp25lVUAFFMAAITl7vtabPy/QueolUwXgNgoAIkrdwYgHqMAAAjL7DbrGhwJHaNWMl0ANvW1/4/ct4TO0ci8zDUAyjMDACCsyP1roTPUUqYLgCS5KVM/8For9yoA4xQAgIBcXmz2+Fuhc9RS5gtAZOI0QILKngFw5ROOAgBH813rHtgTOkQtZb4ADPbN+KFL94XO0bCsvEWA5uPMAAAIJ2PT/xIF4DFfDR2gUVmZMwBjOU4BAAjDXWOj+dabQ+eoNQqAJI9LnwqdoVGVfR+A2CgAAMIw3dze+b1HQ8eoNQqApE2rZ/1c8g2hczQik+KyXugUAACBxPpE6AghUAAel8k3QNJcZV4FkCtRAADUnvu9rUvXfSd0jBAoAAeN2/4vy7U7dI6GU+5VAJwCABCEfdJMmXwuDAXgoM19J+6X+RdD52g0VuZVAJwCAFBrLi+VbOzToXOEQgF4AjNOA1RbufcBsFxMAQBQW263Tu0afCB0jFAoAE8w2Dfjh+76YegcDaXMqwA4BQCg1sziTH/powAcIjJdHzpDIzEvbxGgxJ0AAdSOS79sWbL+ltA5QqIAHOKkX7R/yeV3h87RKMq9DwBrAADUlOm9ZmVeptygKACHuPFGK5n0vtA5Gka5awAiCgCAmrmvtWn/F0KHCI0CcBh7rOMzLmV2YUg1lX8VAIsAAdSGu66zszaPhc4RGgXgMLb02ajc3x86RyMo9yqAkosCACB57g+1jkafDB0jDSgAR1CK9t8g9+2hc9Q7K3cNAKcAANSC2fV2ztpC6BhpQAE4gs19J+53M64ImKwyrwIwTgEASJr7oy1x6d9Cx0gLCsBRRHt2f0iu34bOUc+4CgBAWris17oH9oTOkRYUgKMY/OD8ETe9PXSOemblPguAUwAAEuTSz1sfOJ5v/09AATiGoas7bnRpbegcdavcqwC4ERCARPk/2ctvLPfzKBMoAOWI43+Ue6ZvGDEJZf13M04BAEiIu3+jrav/u6FzpA0FoAxDq2f+WKYbQueoS2WfAmARIIDqc9eoLPe20DnSiAJQpnHLrXBpOHSOeuNW5rMAmAEAkAj/cFvX2l+HTpFGFIAybe6bvl3Sm0LnqDdlLwLkRkAAqszdf9Fq472hc6QVBaACQ1d3/IfkXwydo66UOwMQOQUAQNW4azRS9ErrGhwJnSWtKAAVGi/6G7k3QAU85+W9jhkAANVjpqtalt5xV+gcaUYBqNDm983cFUfxq7gqoDxmXlYBcNYAAKga/37LknU8z+UYKAATsKlv5h0uuy50jnoQu8qbARAzAAAmz107Shr/W7OyP3syiwIwQaWH21e4fH3oHKlX7l9CYw0AgMlxV2wWv3pq1yCPcy8DBWCCNt9gYz4aXSD3/wmdJc2szBsBSWbJJgHQ6Ex+WWvX+m+GzlEvKACTsOm97Y+WIvsLd38kdJa0KvsUgIsCAGDCXP7h1qX9Hwmdo55QACbpzr6Oe6LIXiLX/tBZ0qj883BOAQAwIS59vXVJ/1tD56g3FIAqGOzrGHLFr+DKgD9m5c4AGDMAACrn7kOtGnuFWbmnG/EYCkCVDK2aebOZ/a27j4fOkiplXgYoUQAAVMblm8Zaci/iZj8TQwGoosGrO75gil7K6YDHebmLAJ1FgAAq4P6d1mLuedPPWrs9dJR6RQGoso2r2m+LZee5+47QWVIhLvtaXAoAgLK4+1da2ne82M5Zuzd0lnpGAUjAplXtG9zj5S5l/lpUi1gECKCqPt7a1f/XdsaW0dBB6h0FICGbVs/6eTQ+3inpe6GzBFXuDACLAAEchbv2u/ubWrvWvYkFf9VBAUjQ4LWzH9h4dfvz3f0ydy+EzhNCHJW7CJA1AAAOz+WbzEvPaVva//HQWRoJBSBx5kOrZnxIUW6hS5l7MpWVOQNg3AgIwCFcXnLX1a3FXFdr98AvQ+dpNBSAGhnqm76l9FB7p1yXyz0zq1ZNuTKn6lgDAOAPfC/n0ZK2pet67Zy1XF6dAApADW2+wcY2rup478j+wilyf5vkW0NnSpqVewqANQAAJLn8llIpXtLate685qV3bAqdp5FRAAL4yQfm7du4asb1rdZxqlxvkutnoTMlpVT2ZYCsAQCyyuV73f3L5vactq7+F09dtn4wdKYsyIcOkGVr+6wg6eOSPn7WlY+elMtF50v2Fy6dZ9K00PmqoezLAJ05ACBL3LVF5rfJdVtr+451XNZXexSAlLjzmlm/k/QJSZ9YeKk35Z40fLpZ7gRZfLy7zTPzeXLN8jqbtclF0X1lvpRzfEH5Bnf9NnQKNB6TRtz0kLm2mkUPlWJt9Wj0nqlLBzN/n5TQKAAptPkGG5P044P/ywQ37WcCIBxzfaR1af+XQucAUDt19W0SAABUBwUAAIAMogAAAJBBFAAAADKIAgAAQAZRAAAAyCAKAAAAGUQBAAAggygAAABkEAUAAIAMogAAAJBBPAsAgFz22sL67ueGzpFVLTZ+mXUNjoTOgWyhAACQTOdJdl7oGJlVbHmXJAoAaopTAAAAZBAFAACADKIAAACQQRQAAAAyiAIAAEAGUQAAAMggCgAAABlEAQAAIIMoAAAAZBAFAACADKIAAACQQRQAAAAyiAIAAEAGUQAAAMggCgAAABlEAQAAIIMoAAAAZBAFAACADKIAAACQQRQAAAAyKB86AABUm7t2y7TV3Ke47HgzNYXOBKQNBQBAXXP5Xslu99hvtig32Nq890E7a/P+3/97l+0dWDKnxfKnxPLz3e2lZloYMjOQBhQAAHXJXf8TmV/VsvO4b9gLby8e6XVmcmnDI5IekTQk6ep9gz1Pjkrxm2X+FpO11iw0kCKsAQBQb7a563+3jkbPbOnqv/FoB/8jmbp47f1tS9e9M45yT5X0KXfFCeQEUo0ZAAB1xO8YHdf/mr68f1s19jZ18dr7Jb22sGHpf3ps/2Fm7dXYL1APmAEAUC8+3tI8cl61Dv5P1Lpk/W0WRUvk/utq7xtIKwoAgNRz19WtXeveZGdtHktqjNYld/yimG9ZTAlAVlAAAKSaS19v7Vr37lqM1d75vUcVRS919121GA8IiQIAILXctaU1Lv3tgZX8tdG65I5fWOR/zcJANDoKAIDUcrdLrHtgT63HbV2y/jaTf7rW4wK1RAEAkEou/+qU7js2hBq/5PFKd+0/9iuB+kQBAJA67hqTcu8KmWFq98CDMv9AyAxAkigAAFLIv9nWtTb4avyxcf0fl5dC5wCSQAEAkDpufnPoDJI0fXn/NnPrD50DSAIFAECquLzUptK3Qud4nH8tdAIgCRQAAKli0pB1De4IneP3oui20BGAJFAAAKSKy+4NneGJWqZtv8+9dvchAGqFAgAgZfzB0AmeyM7YMmryR0PnAKqNAgAgVcyUqgIgSS5LXSZgsigAAFLF3VJ38x2TRkJnAKqNAoCUcM6x4gDXvNAR/oglnGlaE+9/1BwFAKlg0nDoDEgHS/pgWyF3mbuOT2z/8pIWfrfmzzsAKABIhVj+UOgMSAeXnxA6wxPt2dwzy0zNSe3fpEfMePIgao8CgFQwy20NnQHpYLKz3dPz2dQ8Or4kyf27i/c+gkjNXzJkWxQbH4J4zJNGBpYtDh3icdGFie7eKAAIgwKAVCjk83wI4vfM9NLQGSTJv3JxTu4vSXIMYwYAgVAAkArtnd97VNJ9oXMgHUy62Nf05EPnKJ704J/LbHaSY3ikHya5f+BIKABIk1tCB0BqnFpoLl0aMoC7zGNbnfxIOZ41gCAoAEiP2CgA+D0z6/X+rmmhxh8d6P4rM3tOkmO4+y/alqy9N8kxgCOhACA1WqLRNe7ccQ2/96RCFK0MMbD3d01z6ZrkRzK+/SMYCgBSw7oGR2S+JnQOpIjb2wr9y/6ypkO6okIUfUlmT0l8MHMKAIKhACBVzKJPhs6A9DCTuflnihu6n1WrMQsDy95vshfWYKh7Wou5H9RgHOCwKABIlZbFd9zk0s9D50B6mNlUj/WtWpSAwkB3r5kuS3ocSXLpWjtn7XgtxgIOhwKAVDGTR7JrQ+dAypidFMcaKGxYflESu/eBxW0j67u/LNm7k9j/YdzX2rz/szUaCzgsCgBSp/n+uV+W+69D50C6HJgJ8P8cGVj2Xl/Tc1y19ltct/TMgjetM7OXV2ufx+LSe+2szWO1Gg84HAsdADickfXdrzGzT4XOgdR6xF1Xt7bsv2GiB9KRDT2nmMer3PVKsxp+Frrf39K+4zQ7Y8tozcYEDoMCgFRyV1Tc0L1GsuWhsyDF3O91sy/H5jdNWdw/ZCY/6ssHF00fLTW/KDa7UK4LknzK35FD+Etal/Z/q+bjAoegACC1Rjb0nCKPf2JSsJvBoI64HnDzQXN7UKatbtqq2KdIdoKZTpD8FHdbGuSg/7hPtHatC3qHQ+AxFACkGqcC0EDuaSlGZ9o5a/eGDgJIFADUgZGB7q+b7ILQOYCJclfs5sundPWvD50FeAxXASD1xr10qdx/FzoHMAmrOfgjbZgBQF0oDHaf7iVbZ6aZobMAFfp0a9e6vw8dAjgUMwCoC62L+7e424vdtT90FqBcLn2rpRix6A+pxAwA6kph/bIXufnXTZYPnQU4Oh9o0fh51jXIEy6RSswAoK60Ll13i8sucT/69d5ASC79vKWkF3PwR5pRAFB3pnSt+0wkf4XLi6GzAH/EtX4019xjy/qHQ0cBjoYCgLrUsrT/Sx5Hz3fXjtBZgMe49KWWXVPPbe/83qOhswDHwhoA1LXCxu4/Vcluk3Rq6CzINnd/T2tX/5XHuh0xkBYUANS93Xd0z2nO2Tdl6gydBdnj8nHJXt/Wte6TobMAleAUAOre9OX921pGo+e69BEWB6Km3H/jbj0c/FGPmAFAQxlZv+wFZv5pyeaFzoIG5/6ZFo/fbN0De0JHASaCAoCGs2vjubOax0c/YaYLQ2dB43HXDpP/Q+vS/v8MnQWYDAoAGtbIwLLXSv4hkx0XOgsahOu7JRt79dSuwQdCRwEmiwKAhrZvYPGJkef/xcxeEToL6pjrATO9s6Vr3RdCRwGqhQKATNi/flmXSR8x08LQWVA/XF6U6/rWqW3X2LO/sy90HqCaKADIDHdFhQ3LXmPStZKeFDoP0s3dvyGP39rWPXB36CxAEigAyBwfXDS9ELdcIfmbWB+AQ7lrs1xXtHWv+3boLECSKADILB9YPLPgTf8o05tNmhE6DwJzrXXXtRz4kRUUAGSe93dNK0bRG+R6q8zmhs6D2nL5rS5dO6Wrf33oLEAtUQCAg3xNT2uhOX6tyd8ms6eEzoPkuHxcrq9GHr+3pXvgR6HzACFQAIBDuMsK65c9X5EuketlZmoKnQlVc7dc/288H/37cZ1rHwodBgiJAgAcxcEHDf2dmy4x6Wmh86ByLi9KdpNcn2jtWreGp/UBB1AAgDLtX79seWS6xF0XmGl66Dw4OpffZbLPFnPNn2vv/N6jofMAaUMBACrkPzu9ubhnxrmK7SKZXSBpTuhMkNwVm7RBkX/NzW5qW7zuN6EzAWlGAQAmwb9ycW7kyVu7TXaRuV8os5NCZ8oSl4+ba42bfa2Ui77OeX2gfBQAoIpGB7sXxrHOlds5bt7NjYaqz6Vfmvsas2hNcyn+ji3rHw6dCahHFAAgIb6mJz/S5GdHUXyO3M5xaamZ2kLnqkN36+ABf2zM1xzXs25r6EBAI6AAADXiPzu9eWTn7M4o8sUuLZB8gdz+1ExR6Gxp4dKwyX/kbndFph+W8rpjyqJ1vwudC2hEFAAgIL9z4ZSRwtQzzeIFJi1w2QKZn2GyltDZEud6wE13SX6Xye9yy9/VtmTtvaFjAVlBAQBSxtf05AtNYydLudMU6VTJT5PbaZJOk/mp9bKu4MCqfH9Asrtlukfyu83sbiuV7m7y6G7O3QNhUQCAOrNnw/Pm5krjp0byEzzSHHPNdvPZcs0202x3O/ir5phpSjXHPnhQ3+HSNjNtd7ftB3717RZpe+y+3WSPmOfubdnV9ht74e3Fao4PoHooAEAD81vPb9HMHS17Rptbcvnx5qiUb7F81GLjpWbLRS3jFjdbbC2Kosg9HlUcjeYiL8qjUY+8GMdjo3G+uTi1VBzVlGlFnfmdETPFof9cAAAAAAAAAAAAAAAAAAAAAAAAAAAAAAAAAAAAAAAAAAAAAAAAAAAAAAAAAAAAAAAAAAAAAAAAAAAAAAAAAAAAAAAAAAAAAAAAAAAAAAAAAAAAAAAAAAAAAAAAAAAAAAAAAAAAAAAAAAAAAAAAAAAAAAAAAAAAAAAAAAAAAAAAAAAAAAAAAAAAAAAAAAAAAAAAAAAAAAAAAAAAAAAAAAAAAAAAR/f/AYGSGo1CN4t4AAAAAElFTkSuQmCC;" parent="1" vertex="1">
          <mxGeometry x="278" y="620" width="84" height="84" as="geometry" />
        </mxCell>
        <mxCell id="Zr7tizGE0mZnI7TlOZvU-9" style="edgeStyle=orthogonalEdgeStyle;rounded=0;orthogonalLoop=1;jettySize=auto;html=1;" parent="1" source="Zr7tizGE0mZnI7TlOZvU-4" target="Zr7tizGE0mZnI7TlOZvU-2" edge="1">
          <mxGeometry relative="1" as="geometry">
            <Array as="points">
              <mxPoint x="955" y="662" />
            </Array>
          </mxGeometry>
        </mxCell>
        <mxCell id="Zr7tizGE0mZnI7TlOZvU-14" value="Commit to DB" style="edgeLabel;html=1;align=center;verticalAlign=middle;resizable=0;points=[];fontSize=18;" parent="Zr7tizGE0mZnI7TlOZvU-9" vertex="1" connectable="0">
          <mxGeometry x="-0.3115" y="-2" relative="1" as="geometry">
            <mxPoint y="10" as="offset" />
          </mxGeometry>
        </mxCell>
        <mxCell id="Zr7tizGE0mZnI7TlOZvU-4" value="apply_cdc.py" style="shape=image;verticalLabelPosition=bottom;labelBackgroundColor=default;verticalAlign=top;aspect=fixed;imageAspect=0;image=data:image/png,iVBORw0KGgoAAAANSUhEUgAAAgAAAAIACAYAAAD0eNT6AAAABHNCSVQICAgIfAhkiAAAAAlwSFlzAAAN1wAADdcBQiibeAAAABl0RVh0U29mdHdhcmUAd3d3Lmlua3NjYXBlLm9yZ5vuPBoAACAASURBVHic7d15nFxlne/x7+9U9ZaQdGczBCQgjKMiI8ZAOul00iI4Mm4Ic/E1o+OMjsi4XJ3BZZQlaZsE1EFxuerMxauO66iMIirLuMWQTqfTIeIax1EQFAiQkM7eVd1d53f/SBCMWaq669Rzqs7n/Xr5SpA65/mGrtT51nOec44EAAAAAAAAAAAAAAAAAAAAAAAAAAAAAAAAAAAAAAAAAAAAAAAAAAAAAAAAAAAAAAAAAAAAAAAAAAAAAAAAAAAAAAAAAAAAAAAAAAAAAAAAAAAAAAAAAAAAAAAAAAAAAAAAAAAAAAAAAAAAAAAAAAAAAAAAAAAAAAAAAAAAAAAAAAAAAAAAAAAAAAAAAAAAAAAAAAAAAAAAAAAAAAAAAAAAAI3MQgcAUF0LL/WmaN6+WbnS6ByZZpYUtZri1sijljiyFlPc6m4tZt4iWau7t5gp525FMxXdveiyQmRejGMrRjkveBwVo8iLHtueXOzbx/Pj24b6Zu8O/WcFMHEUAKBOLOx9YIqp9dQottNkdqrJTpBrjsxnuzRb0myTzZbUXptEPiZpu8u2m7Rd0nZ3327SI3Ld6+Z356PS3QN9s7dK5rXJBKBcFAAgRXp6vXW/dp2Rcz0tdp1m0qkunWbmp0k2L3S+iXBpxNx/42Z3m3S3u+422d0ejf10qG/2/aHzAVlFAQACObN3uKNVera7FphrgWQLXP50M8uHzlYz7tvddJfJ7lKsu0qyu+7MTf+V+iwOHQ1odBQAoAYuvthz956+a4G5nyO3xWZaIOkpoXOl1D53/7GZfuiyO5rHoh/0v2f6ttChgEZDAQCS0OvR2dr5LHOdI9k5Ji1Xzc7NNxp3uf3c5WtcWpOLbO1gX8eO0KmAekcBAKrkrCsfPSnK5V5q0rnu3mNmM0NnakjusWQ/kbTGIt06trV97eYbbCx0LKDeUACASei8avcz3OILTX6hzM4KnSeTXDvd/Ftmumlc+2/f3Hfi/tCRgHpAAQAq4ra4d9fZsfuFJl0o2dNCJ8LjXBox6dux4ptyFn2TUwXAkVEAgDIs6t3+ZMX5v5fp7006OXQeHJu7j5vZLbHZ/ztly/TbbrzRSqEzAWlCAQCOoKfX8yPx8IvM7HUunW+yXOhMmCDX/S7/dC72T264ZuZ9oeMAaUABAA5xVu/OU3OxXyLTq+v15js4AvdYpu/I9Ynxhzu+weJBZBkFADhoyVXDC2KzKyS/SGZR6DxImOt+Wfz+cRv5BAsHkUUUAGTe4hW7l8ZWutJkfxE6C2rP5dtM9uHxYvzRze+buSt0HqBWKADIrEW9O//cYl0p0/LQWZACrt2SfyyK8h/a0DftkdBxgKRRAJA5Z6/YtcQs/qDJOkNnQfocfHjRh1qj0WvX9s3dGzoPkBQKADKjq3fbCeOef59Jr5SM9z6Oyl0PRqZ/Hry64wuhswBJ4EMQDe/8N3vLjhm73irXFWY6LnQe1Bd3HzDZWzau6tgcOgtQTRQANLRFK3ZcYIqul+nU0FlQx9xjN/tUyaLLN/dN3x46DlANFAA0pEW926fLcx8z2d+EzoLG4fKHzaPXbFzVflvoLMBkUQDQcBat2LFMij5rplNCZ0GDcv+Y7d3zjsEPzh8JHQWYKAoAGsbCS70pP3dnn6R3ciMfJM3lv8jFeuWG1TPuCp0FmAgKABrC4t6df+KuL0laGDoLssTHXLpy6OoZ14VOAlSKAoC6t3jF7qVupZslmxU6CzLK/XN7oo5LtvTZaOgoQLkoAKhri1buvFjunzWz1tBZkG3u+kHzmC7qf2/HcOgsQDk4T4q6tWjl8DtM/mUO/kgDMz13tMkHFl05/JTQWYByMAOA+tPrUafv/Jhkrw8dBTiUy7eZRy/ZuKp9Y+gswNEwA4C60xnv/DgHf6SVyebI/L8WXbXjzNBZgKOhAKCudK4YfrfM/iF0DuAY2s3sdk4HIM04BYC60bly5xskfTx0DqBc7v7rXJRfyuOFkUYUANSFRb3D/8tifZkb/KAObc6NjJ0zcN2cPaGDAE/EhylSb8lVwwvk+jwHf9SpheNtTTxSGKnDBypSrafXW2PT503WEjoLMFEmvaRz5fDrQucAnogCgFQrxLuuldnpoXNIkrv2uvxXLt0nd+74hoq42/Vn9e7ksdRIDdYAILU6e4efK9f3Jav9+9R91E3fM+mmUhzd0VwcffDQc7hnv2vXrFxLfHLs9gK5v8xMZwfJirrh8vVD1rFcfRaHzgLwYYVUWtS7fbrF+Z/KNL+2I/vW2O1qi8a/ONQ3e3clWy6+YvuJcS73BpNdJtOUpBKi7r1r49Ud7wsdAqAAIJU6Vw73SbayZgO6drv0vlK070Ob+07cP5ldLbxi77x8bqzXpdeaWb5aEdEgXPubxqNT+t8zfVvoKMg2CgBS5+C3//tk6qjFeC791MxfurFvxr3V3O/iFTt63OyrPKUQh3LX+4ZWdbwrdA5kG4sAkT6ef1PNDv6ub7RZsavaB39JGlw1c62XdLakn1d736hzpjcu7t05M3QMZBsFAKmysPeBKZJfVoux3P0LQ1H7hWv75u5Naoyha2b8JjcytkSuHyU1BuqPSdNir837HDgSCgBSJe9trzPZnKTHcfnGtqjjklqsxh64bs6eUlx6qdwfSnos1A+TvXlR7/bpoXMguygASBWX/XUNBrnfrella/uskPhYB915zazfWWQXuHvNxkTqtUel/PmhQyC7KABIje7Ld88x19lJj+ORv3lT33E1/zY+2NcxJOm6Wo+L9HLTC0NnQHZRAJAao01+ftL3+3dX/1DfjK8nOcbR5Avj17mcy79wkL9Acq7GQhAUAKSHxy9KfIzI3pH4GEcxcN2cPZFsVcgMSBGz4xf37lwQOgayiQKAdOj1yGQvSHIIdx8Y6msfTHKMcrRY+yck7QudA+kQx8Y6AARBAUAqLBzbNzfpa//N7BtJ7r9ca/usINdtoXMgHcz0tNAZkE0UAKRCU9PYvKTHiCy6OekxymWmYOsQkC4uT/y9DxwOBQCpEMdRoh+CLt23oW/6fyc5RiVGzG8JnQHpYG4UAARBAUAqRB4n+iFo0j1J7r9SP+6bsdOl4dA5kALGDADCoAAgFTxK+luQb012/5UzT18mBDHz9F5vDh0C2UMBQCq4a2qyI9iDye6/cp7CTAjBrEk7p4ROgeyhACAb3FN32Z0ZlwICCIcCgKw4PnSAQ7k8dZkAZAcFAJngZieEznAoU/oyAcgOCgAywTxtK63dxAwAgIAoAMgEl85Y2PtAahZada7Y9RzJmkLnAJBdFABkgpm1RvGURJ81UAmXXxg6A4BsowAgMyLZBaEz/J7potARAGQbBQCZ4fKX9PQ+fFzoHEuuGl5gsmeEzgEg2ygAyAwzm1mIm98eOkfJtDp0BgCgACBbzN7eefmeuaGGP7t3x3Ize2Go8QHgMRQAZM1Uz5feE2Lgnl7PW2zXhRgbAA5FAUDmmOk1nSt2XlrrcUfinR8xs0W1HhcADocCgGwy/+jiFTt6ajVc54qdbzSzN9RqPAA4FgoAMsqa3OyrS3p3dSU9UudVu/7G5R9OehwAqAQFABlms+I4XnP2yh1/l8juez3qXLHzXxT558wsn8gYADBBFABkm1lzpOjfF60c/vCi3u3Tq7XbJVfuOHlRvPMWmd5RrX0CQDVRAABJJnuLPPfrRSt3vqmn1yf8bf3M3uGOzhU7/6WUs1+a2fnVzAgA1cS0JHCQyeZI+uiI77xs0YrhL5rs5o2rOjYfa7uFl3pTfu6u58r8pR7rFTLNNFkNEgPAxFEAgEOY7DSZVkha0bli5/1u3i/ZgyZ/MI5tayRv9sjmmfwEd5tv2vVcmaZLJuO4D6BOUACAozE92WR/9dg/RNGBX+3gP3PAB1CvWAMAAEAGUQAAAMggCgAAABlEAQAAIIMoAAAAZBAFAACADKIAAACQQRQAAAAyiAIAAEAGUQAAAMggCgAAABlEAQAAIIMoAAAAZBAFAACADKIAAACQQRQAAAAyiAIAAEAGUQAAAMggCgAAABlEAQAAIIMoAAAAZBAFAACADMqHDgBIkqLos67SYOgYWWSxnSHTqtA5ANQWBQCpMNQ3fYukLaFzZFFn7/BOuYWOAaDGOAUAAEAGUQAAAMggCgAAABlEAQAAIIMoAAAAZBAFAACADKIAAACQQRQAAAAyiAIAAEAGUQAAAMggbgWcNr0eLdLuRealTik6QdLxLp9nbvNkPsspbagyd2vmRsBhtY7mW8p9bWFg2X1yL/v1KTAis4fctdWkhyRtNdM9o9b03WlLvv9w6HBZRgFIge7Ld88Zy/kLFMV/Id/5AslmPfE4bzLJfv87AA0mbray/2q7/AQzq7fP7lOe+Cd0Sfl4zEfWL/uhzG9zt9vaHjh+o738xlKwhBnE8SSgRVftONOi6Eq5/6XM+GYPZFRs+Xmb+o57qJzXjqxfVjJrwJlA1wMyvb+lef8Ndtbm/aHjZAEFIIDOFbs63fxKk14SOguA8CopAIWBZZ50nsC2yXV9i5c+Zt0De0KHaWSN1yJTbNGVw0/pXDl8u8wHOfgDqJR7Jj6z58j0nkKUu68w0H2ZO19Uk5KFN1MqLLpq+O+Vsx9L9oLQWQDUqR/0ZOYz26QZkl1fHFj2/f3rls4PnacRZebNFEr35bvndK7c+XWL7JMmTQudB0Adm7Mte5/ZpudaZD/Z39/9N6GjNJrsvZlqqHPFzuePNpV+KumC0FkANIDd03OhI4RgZu1RZJ8bGVj2Ff/R86eGztMoKAAJOfuqna+Q+S0mmxs6C4AGMWVapj+zTbq4sG/k+7s2njsrdJZGkOk3U1I6V+74xyjyz0vWFDoLgAayd1/mP7PNbFFzqdi/f2jZSaGz1LvMv5mqbdGK4dVS9CGp/Bt7AEBZxpoyeQrgUCZ7ejTmA4UNy58ROks9owBUUeeK4X8zsytD5wDQoFqKfGY/xuzJHnv/6GD3wtBR6hVvpipZtGJ4tcz+IXQOAPUnL4/Led2e5hY+s5/ATDPj2G4dGVz2lNBZ6hFvpipYfNXwJXzzBzBRuWJprJzX2ViOUwB/7EmK/VZf1z0jdJB6QwGYpMW9O8+PTf8aOgeA+pVrKZZXAEbH+Mw+DJM9vRjZTf6z05tDZ6knvJkmYclVwwviWDfW4ZO5AKRI244nlVcAmigAR2TqKeya+WluHVw+3kwT1Hn5nrlxpFvMdFzoLADq2+0zVV4BKHEK4GjM7BXFgWVXhc5RLygAE9U0/knJ5oWOAaDOucfqs7IWAVo+z2f2Mbh57/71y7pC56gHvJkmoHPlzjdI9qLQOQDUP5dGy37xeInP7GMwWS6Sf94HF00PnSXteDNVaEnv7qfL9f7QOQA0CLOypv8lyfIRpwDKYfaUYtzy0dAx0o4CUIGFl3pT7PHnZZoSOguABuFedgFQaZzP7PK9qri++69Ch0gz3kwVyM/d2SeJu04BqB4rbwGgJJlzxVElYtO/7l+3dH7oHGlFASjTWb2PnuGmfw6dA0BjMS//FIAkCkAFTNZhuejDoXOkFQWgTDnPfchknH8DUF2VzACY84TRCpn0spH13eeGzpFGFIAynL1i+EJJvIEAVF8FawDGOAUwUR/0r1zMF7hDUACO4fw3e0tk9oHQOQA0Kiv7MkDLcwpgIszszwonbb00dI60oQAcw/CMXW+XxJOmACTCKzkFUMpxCmCCLNYqX9PTETpHmlAAjmLxFdtPlHR56BwAGlgllwHmmAGYMLNZhZbSu0PHSBMKwFF4Pr9S0tTQOQA0sEpmAFSiAEyG2xu5LPBxFIAjWHzF9hPl/urQOQA0uEouA3RmACbDTE1Rzric+yAKwBF4Pv92mfFsaQDJsgpOARhrACbLpdfu2fC8uaFzpAEF4DAW9u6eLRcrRgEkzip4GJAxAzBpJmvNx2NvDZ0jDSgAh5GLS//E/f4B1AR3Aqw90xt8XfeM0DFCowAcYlHv9ulm9r9D5wCQERUsAiyJOwFWg0nTijm9JXSO0CgAh/L8myS1h44BICvKXwNgzABUjbu9xdf0HBc6R0gUgCe4+GLPmeuNoXMAyA53K1bwcgpAlZhpZqElfmXoHCFRAJ7gvqfvPl+mJ4fOASBTdlTwWk4BVNcloQOERAF4AjN/XegMALLFpO0VvJYZgCoy6axif9ezQ+cIhQJw0MIr9s5z9xeFzgEgW8y97ALAjYCqz6NcZr/4UQAOyuXGX2PGozYB1FZsvq2Cl/MZVWXu/kq/c2EmL/umAEiS3Ex6begUALInUr78GQDWAFSdmbWPjE65OHSOECgAkhb37jpXplND5wCQPaWo/BkAZwYgEZErk6cBKACSYve/C50BQDaNKn6kgpdTAJJgWjoy0PMnoWPUWuYLwMJLvcncXhw6B4DscfnDP+6bsbOCLTgFkBBT6aLQGWot8wUgN2/XOTJ1hM4BIIPcflrZBixUTowbBSBrzP3C0BkAZJNJFRUA7gOQHJcW7RtYfGLoHLWU8QLgJumC0CkAZJR5hTMA3pxMEJjJIjVl6gthpgvAot7dnZLNC50DQDbFVtkpAOdW5YkyeaZOA2S6ADD9DyAUl/bsU/tPKtvInppQHEhyafmujefOCp2jVjJdAFwUAACh+C1b+my07Fd/5eKcpKckGCjzTJZrHi9k5rRwZgvA2b27/tREmwYQin2tklcXTnjgFDPuBJi8KDOXhWe2AJj7OaEzAMgmdy+0WfG2ijayXOZuVBNIj7ssdIhayGwBEAUAQChm31nbN3dvhVstSyQL/oCZZo6u7zozdI5ayG4BMD03dAQA2WSxVzT9f2Ajz8y56dA8ijLxBTGTBWBR7+7TTTY3dA4A2ePu4/F49M1KthlZ132qyc5IKhP+kLtRABqWx5n44QJIH5Pdsem97Y9WtE2OG5bVli93b/zjY8P/AY+AAgAgCDdVPv0vcclyDZlZ+9j6rueEzpG0DBYAN3PvCZ0CQPa4+w7Z+Ocq2aa4vucMyVgAWGNxlGv4L4qZKwBn9e54psxmh84BIINM7x3qm727kk3c4suSioMjczX+F8XMFYBcKTordAYA2ePSA9GePR+tZJs965c8yeWvTCoTjsxcC0NnSFrmCoCbGv68DoBUWjX4wfkjlWzQZLk3mKwlqUA4CrPj927sOT50jCRlrgCIAgCgxtz9123W/smKtrn1/BbJ3phUJhxbPh5fEDpDkrJVAHo9klsm7vAEIEXMVq7ts/FKNim073mlpCcllAjlcKMANIol2vOnZjoudA4AmfLjoavbv1T5ZvZP1Y+CSrgoAA1jvBQz/Q+gtsyukMwr2WRkoPt8M/uzpCKhPCZRABpFFDX2DxNAurj7Fzb2td9a0TZ3LmyS9MGEIqEC7jrVBxdND50jKZkqAHIWAAKoFf9lWzT6+kq3Ko62XWaypyeRCJUxk42UWp4dOkdSslUAzFkACCBx7l6Q+csrfeTvvsGeJ7trZVK5UDkzPSt0hqTkQweolYXv3NEu2azQOQA0PpP948a+GT+pdLsojq83s6lJZMIEuZ8WOkJSMjMD0Nxkp4bOACAD3P9j46qOGyrdbGSg+zyTLk4iEialYY8dmSkAsTXuDxFAOrj8V7nC+D9UvN2dC5skq+g2waiRBj52ZKYAeAP/EAGE5+4FxX7xwHVz9lS6bbHY9laTnpZELkyS6ymhIyQlMwXAGngaB0Bg7qOR/OVDq2f+uNJNR9Z1n+rSiiRiYfLMbOqeDc+bGzpHEjJTAOQUAAAJcB+No+gvB1fN/GbFm67rnqGcbmHhX7rlSuMNefzITAFwZgAAVJv7qCu6aFNf+7cq3vRnpzcXI7uJa/7TLxd5Qx4/slEAej0y08mhYwBoHC4vKoouHFrVfstEti/smvkpmXqqnQvV5w26DiATBeCs8R0nStYUOgeAxuDyonl0YaW3+X3MyED3KjN7ZbVzISFGAahbls815AIOALXn8mJk9rKNq9pvm8j2I+u7X2Oyq6qdC8lxeUMeQzJRAKLY5oTOAKD+ueveyGz5YF/H7RPZfmSg+zzJ/m+1cyFhroY8hmSiALiXGvKHB6B23PW1YuQLBvs6hiayfXF9zxly/aeZOB1ZZ0yNWQAy8SwAi5gBADAxLi/K7e1DqzomfKe+vWuXzXOLbzFZezWzoTbcGrMAZGQGgAIAoHIu/1Uu1pLJHPx9XfeMXN6/JWl+FaOhhkx2nK/paQ2do9oyUQCsQdsbgCT5F/Mj4ws3rJ5x10T3sK+/64RCTneY2XOqmQy1NzI1brjjSCZOAbg0x0KHAFAf3O/0SO8c6pvx/cnsprBh+VMVx9+W7JSq5EJQuXHNkfS70DmqKRMFwNznyKgAAI7M3X8duV05uLrjRsl8MvsqDix7jrvfLuP0Y6OIG/BKgEwUADdmAAAcnssflmxV6eGOG4ZusLHJ7m+kf/k5sfxmk6ZVIx/Swd0pAHVqeugAAFLG/X9c9pm2aPQja/vm7q3GLgsbll/kHn/RZC3V2B/Sw6zxjiOZKADm1iKmAAC47nHzr7jpy5uunvGjau56pL/7de7xv5osV839Ih3M1HClLhMFwOXNRgMAsse126V7JX0nlr5856qOTUkMUxjovkKya5LYN1LC1Rw6QrVlogA0YnMDJsU9dik26eCv9vt/lhS7/An/TrHLYjOVHv9nj3WE7R/fz4Ex5CpJdsj+FNtj//6JY/zBa7z0h/s7dIw//DPIbMzcH1Cke026V7J7B6/u2JHof8Zbz28pduy7XtIbkxwHKdCAx5GGLwA9vZ4v+C6+/mMy9rlrm5lvc9c2k22TaZu7bzPTNjcNR7GXSlHOo4MHpliKIymO5bFiefT7/y8fl+SxRQf+v5IU5w7+aiX3SIpL8jhS04HX5eQ5eTx+8HXj8jinOI7G5GNqjfPucZM8LrrHuRb3EXncolLcplK8V+Nx0+6Sd4yfFG8rKj51WPGNNyqe7Ap3HFBcv3xBwfZ9zqRnhs6C5LkbMwD1ZnjvQy1tU9tCx0AdcPk2kw24fL2ZbxiXftu0e++2wQ/OHwmdrRo2hw7QIPwrF+eKT976ztj93Sbu658Z5swA1JvpTW3Nk76uBw3J5XfL7fvmPiBF64dWd/wqdCak28hAz58UtfWzki3h1iJZwwxA3Sm25FsiHw8dA6nhYy7dJNe/Da2asSZ0GtQHX9PTWmwp/bN7/C6ZMaWYQebMANSd/PhoS5zLxCMPcHS/keuGKMp/akPftEdCh0H9KGxYflExLn1AslP41p9pFIB6E1uuWWLNU2a5fhRHtmJT3/RbWPyGShTXLX2m5+wjcn8etxKHi8sA607OPS6FDoHac93jpquGVrV/iQM/KlHc0P0sj+1tsfkrTNbwn5Eoj5nFoTNUW8O/uUdVGs2JG3NlxeP3dW+/YXMV7uuO7BhZv+wFJn+buz1fJnHzMBxiNHSAamv4AtCUby7GzhxAo3P3cTP9S2Ff4dqffGDevtB5UB/2rl02L5fzF8v0ZjP9mTjo40hcxdARqq3hC8B+jY+28pe6sblv8cj+bqiv487QUZBu/rPTmwu7ZnVLfr5kLzDTszjooxxuzgxAvWnbvafo0xruIU6QJPdYsg/M2Nmx4vb/Yw3XzjExPrB45qg3n+zu8z3y+ZJOlmy+ueYXdvkZZprKQR8V88b7jGn4AnDS/SeN/vYZu0LHQJW5/Fe5KHr1hr72gZqN2d81baQ515Ebi9olb5K5WVyKZHmTuY2V4sgsZ4riSOam0oHf22O/tziSyRTbgV/NzeLowGstjmQ5U8kPbp8zxXFkJpMik8eRJJNZVIrdDmxvB/59HEeyyCSZ3COZmcwjxTLpwO/ND7xeOrjtYxncI5lc0pi7jUo+duD3GsvlbMxlY/LSwV9t1N3G3EtjTU025q4xVzTmbmNeGh+N42gsnhqNTVPTmDQ8JmnMzto8oXUY7jJtXpiX1KTxXF5xlN9rU5oi35+P4qjVLXei3OdHOZ0st/lyzXf5yZLmF2VTZa4/Oo/PeX1MRgPOAGTib8OilcPjPKKzcbjra6Vo36s29524P4n97127bF4+70tdtkDSAjOd6fK5vIcmxl1jksYkHzNpTKYxycbkHunAl5C8H7ilbl6mvNyazMTNO5AurhWtS9etDh2jmhp+BuAAG5XE3bsagLveN7Sq/XKpo6qX9vmanuNGWsYvijx6lUvPkx34Sv0YvjlOnJmaJDX90feNJ1xb/wf/hv/USKMGnAHIRAEwV1FGAahvPuaxXj+0esanqrbHr1ycK5z40HmSv6qg+MJI0ZQD08QAcAiPWANQj9y8yDe4+uXSsFx/ObS6Ovfu3zew+MTIm95a1NZXmNnxHPIBHIubUwDqkmtYprmhY6By7nowdnvenas7fjnpfa3paS22lt7msS5nJTiASkSm4dAZqi0TC23MbFvoDKicyx8+cPBvn/TBv7Bh+UXF5tIWua02s6nVyAcgO+JYDXccycQMgLu28SyPOuO+3T0+987VMyZ18C+u7znDrfRhHugCYDKiBvwimYkCYPJtTPfWD3ffIffzNq2e9fMJ7+PO89qLo4VrYpVez+V7ACZrLEcBqEtu2sbhv27sMtmfb1w948cT3UFhsPv0QrHwdTN7Kj93AJPlLp+6X9tD56i2bKwB8KjhmlsjcnnJzS/auKpj80T3UVjf/TKPbdDMnlrNbAAyzLTTzlk7HjpGtWWiALg5BaA+XD7UN+P7E9nQXTayflmfy75m0rRqBwOQYd54CwCljJwCiEzbvKr3jUO1ufTVoatnXDehbQcXTS8MNH/OTC+tdi4AMFEA6lZcirdZlInJjrrk7v+dL4y/ZiLbFvq7nlaIo6+b2dOrnQsApAPryEJnSEImCoCVmh5SVAodA4fh0p5clLtw4LoZeyrdtjDYfbpKusNks5LIBgCSZO4Phc6QhEx8Ld74nmkPS9oXOgcOI/Z/sn0tMwAAFhBJREFU2tA3/b8r3Wz/+iUnq2TflnHwB5Aws3tCR0hCJgqAJMn1m9AR8EfWDa3u+HSlG+1Zv+RJptx3ZDoxiVAA8AdiUQDqmasxf4D1y8fcotdLVtHyTL/zvPa85f+Ly/wA1IoxA1DfzCgAaeLSB4b6pm+paJuBxW3F0cI3TXp2UrkA4FDNLc0NefzITgFgBiA13HVvyfavqmibNT35gvI3SrYsqVwAcCh37bCzvrsrdI4kZKYAxN6YUzh1KfLLNveduL+STQotpV6TvSipSABwWA08e5yZAmAUgHRw3zLU13FzJZuMDnYvlPSuhBIBwJG5N+yxIzsFYN/OeyXuBxiauz5QycI/v/X8llJsnzFZJu5ZASBlmAGof4MfnD8itwdC58g237o31/H5SrYodOx9t0nPTCoRAByd/Tp0gqRkpgBIkpvuCp0h2+zDW/pstNxXjw4sWyTpHQkGAoCjykX+o9AZkpKpAmByCkAgLu0ZL8b/Vvbr1/S0ltz/3WS5JHMBwJG4fLxpx3E/C50jKZkqAO7+w9AZssrk39z8vpllX0pTbCm91cyekWQmADgqty32wtuLoWMkJVMFII4pAKHE8m+X+1r/2enNcr05yTwAcCyNPmucqQJw5zWzfif37aFzZFE83lx2ARjZPeuvZXZ8knkA4NgiCkCDYRag1lw/23ztcVvLfblJlyUZBwDKETMD0FjcKAA1Z/puuS8d6V9+jklnJhkHAI7FXd6WKzbsFQBSBguAZBSAGnOp/OtoI39rglEAoCxmuscWD+0OnSNJmSsAuVI8FDpD1rj7g+W8bv+6pfPl4n7/AIJzaVPoDEnLXAHYcM3M+yT9JnSOLLEoKuv8f2TRAjNZ0nkA4Jjc14SOkLTMFYCDGv4HmyYllcqaAZCJ6/4BpIJFUcMfJ7JZAGJr+B9seriPaMZDZb6YAgAgPNcDrUvu+FXoGEnLZAHw3NgPQmfIDNej5d7/380pAADCs2zMEmeyAAz1zb7f5Q3f7lLB7OEKXvz05IIAQHncYwpAQ3P7QegIWeCusu6jvfuO7jkmTUs6DwAcU5yN40N2C0BGpnhCM/NSOa/L5cebk84CAGX4bduy/ntCh6iFzBYAt/wayT10jobnKqsAWCnHY38BpMH3QgeolcwWgE19xz3kEjcFSphbmQWgKaIAAAjP/RuhI9RKZguAJJnsptAZGp25lVUAFFMAAITl7vtabPy/QueolUwXgNgoAIkrdwYgHqMAAAjL7DbrGhwJHaNWMl0ANvW1/4/ct4TO0ci8zDUAyjMDACCsyP1roTPUUqYLgCS5KVM/8For9yoA4xQAgIBcXmz2+Fuhc9RS5gtAZOI0QILKngFw5ROOAgBH813rHtgTOkQtZb4ADPbN+KFL94XO0bCsvEWA5uPMAAAIJ2PT/xIF4DFfDR2gUVmZMwBjOU4BAAjDXWOj+dabQ+eoNQqAJI9LnwqdoVGVfR+A2CgAAMIw3dze+b1HQ8eoNQqApE2rZ/1c8g2hczQik+KyXugUAACBxPpE6AghUAAel8k3QNJcZV4FkCtRAADUnvu9rUvXfSd0jBAoAAeN2/4vy7U7dI6GU+5VAJwCABCEfdJMmXwuDAXgoM19J+6X+RdD52g0VuZVAJwCAFBrLi+VbOzToXOEQgF4AjNOA1RbufcBsFxMAQBQW263Tu0afCB0jFAoAE8w2Dfjh+76YegcDaXMqwA4BQCg1sziTH/powAcIjJdHzpDIzEvbxGgxJ0AAdSOS79sWbL+ltA5QqIAHOKkX7R/yeV3h87RKMq9DwBrAADUlOm9ZmVeptygKACHuPFGK5n0vtA5Gka5awAiCgCAmrmvtWn/F0KHCI0CcBh7rOMzLmV2YUg1lX8VAIsAAdSGu66zszaPhc4RGgXgMLb02ajc3x86RyMo9yqAkosCACB57g+1jkafDB0jDSgAR1CK9t8g9+2hc9Q7K3cNAKcAANSC2fV2ztpC6BhpQAE4gs19J+53M64ImKwyrwIwTgEASJr7oy1x6d9Cx0gLCsBRRHt2f0iu34bOUc+4CgBAWris17oH9oTOkRYUgKMY/OD8ETe9PXSOemblPguAUwAAEuTSz1sfOJ5v/09AATiGoas7bnRpbegcdavcqwC4ERCARPk/2ctvLPfzKBMoAOWI43+Ue6ZvGDEJZf13M04BAEiIu3+jrav/u6FzpA0FoAxDq2f+WKYbQueoS2WfAmARIIDqc9eoLPe20DnSiAJQpnHLrXBpOHSOeuNW5rMAmAEAkAj/cFvX2l+HTpFGFIAybe6bvl3Sm0LnqDdlLwLkRkAAqszdf9Fq472hc6QVBaACQ1d3/IfkXwydo66UOwMQOQUAQNW4azRS9ErrGhwJnSWtKAAVGi/6G7k3QAU85+W9jhkAANVjpqtalt5xV+gcaUYBqNDm983cFUfxq7gqoDxmXlYBcNYAAKga/37LknU8z+UYKAATsKlv5h0uuy50jnoQu8qbARAzAAAmz107Shr/W7OyP3syiwIwQaWH21e4fH3oHKlX7l9CYw0AgMlxV2wWv3pq1yCPcy8DBWCCNt9gYz4aXSD3/wmdJc2szBsBSWbJJgHQ6Ex+WWvX+m+GzlEvKACTsOm97Y+WIvsLd38kdJa0KvsUgIsCAGDCXP7h1qX9Hwmdo55QACbpzr6Oe6LIXiLX/tBZ0qj883BOAQAwIS59vXVJ/1tD56g3FIAqGOzrGHLFr+DKgD9m5c4AGDMAACrn7kOtGnuFWbmnG/EYCkCVDK2aebOZ/a27j4fOkiplXgYoUQAAVMblm8Zaci/iZj8TQwGoosGrO75gil7K6YDHebmLAJ1FgAAq4P6d1mLuedPPWrs9dJR6RQGoso2r2m+LZee5+47QWVIhLvtaXAoAgLK4+1da2ne82M5Zuzd0lnpGAUjAplXtG9zj5S5l/lpUi1gECKCqPt7a1f/XdsaW0dBB6h0FICGbVs/6eTQ+3inpe6GzBFXuDACLAAEchbv2u/ubWrvWvYkFf9VBAUjQ4LWzH9h4dfvz3f0ydy+EzhNCHJW7CJA1AAAOz+WbzEvPaVva//HQWRoJBSBx5kOrZnxIUW6hS5l7MpWVOQNg3AgIwCFcXnLX1a3FXFdr98AvQ+dpNBSAGhnqm76l9FB7p1yXyz0zq1ZNuTKn6lgDAOAPfC/n0ZK2pet67Zy1XF6dAApADW2+wcY2rup478j+wilyf5vkW0NnSpqVewqANQAAJLn8llIpXtLate685qV3bAqdp5FRAAL4yQfm7du4asb1rdZxqlxvkutnoTMlpVT2ZYCsAQCyyuV73f3L5vactq7+F09dtn4wdKYsyIcOkGVr+6wg6eOSPn7WlY+elMtF50v2Fy6dZ9K00PmqoezLAJ05ACBL3LVF5rfJdVtr+451XNZXexSAlLjzmlm/k/QJSZ9YeKk35Z40fLpZ7gRZfLy7zTPzeXLN8jqbtclF0X1lvpRzfEH5Bnf9NnQKNB6TRtz0kLm2mkUPlWJt9Wj0nqlLBzN/n5TQKAAptPkGG5P044P/ywQ37WcCIBxzfaR1af+XQucAUDt19W0SAABUBwUAAIAMogAAAJBBFAAAADKIAgAAQAZRAAAAyCAKAAAAGUQBAAAggygAAABkEAUAAIAMogAAAJBBPAsAgFz22sL67ueGzpFVLTZ+mXUNjoTOgWyhAACQTOdJdl7oGJlVbHmXJAoAaopTAAAAZBAFAACADKIAAACQQRQAAAAyiAIAAEAGUQAAAMggCgAAABlEAQAAIIMoAAAAZBAFAACADKIAAACQQRQAAAAyiAIAAEAGUQAAAMggCgAAABlEAQAAIIMoAAAAZBAFAACADKIAAACQQRQAAAAyKB86AABUm7t2y7TV3Ke47HgzNYXOBKQNBQBAXXP5Xslu99hvtig32Nq890E7a/P+3/97l+0dWDKnxfKnxPLz3e2lZloYMjOQBhQAAHXJXf8TmV/VsvO4b9gLby8e6XVmcmnDI5IekTQk6ep9gz1Pjkrxm2X+FpO11iw0kCKsAQBQb7a563+3jkbPbOnqv/FoB/8jmbp47f1tS9e9M45yT5X0KXfFCeQEUo0ZAAB1xO8YHdf/mr68f1s19jZ18dr7Jb22sGHpf3ps/2Fm7dXYL1APmAEAUC8+3tI8cl61Dv5P1Lpk/W0WRUvk/utq7xtIKwoAgNRz19WtXeveZGdtHktqjNYld/yimG9ZTAlAVlAAAKSaS19v7Vr37lqM1d75vUcVRS919121GA8IiQIAILXctaU1Lv3tgZX8tdG65I5fWOR/zcJANDoKAIDUcrdLrHtgT63HbV2y/jaTf7rW4wK1RAEAkEou/+qU7js2hBq/5PFKd+0/9iuB+kQBAJA67hqTcu8KmWFq98CDMv9AyAxAkigAAFLIv9nWtTb4avyxcf0fl5dC5wCSQAEAkDpufnPoDJI0fXn/NnPrD50DSAIFAECquLzUptK3Qud4nH8tdAIgCRQAAKli0pB1De4IneP3oui20BGAJFAAAKSKy+4NneGJWqZtv8+9dvchAGqFAgAgZfzB0AmeyM7YMmryR0PnAKqNAgAgVcyUqgIgSS5LXSZgsigAAFLF3VJ38x2TRkJnAKqNAoCUcM6x4gDXvNAR/oglnGlaE+9/1BwFAKlg0nDoDEgHS/pgWyF3mbuOT2z/8pIWfrfmzzsAKABIhVj+UOgMSAeXnxA6wxPt2dwzy0zNSe3fpEfMePIgao8CgFQwy20NnQHpYLKz3dPz2dQ8Or4kyf27i/c+gkjNXzJkWxQbH4J4zJNGBpYtDh3icdGFie7eKAAIgwKAVCjk83wI4vfM9NLQGSTJv3JxTu4vSXIMYwYAgVAAkArtnd97VNJ9oXMgHUy62Nf05EPnKJ704J/LbHaSY3ikHya5f+BIKABIk1tCB0BqnFpoLl0aMoC7zGNbnfxIOZ41gCAoAEiP2CgA+D0z6/X+rmmhxh8d6P4rM3tOkmO4+y/alqy9N8kxgCOhACA1WqLRNe7ccQ2/96RCFK0MMbD3d01z6ZrkRzK+/SMYCgBSw7oGR2S+JnQOpIjb2wr9y/6ypkO6okIUfUlmT0l8MHMKAIKhACBVzKJPhs6A9DCTuflnihu6n1WrMQsDy95vshfWYKh7Wou5H9RgHOCwKABIlZbFd9zk0s9D50B6mNlUj/WtWpSAwkB3r5kuS3ocSXLpWjtn7XgtxgIOhwKAVDGTR7JrQ+dAypidFMcaKGxYflESu/eBxW0j67u/LNm7k9j/YdzX2rz/szUaCzgsCgBSp/n+uV+W+69D50C6HJgJ8P8cGVj2Xl/Tc1y19ltct/TMgjetM7OXV2ufx+LSe+2szWO1Gg84HAsdADickfXdrzGzT4XOgdR6xF1Xt7bsv2GiB9KRDT2nmMer3PVKsxp+Frrf39K+4zQ7Y8tozcYEDoMCgFRyV1Tc0L1GsuWhsyDF3O91sy/H5jdNWdw/ZCY/6ssHF00fLTW/KDa7UK4LknzK35FD+Etal/Z/q+bjAoegACC1Rjb0nCKPf2JSsJvBoI64HnDzQXN7UKatbtqq2KdIdoKZTpD8FHdbGuSg/7hPtHatC3qHQ+AxFACkGqcC0EDuaSlGZ9o5a/eGDgJIFADUgZGB7q+b7ILQOYCJclfs5sundPWvD50FeAxXASD1xr10qdx/FzoHMAmrOfgjbZgBQF0oDHaf7iVbZ6aZobMAFfp0a9e6vw8dAjgUMwCoC62L+7e424vdtT90FqBcLn2rpRix6A+pxAwA6kph/bIXufnXTZYPnQU4Oh9o0fh51jXIEy6RSswAoK60Ll13i8sucT/69d5ASC79vKWkF3PwR5pRAFB3pnSt+0wkf4XLi6GzAH/EtX4019xjy/qHQ0cBjoYCgLrUsrT/Sx5Hz3fXjtBZgMe49KWWXVPPbe/83qOhswDHwhoA1LXCxu4/Vcluk3Rq6CzINnd/T2tX/5XHuh0xkBYUANS93Xd0z2nO2Tdl6gydBdnj8nHJXt/Wte6TobMAleAUAOre9OX921pGo+e69BEWB6Km3H/jbj0c/FGPmAFAQxlZv+wFZv5pyeaFzoIG5/6ZFo/fbN0De0JHASaCAoCGs2vjubOax0c/YaYLQ2dB43HXDpP/Q+vS/v8MnQWYDAoAGtbIwLLXSv4hkx0XOgsahOu7JRt79dSuwQdCRwEmiwKAhrZvYPGJkef/xcxeEToL6pjrATO9s6Vr3RdCRwGqhQKATNi/flmXSR8x08LQWVA/XF6U6/rWqW3X2LO/sy90HqCaKADIDHdFhQ3LXmPStZKeFDoP0s3dvyGP39rWPXB36CxAEigAyBwfXDS9ELdcIfmbWB+AQ7lrs1xXtHWv+3boLECSKADILB9YPLPgTf8o05tNmhE6DwJzrXXXtRz4kRUUAGSe93dNK0bRG+R6q8zmhs6D2nL5rS5dO6Wrf33oLEAtUQCAg3xNT2uhOX6tyd8ms6eEzoPkuHxcrq9GHr+3pXvgR6HzACFQAIBDuMsK65c9X5EuketlZmoKnQlVc7dc/288H/37cZ1rHwodBgiJAgAcxcEHDf2dmy4x6Wmh86ByLi9KdpNcn2jtWreGp/UBB1AAgDLtX79seWS6xF0XmGl66Dw4OpffZbLPFnPNn2vv/N6jofMAaUMBACrkPzu9ubhnxrmK7SKZXSBpTuhMkNwVm7RBkX/NzW5qW7zuN6EzAWlGAQAmwb9ycW7kyVu7TXaRuV8os5NCZ8oSl4+ba42bfa2Ui77OeX2gfBQAoIpGB7sXxrHOlds5bt7NjYaqz6Vfmvsas2hNcyn+ji3rHw6dCahHFAAgIb6mJz/S5GdHUXyO3M5xaamZ2kLnqkN36+ABf2zM1xzXs25r6EBAI6AAADXiPzu9eWTn7M4o8sUuLZB8gdz+1ExR6Gxp4dKwyX/kbndFph+W8rpjyqJ1vwudC2hEFAAgIL9z4ZSRwtQzzeIFJi1w2QKZn2GyltDZEud6wE13SX6Xye9yy9/VtmTtvaFjAVlBAQBSxtf05AtNYydLudMU6VTJT5PbaZJOk/mp9bKu4MCqfH9Asrtlukfyu83sbiuV7m7y6G7O3QNhUQCAOrNnw/Pm5krjp0byEzzSHHPNdvPZcs0202x3O/ir5phpSjXHPnhQ3+HSNjNtd7ftB3717RZpe+y+3WSPmOfubdnV9ht74e3Fao4PoHooAEAD81vPb9HMHS17Rptbcvnx5qiUb7F81GLjpWbLRS3jFjdbbC2Kosg9HlUcjeYiL8qjUY+8GMdjo3G+uTi1VBzVlGlFnfmdETPFof9cAAAAAAAAAAAAAAAAAAAAAAAAAAAAAAAAAAAAAAAAAAAAAAAAAAAAAAAAAAAAAAAAAAAAAAAAAAAAAAAAAAAAAAAAAAAAAAAAAAAAAAAAAAAAAAAAAAAAAAAAAAAAAAAAAAAAAAAAAAAAAAAAAAAAAAAAAAAAAAAAAAAAAAAAAAAAAAAAAAAAAAAAAAAAAAAAAAAAAAAAAAAAAAAAAAAAAAAAR/f/AYGSGo1CN4t4AAAAAElFTkSuQmCC;" parent="1" vertex="1">
          <mxGeometry x="840" y="620" width="84" height="84" as="geometry" />
        </mxCell>
        <mxCell id="Zr7tizGE0mZnI7TlOZvU-10" style="edgeStyle=orthogonalEdgeStyle;rounded=0;orthogonalLoop=1;jettySize=auto;html=1;entryX=0.5;entryY=1;entryDx=0;entryDy=0;" parent="1" source="Zr7tizGE0mZnI7TlOZvU-3" target="b_MoUG7u-HGy6iuQ1FGG-2" edge="1">
          <mxGeometry relative="1" as="geometry">
            <Array as="points">
              <mxPoint x="235" y="662" />
            </Array>
            <mxPoint x="235" y="480" as="targetPoint" />
          </mxGeometry>
        </mxCell>
        <mxCell id="Zr7tizGE0mZnI7TlOZvU-11" value="Quey" style="edgeLabel;html=1;align=center;verticalAlign=middle;resizable=0;points=[];fontSize=18;" parent="Zr7tizGE0mZnI7TlOZvU-10" vertex="1" connectable="0">
          <mxGeometry x="-0.106" relative="1" as="geometry">
            <mxPoint y="29" as="offset" />
          </mxGeometry>
        </mxCell>
        <mxCell id="b_MoUG7u-HGy6iuQ1FGG-2" value="slot_cdc&lt;br style=&quot;font-size: 13px;&quot;&gt;(logical replication slot)" style="ellipse;html=1;aspect=fixed;fillColor=#1ba1e2;fontColor=#000000;strokeColor=#006EAF;labelPosition=right;verticalLabelPosition=top;align=left;verticalAlign=bottom;fontSize=13;" parent="1" vertex="1">
          <mxGeometry x="215.3" y="450" width="40" height="40" as="geometry" />
        </mxCell>
        <mxCell id="8HBnWR9ecBioxXlSoVop-1" value="Localhost" style="rounded=0;whiteSpace=wrap;html=1;fillColor=none;strokeColor=#FA7021;dashed=1;fontColor=#FA7021;fontStyle=1;fontSize=19;labelPosition=center;verticalLabelPosition=bottom;align=center;verticalAlign=top;" vertex="1" parent="1">
          <mxGeometry x="100" y="570" width="960" height="190" as="geometry" />
        </mxCell>
      </root>
    </mxGraphModel>
  </diagram>
</mxfile>
